SplineFontDB: 3.0
FontName: FrancoisOne-Regular
FullName: Francois One
FamilyName: Francois One
Weight: Book
Copyright: Copyright (c) 2011-13 by vernon adams. All rights reserved.
Version: 1.2
ItalicAngle: 0
UnderlinePosition: -154
UnderlineWidth: 102
Ascent: 1638
Descent: 410
sfntRevision: 0x00013333
LayerCount: 2
Layer: 0 1 "Back"  1
Layer: 1 1 "Fore"  0
XUID: [1021 913 -2060267417 10005592]
FSType: 0
OS2Version: 4
OS2_WeightWidthSlopeOnly: 0
OS2_UseTypoMetrics: 1
CreationTime: 1363976149
ModificationTime: 1363982249
PfmFamily: 17
TTFWeight: 400
TTFWidth: 5
LineGap: 0
VLineGap: 0
Panose: 2 0 5 3 0 0 0 0 0 0
OS2TypoAscent: 2231
OS2TypoAOffset: 0
OS2TypoDescent: -674
OS2TypoDOffset: 0
OS2TypoLinegap: 0
OS2WinAscent: 2231
OS2WinAOffset: 0
OS2WinDescent: 674
OS2WinDOffset: 0
HheadAscent: 2231
HheadAOffset: 0
HheadDescent: -674
HheadDOffset: 0
OS2SubXSize: 1331
OS2SubYSize: 1433
OS2SubXOff: 0
OS2SubYOff: 286
OS2SupXSize: 1331
OS2SupYSize: 1433
OS2SupXOff: 0
OS2SupYOff: 983
OS2StrikeYSize: 102
OS2StrikeYPos: 530
OS2Vendor: 'newt'
OS2CodePages: 00000001.00000000
OS2UnicodeRanges: a00000ff.5000204b.00000000.00000000
Lookup: 258 0 0 "'kern' Horizontal Kerning in Latin lookup 0"  {"'kern' Horizontal Kerning in Latin lookup 0 per glyph data 0"  "'kern' Horizontal Kerning in Latin lookup 0 kerning class 1"  } ['kern' ('DFLT' <'dflt' > 'latn' <'dflt' > ) ]
Lookup: 260 0 0 "'mark' Mark Positioning lookup 1"  {"'mark' Mark Positioning lookup 1 subtable"  } ['mark' ('DFLT' <'dflt' > 'grek' <'dflt' > 'latn' <'dflt' > ) ]
MarkAttachClasses: 1
DEI: 91125
KernClass2: 70 72 "'kern' Horizontal Kerning in Latin lookup 0 kerning class 1" 
 89 A Agrave Aacute Acircumflex Atilde Adieresis Aring Amacron Abreve Aogonek uni0200 uni0202
 1 B
 1 C
 111 D O Q Eth Ograve Oacute Ocircumflex Otilde Odieresis Oslash Dcaron Omacron Obreve Ohungarumlaut uni020C uni020E
 1 E
 1 F
 1 G
 51 H M N Ntilde Hcircumflex Nacute Ncommaaccent Ncaron
 7 Iogonek
 1 J
 1 K
 1 L
 6 Lcaron
 1 P

StartChar: .notdef
Encoding: 65536 -1 0
Width: 748
Flags: W
LayerCount: 2
UndoRedoHistory
Layer: 1
Undoes
EndUndoes
Redoes
EndRedoes
EndUndoRedoHistory
Fore
SplineSet
136 68 m 1,0,-1
 544 68 l 1,1,-1
 544 1297 l 1,2,-1
 136 1297 l 1,3,-1
 136 68 l 1,0,-1
68 0 m 1,4,-1
 68 1365 l 1,5,-1
 612 1365 l 1,6,-1
 612 0 l 1,7,-1
 68 0 l 1,4,-1
EndSplineSet
EndChar

StartChar: exclam
Encoding: 33 33 7
Width: 543
GlyphClass: 2
Flags: W
LayerCount: 2
UndoRedoHistory
Layer: 1
Undoes
EndUndoes
Redoes
EndRedoes
EndUndoRedoHistory
Fore
SplineSet
415 0 m 1,0,-1
 127 -12 l 1,1,-1
 127 300 l 1,2,-1
 415 300 l 1,3,-1
 415 0 l 1,0,-1
176 448 m 1,4,-1
 127 1536 l 1,5,-1
 415 1536 l 1,6,-1
 368 448 l 1,7,-1
 176 448 l 1,4,-1
EndSplineSet
EndChar

StartChar: quotedbl
Encoding: 34 34 8
Width: 836
GlyphClass: 2
Flags: W
LayerCount: 2
UndoRedoHistory
Layer: 1
Undoes
EndUndoes
Redoes
EndRedoes
EndUndoRedoHistory
Fore
SplineSet
466 1536 m 1,0,-1
 754 1536 l 1,1,-1
 706 960 l 1,2,-1
 514 948 l 1,3,-1
 466 1536 l 1,0,-1
82 1536 m 1,4,-1
 370 1536 l 1,5,-1
 322 960 l 1,6,-1
 130 948 l 1,7,-1
 82 1536 l 1,4,-1
EndSplineSet
EndChar

StartChar: numbersign
Encoding: 35 35 9
Width: 1283
GlyphClass: 2
Flags: W
LayerCount: 2
UndoRedoHistory
Layer: 1
Undoes
EndUndoes
Redoes
EndRedoes
EndUndoRedoHistory
Fore
SplineSet
588 960 m 1,0,-1
 544 622 l 1,1,-1
 730 622 l 1,2,-1
 774 960 l 1,3,-1
 588 960 l 1,0,-1
112 960 m 1,4,-1
 112 1198 l 1,5,-1
 319 1198 l 1,6,-1
 364 1536 l 1,7,-1
 664 1536 l 1,8,-1
 619 1198 l 1,9,-1
 805 1198 l 1,10,-1
 850 1536 l 1,11,-1
 1150 1536 l 1,12,-1
 1105 1198 l 1,13,-1
 1219 1198 l 1,14,-1
 1219 960 l 1,15,-1
 1074 960 l 1,16,-1
 1030 622 l 1,17,-1
 1171 622 l 1,18,-1
 1171 384 l 1,19,-1
 999 384 l 1,20,-1
 949 0 l 1,21,-1
 649 0 l 1,22,-1
 699 384 l 1,23,-1
 513 384 l 1,24,-1
 463 0 l 1,25,-1
 163 0 l 1,26,-1
 213 384 l 1,27,-1
 64 384 l 1,28,-1
 64 622 l 1,29,-1
 244 622 l 1,30,-1
 288 960 l 1,31,-1
 112 960 l 1,4,-1
EndSplineSet
EndChar

StartChar: dollar
Encoding: 36 36 10
Width: 1040
GlyphClass: 2
Flags: W
LayerCount: 2
UndoRedoHistory
Layer: 1
Undoes
EndUndoes
Redoes
EndRedoes
EndUndoRedoHistory
Fore
SplineSet
682 434 m 0,0,1
 682 512 682 512 602 571 c 1,2,-1
 602 296 l 1,3,4
 638 315 638 315 660 352.5 c 128,-1,5
 682 390 682 390 682 434 c 0,0,1
377 1107 m 0,6,7
 377 1037 377 1037 458 984 c 1,8,-1
 458 1255 l 1,9,10
 377 1220 377 1220 377 1107 c 0,6,7
458 -96 m 1,11,-1
 458 29 l 1,12,13
 308 46 308 46 203.5 149 c 128,-1,14
 99 252 99 252 48 410 c 1,15,-1
 272 529 l 1,16,17
 277 520 277 520 294.5 490.5 c 128,-1,18
 312 461 312 461 321 446.5 c 128,-1,19
 330 432 330 432 348.5 405.5 c 128,-1,20
 367 379 367 379 381.5 363.5 c 128,-1,21
 396 348 396 348 416.5 330.5 c 128,-1,22
 437 313 437 313 458 302 c 1,23,-1
 458 657 l 1,24,-1
 311 744 l 2,25,26
 203 809 203 809 144 888.5 c 128,-1,27
 85 968 85 968 85 1076 c 0,28,29
 85 1245 85 1245 189 1361 c 128,-1,30
 293 1477 293 1477 458 1501 c 1,31,-1
 458 1632 l 1,32,-1
 602 1632 l 1,33,-1
 602 1501 l 1,34,35
 725 1484 725 1484 812 1406 c 128,-1,36
 899 1328 899 1328 943 1194 c 1,37,-1
 709 1079 l 1,38,39
 707 1084 707 1084 697.5 1104 c 128,-1,40
 688 1124 688 1124 685.5 1130.5 c 128,-1,41
 683 1137 683 1137 674.5 1153.5 c 128,-1,42
 666 1170 666 1170 662 1177 c 128,-1,43
 658 1184 658 1184 650 1196.5 c 128,-1,44
 642 1209 642 1209 635.5 1216 c 128,-1,45
 629 1223 629 1223 620 1231 c 128,-1,46
 611 1239 611 1239 602 1245 c 1,47,-1
 602 899 l 1,48,-1
 719 831 l 2,49,50
 977 680 977 680 988 481 c 1,51,52
 988 301 988 301 880.5 180 c 128,-1,53
 773 59 773 59 602 32 c 1,54,-1
 602 -96 l 1,55,-1
 458 -96 l 1,11,-1
EndSplineSet
EndChar

StartChar: percent
Encoding: 37 37 11
Width: 2096
GlyphClass: 2
Flags: W
LayerCount: 2
UndoRedoHistory
Layer: 1
Undoes
EndUndoes
Redoes
EndRedoes
EndUndoRedoHistory
Fore
SplineSet
703 0 m 1,0,-1
 1096 1536 l 1,1,-1
 1372 1536 l 1,2,-1
 979 0 l 1,3,-1
 703 0 l 1,0,-1
1657 -1 m 0,4,5
 1467 -1 1467 -1 1366 109.5 c 128,-1,6
 1265 220 1265 220 1265 403 c 0,7,8
 1265 583 1265 583 1366 693 c 128,-1,9
 1467 803 1467 803 1657 803 c 0,10,11
 1843 803 1843 803 1946 692.5 c 128,-1,12
 2049 582 2049 582 2049 403 c 0,13,14
 2049 221 2049 221 1946.5 110 c 128,-1,15
 1844 -1 1844 -1 1657 -1 c 0,4,5
1655 193 m 1,16,17
 1724 193 1724 193 1762 255.5 c 128,-1,18
 1800 318 1800 318 1800 405 c 128,-1,19
 1800 492 1800 492 1762 556 c 128,-1,20
 1724 620 1724 620 1656 620 c 128,-1,21
 1588 620 1588 620 1550 557 c 128,-1,22
 1512 494 1512 494 1512 407 c 0,23,24
 1512 322 1512 322 1550 258.5 c 128,-1,25
 1588 195 1588 195 1655 193 c 1,16,17
439 732 m 0,26,27
 249 732 249 732 148 842.5 c 128,-1,28
 47 953 47 953 47 1136 c 0,29,30
 47 1316 47 1316 148 1426 c 128,-1,31
 249 1536 249 1536 439 1536 c 0,32,33
 625 1536 625 1536 728 1425.5 c 128,-1,34
 831 1315 831 1315 831 1136 c 0,35,36
 831 954 831 954 728.5 843 c 128,-1,37
 626 732 626 732 439 732 c 0,26,27
437 926 m 1,38,39
 506 926 506 926 544 988.5 c 128,-1,40
 582 1051 582 1051 582 1138 c 128,-1,41
 582 1225 582 1225 544 1289 c 128,-1,42
 506 1353 506 1353 438 1353 c 128,-1,43
 370 1353 370 1353 332 1290 c 128,-1,44
 294 1227 294 1227 294 1140 c 0,45,46
 294 1055 294 1055 332 991.5 c 128,-1,47
 370 928 370 928 437 926 c 1,38,39
EndSplineSet
EndChar

StartChar: ampersand
Encoding: 38 38 12
Width: 1275
GlyphClass: 2
Flags: W
LayerCount: 2
UndoRedoHistory
Layer: 1
Undoes
EndUndoes
Redoes
EndRedoes
EndUndoRedoHistory
Fore
SplineSet
555 971 m 1,0,1
 555 972 555 972 568 989 c 128,-1,2
 581 1006 581 1006 600 1033.5 c 128,-1,3
 619 1061 619 1061 638 1092.5 c 128,-1,4
 657 1124 657 1124 670 1161 c 128,-1,5
 683 1198 683 1198 683 1227 c 0,6,7
 683 1282 683 1282 647 1314 c 128,-1,8
 611 1346 611 1346 565 1346 c 0,9,10
 524 1346 524 1346 489 1312 c 128,-1,11
 454 1278 454 1278 454 1235 c 0,12,13
 454 1223 454 1223 455 1212 c 128,-1,14
 456 1201 456 1201 459 1188 c 128,-1,15
 462 1175 462 1175 464 1166 c 128,-1,16
 466 1157 466 1157 472.5 1140.5 c 128,-1,17
 479 1124 479 1124 483 1115.5 c 128,-1,18
 487 1107 487 1107 497.5 1085.5 c 128,-1,19
 508 1064 508 1064 513 1053.5 c 128,-1,20
 518 1043 518 1043 532.5 1014.5 c 128,-1,21
 547 986 547 986 555 971 c 1,0,1
482 594 m 2,22,23
 443 646 l 1,24,25
 382 606 382 606 348 541 c 128,-1,26
 314 476 314 476 314 411 c 0,27,28
 314 336 314 336 360.5 286 c 128,-1,29
 407 236 407 236 495 236 c 0,30,31
 568 236 568 236 638 272 c 0,32,33
 672 289 672 289 699 309 c 1,34,35
 629 399 629 399 560 490.5 c 128,-1,36
 491 582 491 582 482 594 c 2,22,23
39 375 m 0,37,38
 39 620 39 620 332 815 c 1,39,40
 295 868 295 868 262 932 c 1,41,42
 193 1074 193 1074 193 1196 c 0,43,44
 193 1355 193 1355 300.5 1450.5 c 128,-1,45
 408 1546 408 1546 569 1546 c 0,46,47
 725 1546 725 1546 826.5 1458 c 128,-1,48
 928 1370 928 1370 928 1214 c 0,49,50
 928 1154 928 1154 904 1094 c 128,-1,51
 880 1034 880 1034 839.5 983.5 c 128,-1,52
 799 933 799 933 755.5 893 c 128,-1,53
 712 853 712 853 663 819 c 1,54,-1
 850 531 l 1,55,56
 874 586 874 586 888 625 c 0,57,58
 929 733 929 733 948 825 c 1,59,-1
 1175 754 l 1,60,61
 1145 619 1145 619 1071 473 c 0,62,63
 1040 413 1040 413 1003 353 c 1,64,65
 1096 260 1096 260 1227 244 c 1,66,-1
 1227 -14 l 1,67,68
 1162 -14 1162 -14 1112 -6.5 c 128,-1,69
 1062 1 1062 1 1030 10 c 128,-1,70
 998 19 998 19 964.5 42 c 128,-1,71
 931 65 931 65 912.5 81.5 c 128,-1,72
 894 98 894 98 858 135 c 0,73,74
 846 147 846 147 840 153 c 1,75,76
 638 -28 638 -28 409 -28 c 0,77,78
 254 -28 254 -28 146.5 86.5 c 128,-1,79
 39 201 39 201 39 375 c 0,37,38
EndSplineSet
EndChar

StartChar: quotesingle
Encoding: 39 39 13
Width: 451
GlyphClass: 2
Flags: W
LayerCount: 2
UndoRedoHistory
Layer: 1
Undoes
EndUndoes
Redoes
EndRedoes
EndUndoRedoHistory
Fore
SplineSet
82 1536 m 1,0,-1
 370 1536 l 1,1,-1
 322 960 l 1,2,-1
 130 948 l 1,3,-1
 82 1536 l 1,0,-1
EndSplineSet
EndChar

StartChar: parenleft
Encoding: 40 40 14
Width: 682
GlyphClass: 2
Flags: W
LayerCount: 2
UndoRedoHistory
Layer: 1
Undoes
EndUndoes
Redoes
EndRedoes
EndUndoRedoHistory
Fore
SplineSet
627 113 m 1,0,1
 627 -76 l 1,2,3
 489 -64 489 -64 379 9.5 c 128,-1,4
 269 83 269 83 201 198.5 c 128,-1,5
 133 314 133 314 97.5 453.5 c 128,-1,6
 62 593 62 593 62 745 c 0,7,8
 62 899 62 899 98.5 1042 c 128,-1,9
 135 1185 135 1185 203.5 1300.5 c 128,-1,10
 272 1416 272 1416 382 1487.5 c 128,-1,11
 492 1559 492 1559 627 1563 c 1,12,-1
 627 1380 l 1,13,14
 539 1363 539 1363 474.5 1266.5 c 128,-1,15
 410 1170 410 1170 380 1034.5 c 128,-1,16
 350 899 350 899 350 745 c 0,17,18
 350 627 350 627 368 518 c 128,-1,19
 386 409 386 409 419.5 320 c 128,-1,20
 453 231 453 231 506.5 175 c 128,-1,21
 560 119 560 119 627 113 c 1,0,1
EndSplineSet
EndChar

StartChar: parenright
Encoding: 41 41 15
Width: 683
GlyphClass: 2
Flags: W
LayerCount: 2
UndoRedoHistory
Layer: 1
Undoes
EndUndoes
Redoes
EndRedoes
EndUndoRedoHistory
Fore
SplineSet
56 -76 m 1,0,1
 56 113 l 1,2,3
 123 119 123 119 176.5 175 c 128,-1,4
 230 231 230 231 263.5 320 c 128,-1,5
 297 409 297 409 315 518 c 128,-1,6
 333 627 333 627 333 745 c 0,7,8
 333 899 333 899 303 1034.5 c 128,-1,9
 273 1170 273 1170 208.5 1266.5 c 128,-1,10
 144 1363 144 1363 56 1380 c 1,11,-1
 56 1563 l 1,12,13
 165 1560 165 1560 257.5 1512.5 c 128,-1,14
 350 1465 350 1465 416 1386.5 c 128,-1,15
 482 1308 482 1308 529 1204.5 c 128,-1,16
 576 1101 576 1101 598.5 984.5 c 128,-1,17
 621 868 621 868 621 745 c 0,18,19
 621 593 621 593 585.5 453.5 c 128,-1,20
 550 314 550 314 482 198.5 c 128,-1,21
 414 83 414 83 304 9.5 c 128,-1,22
 194 -64 194 -64 56 -76 c 1,0,1
EndSplineSet
EndChar

StartChar: asterisk
Encoding: 42 42 16
Width: 1051
GlyphClass: 2
Flags: W
LayerCount: 2
UndoRedoHistory
Layer: 1
Undoes
EndUndoes
Redoes
EndRedoes
EndUndoRedoHistory
Fore
SplineSet
395 1392 m 1,0,-1
 657 1392 l 1,1,-1
 606 1030 l 1,2,-1
 922 1182 l 1,3,-1
 1002 909 l 1,4,-1
 652 855 l 1,5,-1
 914 595 l 1,6,-1
 687 428 l 1,7,-1
 526 748 l 1,8,-1
 365 428 l 1,9,-1
 138 595 l 1,10,-1
 400 855 l 1,11,-1
 50 909 l 1,12,-1
 130 1182 l 1,13,-1
 446 1030 l 1,14,-1
 395 1392 l 1,0,-1
EndSplineSet
EndChar

StartChar: plus
Encoding: 43 43 17
Width: 855
GlyphClass: 2
Flags: W
LayerCount: 2
UndoRedoHistory
Layer: 1
Undoes
EndUndoes
Redoes
EndRedoes
EndUndoRedoHistory
Fore
SplineSet
786 260 m 1,0,-1
 546 260 l 1,1,-1
 546 20 l 1,2,-1
 308 20 l 1,3,-1
 308 260 l 1,4,-1
 68 260 l 1,5,-1
 68 498 l 1,6,-1
 308 498 l 1,7,-1
 308 738 l 1,8,-1
 546 738 l 1,9,-1
 546 498 l 1,10,-1
 786 498 l 1,11,-1
 786 260 l 1,0,-1
EndSplineSet
EndChar

StartChar: comma
Encoding: 44 44 18
Width: 488
GlyphClass: 4
Flags: W
AnchorPoint: "Anchor-1" 256 388 mark 0
LayerCount: 2
UndoRedoHistory
Layer: 1
Undoes
EndUndoes
Redoes
EndRedoes
EndUndoRedoHistory
Fore
SplineSet
99 288 m 1,0,-1
 387 288 l 1,1,-1
 387 0 l 2,2,3
 387 -182 387 -182 267 -252 c 0,4,5
 214 -284 214 -284 147 -288 c 1,6,-1
 147 -96 l 1,7,8
 207 -96 207 -96 231 -48 c 0,9,10
 242 -27 242 -27 243 0 c 1,11,-1
 99 0 l 1,12,-1
 99 288 l 1,0,-1
EndSplineSet
EndChar

StartChar: hyphen
Encoding: 45 45 19
Width: 804
GlyphClass: 2
Flags: W
LayerCount: 2
UndoRedoHistory
Layer: 1
Undoes
EndUndoes
Redoes
EndRedoes
EndUndoRedoHistory
Fore
SplineSet
114 480 m 1,0,-1
 114 718 l 1,1,-1
 690 718 l 1,2,-1
 690 480 l 1,3,-1
 114 480 l 1,0,-1
EndSplineSet
EndChar

StartChar: period
Encoding: 46 46 20
Width: 489
GlyphClass: 2
Flags: W
LayerCount: 2
UndoRedoHistory
Layer: 1
Undoes
EndUndoes
Redoes
EndRedoes
EndUndoRedoHistory
Fore
SplineSet
102 288 m 1,0,-1
 390 288 l 1,1,-1
 390 12 l 1,2,-1
 102 -12 l 1,3,-1
 102 288 l 1,0,-1
EndSplineSet
EndChar

StartChar: slash
Encoding: 47 47 21
Width: 628
GlyphClass: 2
Flags: W
LayerCount: 2
UndoRedoHistory
Layer: 1
Undoes
EndUndoes
Redoes
EndRedoes
EndUndoRedoHistory
Fore
SplineSet
64 0 m 1,0,-1
 265 1536 l 1,1,-1
 565 1536 l 1,2,-1
 364 0 l 1,3,-1
 64 0 l 1,0,-1
EndSplineSet
EndChar

StartChar: zero
Encoding: 48 48 22
Width: 1138
GlyphClass: 2
Flags: W
LayerCount: 2
UndoRedoHistory
Layer: 1
Undoes
EndUndoes
Redoes
EndRedoes
EndUndoRedoHistory
Fore
SplineSet
568 212 m 128,-1,1
 613 212 613 212 644.5 235 c 128,-1,2
 676 258 676 258 702.5 318 c 128,-1,3
 729 378 729 378 741.5 494.5 c 128,-1,4
 754 611 754 611 754 786 c 0,5,6
 754 860 754 860 753 912 c 128,-1,7
 752 964 752 964 747.5 1024.5 c 128,-1,8
 743 1085 743 1085 735.5 1125.5 c 128,-1,9
 728 1166 728 1166 714 1206.5 c 128,-1,10
 700 1247 700 1247 680.5 1271 c 128,-1,11
 661 1295 661 1295 632.5 1309.5 c 128,-1,12
 604 1324 604 1324 568 1324 c 0,13,14
 535 1324 535 1324 509 1314 c 128,-1,15
 483 1304 483 1304 464.5 1281.5 c 128,-1,16
 446 1259 446 1259 432.5 1234.5 c 128,-1,17
 419 1210 419 1210 410.5 1167.5 c 128,-1,18
 402 1125 402 1125 397 1090 c 128,-1,19
 392 1055 392 1055 389.5 997 c 128,-1,20
 387 939 387 939 386.5 897 c 128,-1,21
 386 855 386 855 386 786 c 0,22,23
 386 610 386 610 398 494.5 c 128,-1,24
 410 379 410 379 435.5 318.5 c 128,-1,25
 461 258 461 258 492 235 c 128,-1,0
 523 212 523 212 568 212 c 128,-1,1
568 -28 m 0,26,27
 97 -28 97 -28 97 786 c 0,28,29
 97 863 97 863 102 934 c 128,-1,30
 107 1005 107 1005 121 1085 c 128,-1,31
 135 1165 135 1165 157 1232 c 128,-1,32
 179 1299 179 1299 215.5 1362 c 128,-1,33
 252 1425 252 1425 300 1468.5 c 128,-1,34
 348 1512 348 1512 416.5 1538 c 128,-1,35
 485 1564 485 1564 568 1564 c 128,-1,36
 651 1564 651 1564 719.5 1538 c 128,-1,37
 788 1512 788 1512 836 1468.5 c 128,-1,38
 884 1425 884 1425 921 1362 c 128,-1,39
 958 1299 958 1299 980.5 1232 c 128,-1,40
 1003 1165 1003 1165 1017.5 1085 c 128,-1,41
 1032 1005 1032 1005 1037 934 c 128,-1,42
 1042 863 1042 863 1042 786 c 0,43,44
 1041 701 1041 701 1035.5 626 c 128,-1,45
 1030 551 1030 551 1016 466 c 128,-1,46
 1002 381 1002 381 980.5 312 c 128,-1,47
 959 243 959 243 922 178 c 128,-1,48
 885 113 885 113 837 69 c 128,-1,49
 789 25 789 25 720.5 -1.5 c 128,-1,50
 652 -28 652 -28 568 -28 c 0,26,27
EndSplineSet
EndChar

StartChar: one
Encoding: 49 49 23
Width: 929
GlyphClass: 2
Flags: W
LayerCount: 2
UndoRedoHistory
Layer: 1
Undoes
EndUndoes
Redoes
EndRedoes
EndUndoRedoHistory
Fore
SplineSet
157 0 m 1,0,-1
 157 251 l 1,1,-1
 354 251 l 1,2,-1
 354 1162 l 1,3,-1
 144 1116 l 1,4,-1
 144 1331 l 1,5,-1
 493 1536 l 1,6,-1
 642 1536 l 1,7,-1
 642 251 l 1,8,-1
 841 251 l 1,9,-1
 829 0 l 1,10,-1
 157 0 l 1,0,-1
EndSplineSet
EndChar

StartChar: two
Encoding: 50 50 24
Width: 1068
GlyphClass: 2
Flags: W
LayerCount: 2
UndoRedoHistory
Layer: 1
Undoes
EndUndoes
Redoes
EndRedoes
EndUndoRedoHistory
Fore
SplineSet
331 1070 m 1,0,1
 85 1148 l 1,2,3
 101 1230 101 1230 139 1303.5 c 128,-1,4
 177 1377 177 1377 234.5 1436 c 128,-1,5
 292 1495 292 1495 374 1529.5 c 128,-1,6
 456 1564 456 1564 551 1564 c 0,7,8
 746 1564 746 1564 869.5 1447 c 128,-1,9
 993 1330 993 1330 993 1146 c 0,10,11
 993 1052 993 1052 959.5 950 c 128,-1,12
 926 848 926 848 875 760.5 c 128,-1,13
 824 673 824 673 748 576.5 c 128,-1,14
 672 480 672 480 604 407 c 128,-1,15
 536 334 536 334 451 252 c 1,16,-1
 981 252 l 1,17,-1
 957 0 l 1,18,-1
 118 0 l 1,19,-1
 118 223 l 1,20,21
 165 284 165 284 239.5 371.5 c 128,-1,22
 314 459 314 459 372 525.5 c 128,-1,23
 430 592 430 592 495 678 c 128,-1,24
 560 764 560 764 603 836 c 128,-1,25
 646 908 646 908 674.5 991.5 c 128,-1,26
 703 1075 703 1075 703 1150 c 0,27,28
 703 1179 703 1179 693.5 1208 c 128,-1,29
 684 1237 684 1237 666 1263.5 c 128,-1,30
 648 1290 648 1290 616.5 1307 c 128,-1,31
 585 1324 585 1324 545 1324 c 0,32,33
 467 1324 467 1324 407.5 1249 c 128,-1,34
 348 1174 348 1174 331 1070 c 1,0,1
EndSplineSet
EndChar

StartChar: three
Encoding: 51 51 25
Width: 1068
GlyphClass: 2
Flags: W
LayerCount: 2
UndoRedoHistory
Layer: 1
Undoes
EndUndoes
Redoes
EndRedoes
EndUndoRedoHistory
Fore
SplineSet
289 1178 m 1,0,1
 83 1295 l 1,2,3
 151 1437 151 1437 261 1500.5 c 128,-1,4
 371 1564 371 1564 524 1564 c 0,5,6
 604 1564 604 1564 678.5 1538 c 128,-1,7
 753 1512 753 1512 813.5 1464 c 128,-1,8
 874 1416 874 1416 910 1340 c 128,-1,9
 946 1264 946 1264 946 1171 c 0,10,11
 946 1039 946 1039 880.5 945 c 128,-1,12
 815 851 815 851 689 808 c 1,13,14
 818 767 818 767 892 664.5 c 128,-1,15
 966 562 966 562 966 411 c 0,16,17
 966 328 966 328 941.5 256.5 c 128,-1,18
 917 185 917 185 874 133.5 c 128,-1,19
 831 82 831 82 773.5 45 c 128,-1,20
 716 8 716 8 649 -10 c 128,-1,21
 582 -28 582 -28 511 -28 c 0,22,23
 342 -28 342 -28 215 54.5 c 128,-1,24
 88 137 88 137 48 300 c 1,25,-1
 266 395 l 1,26,27
 330 213 330 213 498 213 c 0,28,29
 574 213 574 213 625.5 270 c 128,-1,30
 677 327 677 327 677 441 c 0,31,32
 677 503 677 503 659.5 548 c 128,-1,33
 642 593 642 593 614.5 619 c 128,-1,34
 587 645 587 645 543 660.5 c 128,-1,35
 499 676 499 676 455 681 c 128,-1,36
 411 686 411 686 352 686 c 1,37,-1
 352 886 l 1,38,39
 437 886 437 886 503.5 912.5 c 128,-1,40
 570 939 570 939 612 999 c 128,-1,41
 654 1059 654 1059 655 1146 c 1,42,-1
 655 1148 l 2,43,44
 655 1230 655 1230 604.5 1277.5 c 128,-1,45
 554 1325 554 1325 484 1325 c 0,46,47
 423 1325 423 1325 369 1287.5 c 128,-1,48
 315 1250 315 1250 289 1178 c 1,0,1
EndSplineSet
EndChar

StartChar: four
Encoding: 52 52 26
Width: 1068
GlyphClass: 2
Flags: W
LayerCount: 2
UndoRedoHistory
Layer: 1
Undoes
EndUndoes
Redoes
EndRedoes
EndUndoRedoHistory
Fore
SplineSet
288 614 m 1,0,-1
 564 614 l 1,1,-1
 564 1153 l 1,2,-1
 288 614 l 1,0,-1
564 -12 m 1,3,-1
 564 384 l 1,4,-1
 50 384 l 1,5,-1
 50 614 l 1,6,-1
 551 1536 l 1,7,-1
 852 1536 l 1,8,-1
 852 614 l 1,9,-1
 1044 614 l 1,10,-1
 1020 384 l 1,11,-1
 852 384 l 1,12,-1
 852 12 l 1,13,-1
 564 -12 l 1,3,-1
EndSplineSet
EndChar

StartChar: five
Encoding: 53 53 27
Width: 1068
GlyphClass: 2
Flags: W
LayerCount: 2
UndoRedoHistory
Layer: 1
Undoes
EndUndoes
Redoes
EndRedoes
EndUndoRedoHistory
Fore
SplineSet
98 335 m 1,0,1
 329 421 l 1,2,3
 344 340 344 340 404 276 c 128,-1,4
 464 212 464 212 550 212 c 0,5,6
 638 212 638 212 690 292 c 128,-1,7
 742 372 742 372 742 479 c 0,8,9
 742 548 742 548 720 606 c 128,-1,10
 698 664 698 664 647.5 703 c 128,-1,11
 597 742 597 742 525 742 c 0,12,13
 420 742 420 742 350 642 c 1,14,-1
 145 709 l 1,15,-1
 232 1536 l 1,16,-1
 946 1536 l 1,17,-1
 922 1296 l 1,18,-1
 456 1296 l 1,19,-1
 409 938 l 1,20,21
 515 979 515 979 618 979 c 0,22,23
 731 979 731 979 823.5 913 c 128,-1,24
 916 847 916 847 967 737 c 128,-1,25
 1018 627 1018 627 1018 498 c 0,26,27
 1018 270 1018 270 887.5 121 c 128,-1,28
 757 -28 757 -28 557 -28 c 0,29,30
 395 -28 395 -28 265 67.5 c 128,-1,31
 135 163 135 163 98 335 c 1,0,1
EndSplineSet
EndChar

StartChar: six
Encoding: 54 54 28
Width: 1068
GlyphClass: 2
Flags: W
LayerCount: 2
UndoRedoHistory
Layer: 1
Undoes
EndUndoes
Redoes
EndRedoes
EndUndoRedoHistory
Fore
SplineSet
403 604 m 2,0,1
 403 597 403 597 403 581 c 0,2,3
 402 555 402 555 403 526 c 128,-1,4
 404 497 404 497 404.5 466 c 128,-1,5
 405 435 405 435 409.5 404.5 c 128,-1,6
 414 374 414 374 420 345.5 c 128,-1,7
 426 317 426 317 437 292.5 c 128,-1,8
 448 268 448 268 462 250.5 c 128,-1,9
 476 233 476 233 497.5 222.5 c 128,-1,10
 519 212 519 212 545 212 c 0,11,12
 589 212 589 212 621.5 236.5 c 128,-1,13
 654 261 654 261 670 301.5 c 128,-1,14
 686 342 686 342 693 383 c 128,-1,15
 700 424 700 424 700 468 c 0,16,17
 700 560 700 560 661.5 625.5 c 128,-1,18
 623 691 623 691 541 691 c 0,19,20
 487 691 487 691 405 646 c 1,21,-1
 403 604 l 2,0,1
110 773 m 0,22,23
 110 857 110 857 122 945 c 128,-1,24
 134 1033 134 1033 158 1123 c 128,-1,25
 182 1213 182 1213 222.5 1291.5 c 128,-1,26
 263 1370 263 1370 315 1431.5 c 128,-1,27
 367 1493 367 1493 440 1528.5 c 128,-1,28
 513 1564 513 1564 598 1564 c 0,29,30
 730 1564 730 1564 824.5 1465.5 c 128,-1,31
 919 1367 919 1367 942 1192 c 1,32,-1
 718 1140 l 1,33,34
 717 1144 717 1144 715 1153 c 0,35,36
 706 1195 706 1195 700.5 1213.5 c 128,-1,37
 695 1232 695 1232 680 1264 c 128,-1,38
 665 1296 665 1296 640 1310 c 128,-1,39
 615 1324 615 1324 579 1324 c 0,40,41
 403 1324 403 1324 403 855 c 1,42,43
 451 891 451 891 514 912 c 128,-1,44
 577 933 577 933 639 933 c 0,45,46
 792 933 792 933 887.5 808 c 128,-1,47
 983 683 983 683 983 511 c 0,48,49
 983 372 983 372 930 249.5 c 128,-1,50
 877 127 877 127 777.5 49.5 c 128,-1,51
 678 -28 678 -28 555 -28 c 0,52,53
 110 -28 110 -28 110 773 c 0,22,23
EndSplineSet
EndChar

StartChar: seven
Encoding: 55 55 29
Width: 1068
GlyphClass: 2
Flags: W
LayerCount: 2
UndoRedoHistory
Layer: 1
Undoes
EndUndoes
Redoes
EndRedoes
EndUndoRedoHistory
Fore
SplineSet
595 0 m 1,0,1
 265 0 l 1,2,3
 313 553 313 553 619 1288 c 1,4,-1
 118 1288 l 1,5,-1
 142 1536 l 1,6,-1
 970 1536 l 1,7,-1
 970 1323 l 1,8,9
 793 973 793 973 694 628 c 128,-1,10
 595 283 595 283 595 0 c 1,0,1
EndSplineSet
EndChar

StartChar: eight
Encoding: 56 56 30
Width: 1068
GlyphClass: 2
Flags: W
LayerCount: 2
UndoRedoHistory
Layer: 1
Undoes
EndUndoes
Redoes
EndRedoes
EndUndoRedoHistory
Fore
SplineSet
388 1184 m 0,0,1
 388 1044 388 1044 545 945 c 1,2,3
 694 1043 694 1043 694 1174 c 0,4,5
 694 1241 694 1241 653.5 1282.5 c 128,-1,6
 613 1324 613 1324 542 1324 c 0,7,8
 477 1324 477 1324 432.5 1284 c 128,-1,9
 388 1244 388 1244 388 1184 c 0,0,1
362 409 m 0,10,11
 362 212 362 212 531 212 c 0,12,13
 610 212 610 212 658.5 253.5 c 128,-1,14
 707 295 707 295 707 385 c 0,15,16
 707 571 707 571 493 675 c 1,17,18
 362 574 362 574 362 409 c 0,10,11
74 376 m 0,19,20
 74 514 74 514 143 617 c 128,-1,21
 212 720 212 720 330 787 c 1,22,23
 119 913 119 913 119 1135 c 0,24,25
 119 1328 119 1328 239.5 1446 c 128,-1,26
 360 1564 360 1564 546 1564 c 0,27,28
 711 1564 711 1564 825 1463.5 c 128,-1,29
 939 1363 939 1363 939 1192 c 0,30,31
 939 1086 939 1086 877.5 993 c 128,-1,32
 816 900 816 900 720 842 c 1,33,34
 781 804 781 804 826 767 c 128,-1,35
 871 730 871 730 911.5 681.5 c 128,-1,36
 952 633 952 633 973 573.5 c 128,-1,37
 994 514 994 514 994 445 c 0,38,39
 994 333 994 333 956.5 242.5 c 128,-1,40
 919 152 919 152 854 93.5 c 128,-1,41
 789 35 789 35 703.5 3.5 c 128,-1,42
 618 -28 618 -28 520 -28 c 0,43,44
 435 -28 435 -28 357 -2.5 c 128,-1,45
 279 23 279 23 215 71.5 c 128,-1,46
 151 120 151 120 112.5 199 c 128,-1,47
 74 278 74 278 74 376 c 0,19,20
EndSplineSet
EndChar

StartChar: nine
Encoding: 57 57 31
Width: 1068
GlyphClass: 2
Flags: W
LayerCount: 2
UndoRedoHistory
Layer: 1
Undoes
EndUndoes
Redoes
EndRedoes
EndUndoRedoHistory
Fore
SplineSet
681 918 m 2,0,1
 681 926 681 926 681 942 c 0,2,3
 682 968 682 968 681 998.5 c 128,-1,4
 680 1029 680 1029 679.5 1061 c 128,-1,5
 679 1093 679 1093 674.5 1124.5 c 128,-1,6
 670 1156 670 1156 664 1185.5 c 128,-1,7
 658 1215 658 1215 647 1240 c 128,-1,8
 636 1265 636 1265 622 1284 c 128,-1,9
 608 1303 608 1303 587 1313.5 c 128,-1,10
 566 1324 566 1324 540 1324 c 0,11,12
 496 1324 496 1324 464.5 1298.5 c 128,-1,13
 433 1273 433 1273 417.5 1231 c 128,-1,14
 402 1189 402 1189 395 1146.5 c 128,-1,15
 388 1104 388 1104 388 1059 c 0,16,17
 388 1015 388 1015 396 976 c 128,-1,18
 404 937 404 937 421 902.5 c 128,-1,19
 438 868 438 868 469.5 847.5 c 128,-1,20
 501 827 501 827 543 827 c 0,21,22
 606 827 606 827 678 872 c 1,23,-1
 681 918 l 2,0,1
969 745 m 0,24,25
 969 643 969 643 952.5 539 c 128,-1,26
 936 435 936 435 898.5 332 c 128,-1,27
 861 229 861 229 806 150 c 128,-1,28
 751 71 751 71 667 21.5 c 128,-1,29
 583 -28 583 -28 482 -28 c 0,30,31
 350 -28 350 -28 256 70.5 c 128,-1,32
 162 169 162 169 138 345 c 1,33,-1
 362 397 l 1,34,35
 363 393 363 393 365 384 c 0,36,37
 376 329 376 329 384.5 302 c 128,-1,38
 393 275 393 275 423.5 243.5 c 128,-1,39
 454 212 454 212 501 212 c 0,40,41
 525 212 525 212 546 220 c 128,-1,42
 567 228 567 228 582.5 244.5 c 128,-1,43
 598 261 598 261 611 279.5 c 128,-1,44
 624 298 624 298 633 326.5 c 128,-1,45
 642 355 642 355 649 378.5 c 128,-1,46
 656 402 656 402 660.5 437.5 c 128,-1,47
 665 473 665 473 668 496 c 128,-1,48
 671 519 671 519 673 556.5 c 128,-1,49
 675 594 675 594 675.5 612 c 128,-1,50
 676 630 676 630 677 663 c 1,51,52
 629 627 629 627 566 606 c 128,-1,53
 503 585 503 585 441 585 c 0,54,55
 339 585 339 585 259.5 654 c 128,-1,56
 180 723 180 723 140 827 c 128,-1,57
 100 931 100 931 100 1046 c 0,58,59
 100 1187 100 1187 153 1305 c 128,-1,60
 206 1423 206 1423 304.5 1493.5 c 128,-1,61
 403 1564 403 1564 526 1564 c 0,62,63
 969 1564 969 1564 969 745 c 0,24,25
EndSplineSet
EndChar

StartChar: colon
Encoding: 58 58 32
Width: 516
GlyphClass: 2
Flags: W
LayerCount: 2
UndoRedoHistory
Layer: 1
Undoes
EndUndoes
Redoes
EndRedoes
EndUndoRedoHistory
Fore
SplineSet
114 864 m 1,0,-1
 402 864 l 1,1,-1
 402 576 l 1,2,-1
 114 576 l 1,3,-1
 114 864 l 1,0,-1
114 288 m 1,4,-1
 402 288 l 1,5,-1
 402 0 l 1,6,-1
 114 -12 l 1,7,-1
 114 288 l 1,4,-1
EndSplineSet
EndChar

StartChar: semicolon
Encoding: 59 59 33
Width: 517
GlyphClass: 2
Flags: W
LayerCount: 2
UndoRedoHistory
Layer: 1
Undoes
EndUndoes
Redoes
EndRedoes
EndUndoRedoHistory
Fore
SplineSet
115 864 m 1,0,-1
 403 864 l 1,1,-1
 403 576 l 1,2,-1
 115 576 l 1,3,-1
 115 864 l 1,0,-1
115 288 m 1,4,-1
 403 288 l 1,5,-1
 403 0 l 2,6,7
 403 -182 403 -182 283 -252 c 0,8,9
 230 -284 230 -284 163 -288 c 1,10,-1
 163 -96 l 1,11,12
 223 -96 223 -96 247 -48 c 0,13,14
 258 -27 258 -27 259 0 c 1,15,-1
 115 -12 l 1,16,-1
 115 288 l 1,4,-1
EndSplineSet
EndChar

StartChar: less
Encoding: 60 60 34
Width: 976
GlyphClass: 2
Flags: W
LayerCount: 2
UndoRedoHistory
Layer: 1
Undoes
EndUndoes
Redoes
EndRedoes
EndUndoRedoHistory
Fore
SplineSet
864 89 m 1,0,-1
 56 439 l 1,1,-1
 56 704 l 1,2,-1
 866 1064 l 1,3,-1
 852 803 l 1,4,-1
 401 607 l 1,5,-1
 878 432 l 1,6,-1
 864 89 l 1,0,-1
EndSplineSet
EndChar

StartChar: equal
Encoding: 61 61 35
Width: 804
GlyphClass: 2
Flags: W
LayerCount: 2
UndoRedoHistory
Layer: 1
Undoes
EndUndoes
Redoes
EndRedoes
EndUndoRedoHistory
Fore
SplineSet
114 672 m 1,0,-1
 114 910 l 1,1,-1
 690 910 l 1,2,-1
 690 672 l 1,3,-1
 114 672 l 1,0,-1
114 288 m 1,4,-1
 114 526 l 1,5,-1
 690 526 l 1,6,-1
 690 288 l 1,7,-1
 114 288 l 1,4,-1
EndSplineSet
EndChar

StartChar: greater
Encoding: 62 62 36
Width: 976
GlyphClass: 2
Flags: W
LayerCount: 2
UndoRedoHistory
Layer: 1
Undoes
EndUndoes
Redoes
EndRedoes
EndUndoRedoHistory
Fore
SplineSet
920 439 m 1,0,-1
 112 89 l 1,1,-1
 98 432 l 1,2,-1
 575 607 l 1,3,-1
 124 803 l 1,4,-1
 110 1064 l 1,5,-1
 920 704 l 1,6,-1
 920 439 l 1,0,-1
EndSplineSet
EndChar

StartChar: question
Encoding: 63 63 37
Width: 885
GlyphClass: 2
Flags: W
LayerCount: 2
UndoRedoHistory
Layer: 1
Undoes
EndUndoes
Redoes
EndRedoes
EndUndoRedoHistory
Fore
SplineSet
170 288 m 1,0,-1
 458 288 l 1,1,-1
 458 0 l 1,2,-1
 170 -12 l 1,3,-1
 170 288 l 1,0,-1
435 396 m 2,4,5
 435 384 l 1,6,-1
 195 384 l 1,7,8
 185 489 185 489 195 566 c 128,-1,9
 205 643 205 643 228 689 c 128,-1,10
 251 735 251 735 283.5 769.5 c 128,-1,11
 316 804 316 804 351.5 824 c 128,-1,12
 387 844 387 844 422 868.5 c 128,-1,13
 457 893 457 893 484.5 919 c 128,-1,14
 512 945 512 945 529.5 992.5 c 128,-1,15
 547 1040 547 1040 547 1105 c 0,16,17
 547 1318 547 1318 431 1318 c 0,18,19
 383 1318 383 1318 356 1266 c 0,20,21
 336 1227 336 1227 323 1121 c 1,22,-1
 50 1133 l 1,23,24
 56 1317 56 1317 163 1431.5 c 128,-1,25
 270 1546 270 1546 438 1546 c 0,26,27
 537 1546 537 1546 615.5 1507 c 128,-1,28
 694 1468 694 1468 741 1402.5 c 128,-1,29
 788 1337 788 1337 812 1258.5 c 128,-1,30
 836 1180 836 1180 836 1095 c 0,31,32
 836 997 836 997 814 924.5 c 128,-1,33
 792 852 792 852 756.5 811 c 128,-1,34
 721 770 721 770 678.5 738.5 c 128,-1,35
 636 707 636 707 593 679.5 c 128,-1,36
 550 652 550 652 514.5 619 c 128,-1,37
 479 586 479 586 457 530 c 128,-1,38
 435 474 435 474 435 396 c 2,4,5
EndSplineSet
EndChar

StartChar: at
Encoding: 64 64 38
Width: 1578
GlyphClass: 2
Flags: W
LayerCount: 2
UndoRedoHistory
Layer: 1
Undoes
EndUndoes
Redoes
EndRedoes
EndUndoRedoHistory
Fore
SplineSet
924 625 m 1,0,1
 924 844 l 1,2,3
 858 911 858 911 806 911 c 0,4,5
 752 911 752 911 720 853 c 128,-1,6
 688 795 688 795 688 699 c 0,7,8
 688 609 688 609 721.5 560 c 128,-1,9
 755 511 755 511 803 511 c 0,10,11
 837 511 837 511 870 540.5 c 128,-1,12
 903 570 903 570 924 625 c 1,0,1
1526 775 m 0,13,14
 1526 575 1526 575 1440 461.5 c 128,-1,15
 1354 348 1354 348 1199 348 c 0,16,17
 1184 348 1184 348 1167.5 350 c 128,-1,18
 1151 352 1151 352 1124 361.5 c 128,-1,19
 1097 371 1097 371 1074.5 387.5 c 128,-1,20
 1052 404 1052 404 1029.5 435.5 c 128,-1,21
 1007 467 1007 467 994 510 c 1,22,23
 944 418 944 418 878 371 c 128,-1,24
 812 324 812 324 739 324 c 0,25,26
 621 324 621 324 537.5 422 c 128,-1,27
 454 520 454 520 454 699 c 0,28,29
 454 794 454 794 478 867.5 c 128,-1,30
 502 941 502 941 543 983.5 c 128,-1,31
 584 1026 584 1026 631.5 1047 c 128,-1,32
 679 1068 679 1068 731 1068 c 0,33,34
 802 1068 802 1068 863.5 1034 c 128,-1,35
 925 1000 925 1000 954 941 c 1,36,-1
 990 1050 l 1,37,-1
 1147 1050 l 1,38,-1
 1147 581 l 2,39,40
 1147 469 1147 469 1210 469 c 0,41,42
 1336 469 1336 469 1336 775 c 0,43,44
 1336 1009 1336 1009 1195 1133.5 c 128,-1,45
 1054 1258 1054 1258 818 1258 c 0,46,47
 714 1258 714 1258 625 1224.5 c 128,-1,48
 536 1191 536 1191 473.5 1134 c 128,-1,49
 411 1077 411 1077 366.5 1001.5 c 128,-1,50
 322 926 322 926 300.5 842 c 128,-1,51
 279 758 279 758 279 671 c 0,52,53
 279 568 279 568 308.5 477 c 128,-1,54
 338 386 338 386 396 312 c 128,-1,55
 454 238 454 238 550 194.5 c 128,-1,56
 646 151 646 151 769 151 c 0,57,58
 955 151 955 151 1205 274 c 1,59,-1
 1277 124 l 1,60,61
 994 -32 994 -32 753 -32 c 0,62,63
 614 -32 614 -32 497.5 6.5 c 128,-1,64
 381 45 381 45 300.5 111 c 128,-1,65
 220 177 220 177 164 266.5 c 128,-1,66
 108 356 108 356 81.5 456.5 c 128,-1,67
 55 557 55 557 55 666 c 0,68,69
 55 782 55 782 86.5 895.5 c 128,-1,70
 118 1009 118 1009 182.5 1109.5 c 128,-1,71
 247 1210 247 1210 336.5 1286.5 c 128,-1,72
 426 1363 426 1363 551 1407.5 c 128,-1,73
 676 1452 676 1452 819 1452 c 0,74,75
 926 1452 926 1452 1028 1425 c 128,-1,76
 1130 1398 1130 1398 1220.5 1342.5 c 128,-1,77
 1311 1287 1311 1287 1379 1208 c 128,-1,78
 1447 1129 1447 1129 1486.5 1017.5 c 128,-1,79
 1526 906 1526 906 1526 775 c 0,13,14
EndSplineSet
EndChar

StartChar: A
Encoding: 65 65 39
Width: 1131
GlyphClass: 2
Flags: W
AnchorPoint: "Anchor-2" 885 0 basechar 0
AnchorPoint: "Anchor-1" 560 0 basechar 0
AnchorPoint: "Anchor-0" 518 1536 basechar 0
LayerCount: 2
UndoRedoHistory
Layer: 1
Undoes
EndUndoes
Redoes
EndRedoes
EndUndoRedoHistory
Fore
SplineSet
413 575 m 1,0,-1
 670 575 l 1,1,-1
 529 1310 l 1,2,-1
 413 575 l 1,0,-1
724 329 m 1,3,-1
 359 329 l 1,4,-1
 292 0 l 1,5,-1
 25 0 l 1,6,-1
 349 1518 l 1,7,-1
 776 1536 l 1,8,-1
 1108 12 l 1,9,-1
 781 0 l 1,10,-1
 724 329 l 1,3,-1
EndSplineSet
EndChar

StartChar: B
Encoding: 66 66 40
Width: 1129
GlyphClass: 2
Flags: W
AnchorPoint: "Anchor-1" 545 0 basechar 0
AnchorPoint: "Anchor-0" 521 1536 basechar 0
LayerCount: 2
UndoRedoHistory
Layer: 1
Undoes
EndUndoes
Redoes
EndRedoes
EndUndoRedoHistory
Fore
SplineSet
434 911 m 1,0,-1
 506 911 l 2,1,2
 565 911 565 911 603 918 c 128,-1,3
 641 925 641 925 675 945 c 128,-1,4
 709 965 709 965 725 1006 c 128,-1,5
 741 1047 741 1047 741 1111 c 0,6,7
 741 1166 741 1166 721.5 1204 c 128,-1,8
 702 1242 702 1242 666 1261.5 c 128,-1,9
 630 1281 630 1281 588.5 1288.5 c 128,-1,10
 547 1296 547 1296 493 1296 c 2,11,-1
 434 1296 l 1,12,-1
 434 911 l 1,0,-1
444 240 m 1,13,-1
 499 240 l 2,14,15
 577 240 577 240 634.5 263 c 128,-1,16
 692 286 692 286 722 322.5 c 128,-1,17
 752 359 752 359 765.5 396.5 c 128,-1,18
 779 434 779 434 779 471 c 0,19,20
 779 528 779 528 764 569.5 c 128,-1,21
 749 611 749 611 726 634.5 c 128,-1,22
 703 658 703 658 665.5 671.5 c 128,-1,23
 628 685 628 685 593 689 c 128,-1,24
 558 693 558 693 510 693 c 2,25,-1
 444 693 l 1,26,-1
 444 240 l 1,13,-1
144 0 m 1,27,-1
 144 1536 l 1,28,-1
 488 1536 l 2,29,30
 604 1536 604 1536 695 1515.5 c 128,-1,31
 786 1495 786 1495 846.5 1459.5 c 128,-1,32
 907 1424 907 1424 946.5 1373.5 c 128,-1,33
 986 1323 986 1323 1003 1265.5 c 128,-1,34
 1020 1208 1020 1208 1020 1140 c 0,35,36
 1020 1029 1020 1029 975.5 942.5 c 128,-1,37
 931 856 931 856 853 818 c 1,38,39
 900 794 900 794 933.5 767 c 128,-1,40
 967 740 967 740 1000 696 c 128,-1,41
 1033 652 1033 652 1050 585 c 128,-1,42
 1067 518 1067 518 1067 431 c 0,43,44
 1067 0 1067 0 390 0 c 2,45,-1
 144 0 l 1,27,-1
EndSplineSet
EndChar

StartChar: C
Encoding: 67 67 41
Width: 1069
GlyphClass: 2
Flags: W
AnchorPoint: "Anchor-1" 602 0 basechar 0
AnchorPoint: "Anchor-0" 533 1536 basechar 0
LayerCount: 2
UndoRedoHistory
Layer: 1
Undoes
EndUndoes
Redoes
EndRedoes
EndUndoRedoHistory
Fore
SplineSet
742 547 m 1,0,1
 997 523 l 1,2,3
 997 413 997 413 970 315.5 c 128,-1,4
 943 218 943 218 890.5 140.5 c 128,-1,5
 838 63 838 63 753 17.5 c 128,-1,6
 668 -28 668 -28 561 -28 c 0,7,8
 467 -28 467 -28 391.5 6 c 128,-1,9
 316 40 316 40 264.5 101.5 c 128,-1,10
 213 163 213 163 176.5 240 c 128,-1,11
 140 317 140 317 119.5 413.5 c 128,-1,12
 99 510 99 510 90 603.5 c 128,-1,13
 81 697 81 697 81 800 c 0,14,15
 81 889 81 889 92.5 976.5 c 128,-1,16
 104 1064 104 1064 127 1151 c 128,-1,17
 150 1238 150 1238 189.5 1311.5 c 128,-1,18
 229 1385 229 1385 281.5 1442 c 128,-1,19
 334 1499 334 1499 407.5 1531.5 c 128,-1,20
 481 1564 481 1564 568 1564 c 0,21,22
 697 1564 697 1564 796.5 1481 c 128,-1,23
 896 1398 896 1398 945.5 1273.5 c 128,-1,24
 995 1149 995 1149 995 1010 c 1,25,-1
 705 995 l 1,26,27
 705 1015 705 1015 703.5 1042.5 c 128,-1,28
 702 1070 702 1070 693 1123.5 c 128,-1,29
 684 1177 684 1177 669.5 1218.5 c 128,-1,30
 655 1260 655 1260 624 1292 c 128,-1,31
 593 1324 593 1324 551 1324 c 0,32,33
 381 1324 381 1324 381 800 c 0,34,35
 381 703 381 703 385 626.5 c 128,-1,36
 389 550 389 550 401.5 469 c 128,-1,37
 414 388 414 388 435 334.5 c 128,-1,38
 456 281 456 281 493 246.5 c 128,-1,39
 530 212 530 212 580 212 c 0,40,41
 616 212 616 212 644 235 c 128,-1,42
 672 258 672 258 688 290.5 c 128,-1,43
 704 323 704 323 716 372.5 c 128,-1,44
 728 422 728 422 733 460 c 128,-1,45
 738 498 738 498 742 547 c 1,0,1
EndSplineSet
EndChar

StartChar: D
Encoding: 68 68 42
Width: 1134
GlyphClass: 2
Flags: W
AnchorPoint: "Anchor-1" 544 0 basechar 0
AnchorPoint: "Anchor-0" 521 1536 basechar 0
LayerCount: 2
UndoRedoHistory
Layer: 1
Undoes
EndUndoes
Redoes
EndRedoes
EndUndoRedoHistory
Fore
SplineSet
478 1296 m 2,0,1
 443 1296 l 1,2,-1
 443 240 l 1,3,-1
 486 240 l 2,4,5
 552 240 552 240 602 268.5 c 128,-1,6
 652 297 652 297 681.5 341.5 c 128,-1,7
 711 386 711 386 729.5 449.5 c 128,-1,8
 748 513 748 513 754.5 574 c 128,-1,9
 761 635 761 635 761 705 c 0,10,11
 761 716 761 716 761 740 c 1,12,13
 763 778 763 778 761 822 c 128,-1,14
 759 866 759 866 757.5 912.5 c 128,-1,15
 756 959 756 959 747.5 1005.5 c 128,-1,16
 739 1052 739 1052 727.5 1094.5 c 128,-1,17
 716 1137 716 1137 694 1174 c 128,-1,18
 672 1211 672 1211 643.5 1238 c 128,-1,19
 615 1265 615 1265 572.5 1280.5 c 128,-1,20
 530 1296 530 1296 478 1296 c 2,0,1
144 0 m 1,21,-1
 144 1536 l 1,22,-1
 458 1536 l 2,23,24
 761 1536 761 1536 911 1344 c 128,-1,25
 1061 1152 1061 1152 1061 762 c 0,26,27
 1061 641 1061 641 1043 533 c 128,-1,28
 1025 425 1025 425 983 326 c 128,-1,29
 941 227 941 227 879 155.5 c 128,-1,30
 817 84 817 84 722.5 42 c 128,-1,31
 628 0 628 0 511 0 c 2,32,-1
 144 0 l 1,21,-1
EndSplineSet
EndChar

StartChar: E
Encoding: 69 69 43
Width: 990
GlyphClass: 2
Flags: W
AnchorPoint: "Anchor-2" 590 0 basechar 0
AnchorPoint: "Anchor-1" 565 0 basechar 0
AnchorPoint: "Anchor-0" 518 1536 basechar 0
LayerCount: 2
UndoRedoHistory
Layer: 1
Undoes
EndUndoes
Redoes
EndRedoes
EndUndoRedoHistory
Fore
SplineSet
144 0 m 1,0,-1
 144 1536 l 1,1,-1
 924 1536 l 1,2,-1
 900 1296 l 1,3,-1
 444 1296 l 1,4,-1
 444 930 l 1,5,-1
 767 930 l 1,6,-1
 766 672 l 1,7,-1
 444 672 l 1,8,-1
 444 240 l 1,9,-1
 940 240 l 1,10,-1
 916 0 l 1,11,-1
 144 0 l 1,0,-1
EndSplineSet
EndChar

StartChar: F
Encoding: 70 70 44
Width: 943
GlyphClass: 2
Flags: W
AnchorPoint: "Anchor-1" 516 0 basechar 0
AnchorPoint: "Anchor-0" 508 1536 basechar 0
LayerCount: 2
UndoRedoHistory
Layer: 1
Undoes
EndUndoes
Redoes
EndRedoes
EndUndoRedoHistory
Fore
SplineSet
144 -12 m 1,0,-1
 144 1536 l 1,1,-1
 924 1536 l 1,2,-1
 900 1295 l 1,3,-1
 444 1295 l 1,4,-1
 444 893 l 1,5,-1
 766 893 l 1,6,-1
 766 638 l 1,7,-1
 444 638 l 1,8,-1
 444 12 l 1,9,-1
 144 -12 l 1,0,-1
EndSplineSet
EndChar

StartChar: G
Encoding: 71 71 45
Width: 1132
GlyphClass: 2
Flags: W
AnchorPoint: "Anchor-1" 634 0 basechar 0
AnchorPoint: "Anchor-0" 548 1536 basechar 0
LayerCount: 2
UndoRedoHistory
Layer: 1
Undoes
EndUndoes
Redoes
EndRedoes
EndUndoRedoHistory
Fore
SplineSet
1025 1034 m 1,0,1
 739 1015 l 1,2,3
 737 1028 737 1028 733 1061 c 128,-1,4
 729 1094 729 1094 726.5 1112.5 c 128,-1,5
 724 1131 724 1131 718 1163 c 128,-1,6
 712 1195 712 1195 705 1214 c 128,-1,7
 698 1233 698 1233 686 1256.5 c 128,-1,8
 674 1280 674 1280 659 1293 c 128,-1,9
 644 1306 644 1306 623 1315 c 128,-1,10
 602 1324 602 1324 576 1324 c 0,11,12
 530 1324 530 1324 494 1287 c 128,-1,13
 458 1250 458 1250 437.5 1192.5 c 128,-1,14
 417 1135 417 1135 403.5 1057 c 128,-1,15
 390 979 390 979 385.5 907 c 128,-1,16
 381 835 381 835 381 758 c 0,17,18
 381 713 381 713 381 688.5 c 128,-1,19
 381 664 381 664 382.5 617.5 c 128,-1,20
 384 571 384 571 386.5 542.5 c 128,-1,21
 389 514 389 514 393.5 471.5 c 128,-1,22
 398 429 398 429 405.5 402 c 128,-1,23
 413 375 413 375 423.5 341.5 c 128,-1,24
 434 308 434 308 448.5 287.5 c 128,-1,25
 463 267 463 267 481.5 248 c 128,-1,26
 500 229 500 229 524.5 220.5 c 128,-1,27
 549 212 549 212 578 212 c 0,28,29
 630 212 630 212 668 258 c 128,-1,30
 706 304 706 304 724 377 c 128,-1,31
 742 450 742 450 742 538 c 1,32,-1
 590 538 l 1,33,-1
 614 768 l 1,34,-1
 1031 768 l 1,35,-1
 1031 12 l 1,36,-1
 916 0 l 1,37,38
 915 4 915 4 908.5 31 c 128,-1,39
 902 58 902 58 885 127.5 c 128,-1,40
 868 197 868 197 846 285 c 1,41,42
 838 253 838 253 834 236 c 128,-1,43
 830 219 830 219 816.5 181 c 128,-1,44
 803 143 803 143 789 120 c 128,-1,45
 775 97 775 97 749 65.5 c 128,-1,46
 723 34 723 34 693 16 c 128,-1,47
 663 -2 663 -2 618.5 -15 c 128,-1,48
 574 -28 574 -28 521 -28 c 0,49,50
 426 -28 426 -28 350.5 15.5 c 128,-1,51
 275 59 275 59 225.5 133 c 128,-1,52
 176 207 176 207 143 310.5 c 128,-1,53
 110 414 110 414 95.5 529 c 128,-1,54
 81 644 81 644 81 774 c 0,55,56
 81 885 81 885 97 992.5 c 128,-1,57
 113 1100 113 1100 151 1205 c 128,-1,58
 189 1310 189 1310 244.5 1388.5 c 128,-1,59
 300 1467 300 1467 386.5 1515.5 c 128,-1,60
 473 1564 473 1564 580 1564 c 0,61,62
 693 1564 693 1564 780 1520.5 c 128,-1,63
 867 1477 867 1477 919.5 1402 c 128,-1,64
 972 1327 972 1327 998.5 1234 c 128,-1,65
 1025 1141 1025 1141 1025 1034 c 1,0,1
EndSplineSet
EndChar

StartChar: H
Encoding: 72 72 46
Width: 1176
GlyphClass: 2
Flags: W
AnchorPoint: "Anchor-1" 600 0 basechar 0
AnchorPoint: "Anchor-0" 578 1536 basechar 0
LayerCount: 2
UndoRedoHistory
Layer: 1
Undoes
EndUndoes
Redoes
EndRedoes
EndUndoRedoHistory
Fore
SplineSet
732 -12 m 1,0,-1
 732 639 l 1,1,-1
 444 639 l 1,2,-1
 444 12 l 1,3,-1
 144 -12 l 1,4,-1
 144 1512 l 1,5,-1
 444 1536 l 1,6,-1
 444 913 l 1,7,-1
 732 913 l 1,8,-1
 732 1512 l 1,9,-1
 1032 1536 l 1,10,-1
 1032 12 l 1,11,-1
 732 -12 l 1,0,-1
EndSplineSet
EndChar

StartChar: I
Encoding: 73 73 47
Width: 588
GlyphClass: 2
Flags: W
AnchorPoint: "Anchor-1" 286 1 basechar 0
AnchorPoint: "Anchor-0" 282 1536 basechar 0
LayerCount: 2
UndoRedoHistory
Layer: 1
Undoes
EndUndoes
Redoes
EndRedoes
EndUndoRedoHistory
Fore
SplineSet
144 -12 m 1,0,-1
 144 1512 l 1,1,-1
 444 1536 l 1,2,-1
 444 12 l 1,3,-1
 144 -12 l 1,0,-1
EndSplineSet
EndChar

StartChar: J
Encoding: 74 74 48
Width: 681
GlyphClass: 2
Flags: W
AnchorPoint: "Anchor-0" 386 1536 basechar 0
LayerCount: 2
UndoRedoHistory
Layer: 1
Undoes
EndUndoes
Redoes
EndRedoes
EndUndoRedoHistory
Fore
SplineSet
55 2 m 1,0,1
 55 205 l 1,2,3
 96 191 96 191 135 191 c 0,4,5
 162 191 162 191 182 199 c 128,-1,6
 202 207 202 207 213.5 224.5 c 128,-1,7
 225 242 225 242 232.5 258.5 c 128,-1,8
 240 275 240 275 243 305 c 128,-1,9
 246 335 246 335 246.5 354.5 c 128,-1,10
 247 374 247 374 247 409 c 2,11,-1
 247 1512 l 1,12,-1
 547 1536 l 1,13,-1
 547 384 l 2,14,15
 547 288 547 288 532 216 c 128,-1,16
 517 144 517 144 483 87.5 c 128,-1,17
 449 31 449 31 390 1.5 c 128,-1,18
 331 -28 331 -28 247 -28 c 0,19,20
 166 -28 166 -28 55 2 c 1,0,1
EndSplineSet
EndChar

StartChar: K
Encoding: 75 75 49
Width: 1152
GlyphClass: 2
Flags: W
AnchorPoint: "Anchor-1" 632 0 basechar 0
AnchorPoint: "Anchor-0" 591 1536 basechar 0
LayerCount: 2
UndoRedoHistory
Layer: 1
Undoes
EndUndoes
Redoes
EndRedoes
EndUndoRedoHistory
Fore
SplineSet
828 -27 m 1,0,-1
 562 689 l 1,1,-1
 444 486 l 1,2,-1
 444 0 l 1,3,-1
 144 0 l 1,4,-1
 144 1512 l 1,5,-1
 444 1536 l 1,6,-1
 444 864 l 1,7,-1
 808 1536 l 1,8,-1
 1128 1536 l 1,9,-1
 799 902 l 1,10,-1
 1133 43 l 1,11,-1
 828 -27 l 1,0,-1
EndSplineSet
EndChar

StartChar: L
Encoding: 76 76 50
Width: 960
GlyphClass: 2
Flags: W
AnchorPoint: "Anchor-1" 566 0 basechar 0
AnchorPoint: "Anchor-0" 456 1536 basechar 0
LayerCount: 2
UndoRedoHistory
Layer: 1
Undoes
EndUndoes
Redoes
EndRedoes
EndUndoRedoHistory
Fore
SplineSet
144 1512 m 1,0,-1
 443 1536 l 1,1,-1
 443 240 l 1,2,-1
 946 240 l 1,3,-1
 915 0 l 1,4,-1
 144 0 l 1,5,-1
 144 1512 l 1,0,-1
EndSplineSet
EndChar

StartChar: M
Encoding: 77 77 51
Width: 1626
GlyphClass: 2
Flags: W
AnchorPoint: "Anchor-1" 820 0 basechar 0
AnchorPoint: "Anchor-0" 810 1536 basechar 0
LayerCount: 2
UndoRedoHistory
Layer: 1
Undoes
EndUndoes
Redoes
EndRedoes
EndUndoRedoHistory
Fore
SplineSet
700 0 m 1,0,-1
 392 1144 l 1,1,-1
 392 12 l 1,2,-1
 144 0 l 1,3,-1
 144 1522 l 1,4,-1
 583 1534 l 1,5,-1
 837 584 l 1,6,-1
 1081 1500 l 1,7,-1
 1482 1524 l 1,8,-1
 1482 12 l 1,9,-1
 1172 -12 l 1,10,-1
 1172 1140 l 1,11,-1
 885 0 l 1,12,-1
 700 0 l 1,0,-1
EndSplineSet
EndChar

StartChar: N
Encoding: 78 78 52
Width: 1251
GlyphClass: 2
Flags: W
AnchorPoint: "Anchor-1" 669 0 basechar 0
AnchorPoint: "Anchor-0" 628 1536 basechar 0
LayerCount: 2
UndoRedoHistory
Layer: 1
Undoes
EndUndoes
Redoes
EndRedoes
EndUndoRedoHistory
Fore
SplineSet
861 -12 m 1,0,-1
 412 948 l 1,1,-1
 412 12 l 1,2,-1
 144 0 l 1,3,-1
 144 1524 l 1,4,-1
 457 1536 l 1,5,-1
 853 622 l 1,6,-1
 853 1512 l 1,7,-1
 1107 1536 l 1,8,-1
 1107 12 l 1,9,-1
 861 -12 l 1,0,-1
EndSplineSet
EndChar

StartChar: O
Encoding: 79 79 53
Width: 1125
GlyphClass: 2
Flags: W
AnchorPoint: "Anchor-1" 605 0 basechar 0
AnchorPoint: "Anchor-0" 543 1536 basechar 0
LayerCount: 2
UndoRedoHistory
Layer: 1
Undoes
EndUndoes
Redoes
EndRedoes
EndUndoRedoHistory
Fore
SplineSet
561 212 m 128,-1,1
 595 212 595 212 621.5 227.5 c 128,-1,2
 648 243 648 243 666.5 268.5 c 128,-1,3
 685 294 685 294 698.5 337.5 c 128,-1,4
 712 381 712 381 719.5 428 c 128,-1,5
 727 475 727 475 731.5 542.5 c 128,-1,6
 736 610 736 610 737.5 673.5 c 128,-1,7
 739 737 739 737 739 824 c 0,8,9
 739 1324 739 1324 561 1324 c 0,10,11
 385 1324 385 1324 385 824 c 0,12,13
 385 736 385 736 386.5 673.5 c 128,-1,14
 388 611 388 611 392 542.5 c 128,-1,15
 396 474 396 474 404 428 c 128,-1,16
 412 382 412 382 425 338 c 128,-1,17
 438 294 438 294 456.5 268.5 c 128,-1,18
 475 243 475 243 501 227.5 c 128,-1,0
 527 212 527 212 561 212 c 128,-1,1
561 -28 m 0,19,20
 479 -28 479 -28 411.5 -4.5 c 128,-1,21
 344 19 344 19 295 60.5 c 128,-1,22
 246 102 246 102 209 164.5 c 128,-1,23
 172 227 172 227 149 297.5 c 128,-1,24
 126 368 126 368 111.5 456.5 c 128,-1,25
 97 545 97 545 91.5 633 c 128,-1,26
 86 721 86 721 86 824 c 0,27,28
 86 989 86 989 113.5 1122 c 128,-1,29
 141 1255 141 1255 197.5 1355 c 128,-1,30
 254 1455 254 1455 346.5 1509.5 c 128,-1,31
 439 1564 439 1564 561 1564 c 0,32,33
 684 1564 684 1564 776.5 1509.5 c 128,-1,34
 869 1455 869 1455 926 1355 c 128,-1,35
 983 1255 983 1255 1011 1122 c 128,-1,36
 1039 989 1039 989 1039 824 c 0,37,38
 1039 709 1039 709 1030.5 610.5 c 128,-1,39
 1022 512 1022 512 1002.5 412.5 c 128,-1,40
 983 313 983 313 947.5 236 c 128,-1,41
 912 159 912 159 860.5 98 c 128,-1,42
 809 37 809 37 733 4.5 c 128,-1,43
 657 -28 657 -28 561 -28 c 0,19,20
EndSplineSet
EndChar

StartChar: P
Encoding: 80 80 54
Width: 1092
GlyphClass: 2
Flags: W
AnchorPoint: "Anchor-1" 506 0 basechar 0
AnchorPoint: "Anchor-0" 541 1536 basechar 0
LayerCount: 2
UndoRedoHistory
Layer: 1
Undoes
EndUndoes
Redoes
EndRedoes
EndUndoRedoHistory
Fore
SplineSet
446 847 m 1,0,-1
 497 847 l 2,1,2
 542 847 542 847 577.5 852.5 c 128,-1,3
 613 858 613 858 647 873.5 c 128,-1,4
 681 889 681 889 703.5 914.5 c 128,-1,5
 726 940 726 940 739.5 981 c 128,-1,6
 753 1022 753 1022 753 1077 c 0,7,8
 753 1207 753 1207 690 1251.5 c 128,-1,9
 627 1296 627 1296 489 1296 c 2,10,-1
 446 1296 l 1,11,-1
 446 847 l 1,0,-1
144 -12 m 1,12,-1
 144 1536 l 1,13,-1
 336 1536 l 2,14,15
 346 1536 346 1536 365 1536 c 0,16,17
 436 1536 436 1536 471 1535.5 c 128,-1,18
 506 1535 506 1535 574.5 1531 c 128,-1,19
 643 1527 643 1527 680.5 1519.5 c 128,-1,20
 718 1512 718 1512 776.5 1496 c 128,-1,21
 835 1480 835 1480 868 1457.5 c 128,-1,22
 901 1435 901 1435 941 1400 c 128,-1,23
 981 1365 981 1365 1002 1320 c 128,-1,24
 1023 1275 1023 1275 1037.5 1212.5 c 128,-1,25
 1052 1150 1052 1150 1052 1075 c 0,26,27
 1052 985 1052 985 1032 913 c 128,-1,28
 1012 841 1012 841 980 792.5 c 128,-1,29
 948 744 948 744 898 708.5 c 128,-1,30
 848 673 848 673 798.5 653.5 c 128,-1,31
 749 634 749 634 683.5 622.5 c 128,-1,32
 618 611 618 611 564.5 607.5 c 128,-1,33
 511 604 511 604 444 604 c 1,34,-1
 444 12 l 1,35,-1
 144 -12 l 1,12,-1
EndSplineSet
EndChar

StartChar: Q
Encoding: 81 81 55
Width: 1125
GlyphClass: 2
Flags: W
LayerCount: 2
UndoRedoHistory
Layer: 1
Undoes
EndUndoes
Redoes
EndRedoes
EndUndoRedoHistory
Fore
SplineSet
561 212 m 128,-1,1
 595 212 595 212 621.5 227.5 c 128,-1,2
 648 243 648 243 666.5 268.5 c 128,-1,3
 685 294 685 294 698.5 337.5 c 128,-1,4
 712 381 712 381 719.5 428 c 128,-1,5
 727 475 727 475 731.5 542.5 c 128,-1,6
 736 610 736 610 737.5 673.5 c 128,-1,7
 739 737 739 737 739 824 c 0,8,9
 739 1324 739 1324 561 1324 c 0,10,11
 385 1324 385 1324 385 824 c 0,12,13
 385 736 385 736 386.5 673.5 c 128,-1,14
 388 611 388 611 392 542.5 c 128,-1,15
 396 474 396 474 404 428 c 128,-1,16
 412 382 412 382 425 338 c 128,-1,17
 438 294 438 294 456.5 268.5 c 128,-1,18
 475 243 475 243 501 227.5 c 128,-1,0
 527 212 527 212 561 212 c 128,-1,1
786 33 m 1,19,20
 970 -241 l 1,21,-1
 786 -363 l 1,22,-1
 549 -28 l 1,23,24
 474 -26 474 -26 412 -4 c 0,25,26
 344 20 344 20 295 61 c 128,-1,27
 246 102 246 102 209 164.5 c 128,-1,28
 172 227 172 227 149 297.5 c 128,-1,29
 126 368 126 368 111.5 456.5 c 128,-1,30
 97 545 97 545 91.5 633 c 128,-1,31
 86 721 86 721 86 824 c 0,32,33
 86 989 86 989 113.5 1122 c 128,-1,34
 141 1255 141 1255 197.5 1355 c 128,-1,35
 254 1455 254 1455 346.5 1509.5 c 128,-1,36
 439 1564 439 1564 561 1564 c 0,37,38
 684 1564 684 1564 776.5 1509.5 c 128,-1,39
 869 1455 869 1455 926 1355 c 128,-1,40
 983 1255 983 1255 1011 1122 c 128,-1,41
 1039 989 1039 989 1039 824 c 0,42,43
 1039 709 1039 709 1030.5 610.5 c 128,-1,44
 1022 512 1022 512 1002.5 412.5 c 128,-1,45
 983 313 983 313 947.5 236 c 128,-1,46
 912 159 912 159 860 98 c 0,47,48
 828 60 828 60 786 33 c 1,19,20
EndSplineSet
EndChar

StartChar: R
Encoding: 82 82 56
Width: 1158
GlyphClass: 2
Flags: W
AnchorPoint: "Anchor-1" 611 0 basechar 0
AnchorPoint: "Anchor-0" 548 1536 basechar 0
LayerCount: 2
UndoRedoHistory
Layer: 1
Undoes
EndUndoes
Redoes
EndRedoes
EndUndoRedoHistory
Fore
SplineSet
443 1296 m 1,0,-1
 443 895 l 1,1,-1
 545 895 l 2,2,3
 585 895 585 895 615.5 899.5 c 128,-1,4
 646 904 646 904 676.5 917.5 c 128,-1,5
 707 931 707 931 727 953.5 c 128,-1,6
 747 976 747 976 759.5 1014.5 c 128,-1,7
 772 1053 772 1053 772 1105 c 0,8,9
 772 1296 772 1296 583 1296 c 2,10,-1
 443 1296 l 1,0,-1
443 12 m 1,11,-1
 144 -12 l 1,12,-1
 144 1524 l 1,13,-1
 508 1536 l 1,14,15
 772 1536 772 1536 922 1430.5 c 128,-1,16
 1072 1325 1072 1325 1072 1108 c 0,17,18
 1072 965 1072 965 1015 872.5 c 128,-1,19
 958 780 958 780 852 719 c 1,20,21
 852 714 852 714 990 384 c 2,22,-1
 1129 53 l 1,23,-1
 834 -27 l 1,24,-1
 560 673 l 1,25,-1
 443 673 l 1,26,-1
 443 12 l 1,11,-1
EndSplineSet
EndChar

StartChar: S
Encoding: 83 83 57
Width: 1091
GlyphClass: 2
Flags: W
AnchorPoint: "Anchor-1" 571 -1 basechar 0
AnchorPoint: "Anchor-0" 532 1536 basechar 0
LayerCount: 2
UndoRedoHistory
Layer: 1
Undoes
EndUndoes
Redoes
EndRedoes
EndUndoRedoHistory
Fore
SplineSet
993 1256 m 1,0,1
 739 1141 l 1,2,3
 736 1148 736 1148 722.5 1177 c 128,-1,4
 709 1206 709 1206 705 1213 c 128,-1,5
 701 1220 701 1220 688.5 1242.5 c 128,-1,6
 676 1265 676 1265 669 1271.5 c 128,-1,7
 662 1278 662 1278 647.5 1292 c 128,-1,8
 633 1306 633 1306 619.5 1310.5 c 128,-1,9
 606 1315 606 1315 587 1319.5 c 128,-1,10
 568 1324 568 1324 546 1324 c 0,11,12
 479 1324 479 1324 443 1280 c 128,-1,13
 407 1236 407 1236 407 1169 c 0,14,15
 407 1121 407 1121 434.5 1081 c 128,-1,16
 462 1041 462 1041 501 1018 c 2,17,-1
 749 873 l 1,18,19
 1026 716 1026 716 1038 463 c 1,20,21
 1038 244 1038 244 898.5 108 c 128,-1,22
 759 -28 759 -28 548 -28 c 0,23,24
 363 -28 363 -28 235 75.5 c 128,-1,25
 107 179 107 179 48 352 c 1,26,-1
 302 471 l 1,27,28
 309 459 309 459 327.5 427 c 128,-1,29
 346 395 346 395 357.5 376.5 c 128,-1,30
 369 358 369 358 389 329 c 128,-1,31
 409 300 409 300 427.5 282.5 c 128,-1,32
 446 265 446 265 469 247 c 128,-1,33
 492 229 492 229 519 220.5 c 128,-1,34
 546 212 546 212 576 212 c 0,35,36
 628 212 628 212 670 263.5 c 128,-1,37
 712 315 712 315 712 376 c 0,38,39
 712 434 712 434 684 480.5 c 128,-1,40
 656 527 656 527 610 557 c 1,41,-1
 341 716 l 1,42,43
 224 783 224 783 154.5 883.5 c 128,-1,44
 85 984 85 984 85 1108 c 0,45,46
 85 1310 85 1310 220.5 1437 c 128,-1,47
 356 1564 356 1564 562 1564 c 0,48,49
 719 1564 719 1564 829.5 1486 c 128,-1,50
 940 1408 940 1408 993 1256 c 1,0,1
EndSplineSet
EndChar

StartChar: T
Encoding: 84 84 58
Width: 977
GlyphClass: 2
Flags: W
AnchorPoint: "Anchor-1" 518 0 basechar 0
AnchorPoint: "Anchor-0" 459 1536 basechar 0
LayerCount: 2
UndoRedoHistory
Layer: 1
Undoes
EndUndoes
Redoes
EndRedoes
EndUndoRedoHistory
Fore
SplineSet
341 1296 m 1,0,-1
 28 1296 l 1,1,-1
 52 1536 l 1,2,-1
 952 1536 l 1,3,-1
 928 1296 l 1,4,-1
 641 1296 l 1,5,-1
 641 12 l 1,6,-1
 341 -12 l 1,7,-1
 341 1296 l 1,0,-1
EndSplineSet
EndChar

StartChar: U
Encoding: 85 85 59
Width: 1163
GlyphClass: 2
Flags: W
AnchorPoint: "Anchor-2" 590 0 basechar 0
AnchorPoint: "Anchor-1" 636 0 basechar 0
AnchorPoint: "Anchor-0" 584 1536 basechar 0
LayerCount: 2
UndoRedoHistory
Layer: 1
Undoes
EndUndoes
Redoes
EndRedoes
EndUndoRedoHistory
Fore
SplineSet
132 506 m 2,0,1
 132 1524 l 1,2,-1
 432 1536 l 1,3,-1
 432 482 l 2,4,5
 432 449 432 449 432.5 428 c 128,-1,6
 433 407 433 407 436.5 375.5 c 128,-1,7
 440 344 440 344 446.5 324 c 128,-1,8
 453 304 453 304 465 280.5 c 128,-1,9
 477 257 477 257 494.5 243.5 c 128,-1,10
 512 230 512 230 539 221 c 128,-1,11
 566 212 566 212 600 212 c 0,12,13
 632 212 632 212 657.5 221.5 c 128,-1,14
 683 231 683 231 699 244.5 c 128,-1,15
 715 258 715 258 726.5 282.5 c 128,-1,16
 738 307 738 307 743.5 326.5 c 128,-1,17
 749 346 749 346 752 379 c 128,-1,18
 755 412 755 412 755.5 431.5 c 128,-1,19
 756 451 756 451 756 485 c 2,20,-1
 756 1512 l 1,21,-1
 1031 1536 l 1,22,-1
 1031 541 l 2,23,24
 1031 494 1031 494 1028.5 453.5 c 128,-1,25
 1026 413 1026 413 1016 352 c 128,-1,26
 1006 291 1006 291 988.5 242.5 c 128,-1,27
 971 194 971 194 937.5 141.5 c 128,-1,28
 904 89 904 89 859 53.5 c 128,-1,29
 814 18 814 18 744.5 -5 c 128,-1,30
 675 -28 675 -28 589 -28 c 0,31,32
 472 -28 472 -28 383 12.5 c 128,-1,33
 294 53 294 53 240 126 c 128,-1,34
 186 199 186 199 159 294.5 c 128,-1,35
 132 390 132 390 132 506 c 2,0,1
EndSplineSet
EndChar

StartChar: V
Encoding: 86 86 60
Width: 1092
GlyphClass: 2
Flags: W
LayerCount: 2
UndoRedoHistory
Layer: 1
Undoes
EndUndoes
Redoes
EndRedoes
EndUndoRedoHistory
Fore
SplineSet
379 0 m 1,0,-1
 17 1524 l 1,1,-1
 372 1536 l 1,2,-1
 576 476 l 1,3,-1
 789 1524 l 1,4,-1
 1078 1536 l 1,5,-1
 708 0 l 1,6,-1
 379 0 l 1,0,-1
EndSplineSet
EndChar

StartChar: W
Encoding: 87 87 61
Width: 1586
GlyphClass: 2
Flags: W
AnchorPoint: "Anchor-1" 807 0 basechar 0
AnchorPoint: "Anchor-0" 788 1536 basechar 0
LayerCount: 2
UndoRedoHistory
Layer: 1
Undoes
EndUndoes
Redoes
EndRedoes
EndUndoRedoHistory
Fore
SplineSet
780 938 m 1,0,-1
 614 0 l 1,1,-1
 339 0 l 1,2,-1
 27 1524 l 1,3,-1
 355 1536 l 1,4,-1
 517 616 l 1,5,-1
 690 1524 l 1,6,-1
 935 1536 l 1,7,-1
 1097 606 l 1,8,-1
 1293 1524 l 1,9,-1
 1568 1536 l 1,10,-1
 1240 0 l 1,11,-1
 943 0 l 1,12,-1
 780 938 l 1,0,-1
EndSplineSet
EndChar

StartChar: X
Encoding: 88 88 62
Width: 1064
GlyphClass: 2
Flags: W
LayerCount: 2
UndoRedoHistory
Layer: 1
Undoes
EndUndoes
Redoes
EndRedoes
EndUndoRedoHistory
Fore
SplineSet
719 0 m 1,0,-1
 502 481 l 1,1,-1
 285 0 l 1,2,-1
 1 0 l 1,3,-1
 382 780 l 1,4,-1
 16 1536 l 1,5,-1
 375 1536 l 1,6,-1
 553 1137 l 1,7,-1
 737 1536 l 1,8,-1
 1023 1536 l 1,9,-1
 677 838 l 1,10,-1
 1076 0 l 1,11,-1
 719 0 l 1,0,-1
EndSplineSet
EndChar

StartChar: Y
Encoding: 89 89 63
Width: 1027
GlyphClass: 2
Flags: W
AnchorPoint: "Anchor-1" 538 0 basechar 0
AnchorPoint: "Anchor-0" 515 1536 basechar 0
LayerCount: 2
UndoRedoHistory
Layer: 1
Undoes
EndUndoes
Redoes
EndRedoes
EndUndoRedoHistory
Fore
SplineSet
367 -12 m 1,0,-1
 367 608 l 1,1,-1
 -3 1536 l 1,2,-1
 327 1536 l 1,3,-1
 538 896 l 1,4,-1
 766 1536 l 1,5,-1
 1025 1536 l 1,6,-1
 670 643 l 1,7,-1
 670 12 l 1,8,-1
 367 -12 l 1,0,-1
EndSplineSet
EndChar

StartChar: Z
Encoding: 90 90 64
Width: 966
GlyphClass: 2
Flags: W
AnchorPoint: "Anchor-1" 531 0 basechar 0
AnchorPoint: "Anchor-0" 485 1536 basechar 0
LayerCount: 2
UndoRedoHistory
Layer: 1
Undoes
EndUndoes
Redoes
EndRedoes
EndUndoRedoHistory
Fore
SplineSet
62 190 m 1,0,-1
 554 1296 l 1,1,-1
 109 1296 l 1,2,-1
 133 1536 l 1,3,-1
 904 1536 l 1,4,-1
 904 1337 l 1,5,-1
 422 240 l 1,6,-1
 918 240 l 1,7,-1
 870 0 l 1,8,-1
 62 0 l 1,9,-1
 62 190 l 1,0,-1
EndSplineSet
EndChar

StartChar: bracketleft
Encoding: 91 91 65
Width: 692
GlyphClass: 2
Flags: W
LayerCount: 2
UndoRedoHistory
Layer: 1
Undoes
EndUndoes
Redoes
EndRedoes
EndUndoRedoHistory
Fore
SplineSet
141 -96 m 1,0,-1
 141 1632 l 1,1,-1
 633 1632 l 1,2,-1
 633 1440 l 1,3,-1
 441 1440 l 1,4,-1
 441 95 l 1,5,-1
 633 95 l 1,6,-1
 633 -96 l 1,7,-1
 141 -96 l 1,0,-1
EndSplineSet
EndChar

StartChar: backslash
Encoding: 92 92 66
Width: 628
GlyphClass: 2
Flags: W
LayerCount: 2
UndoRedoHistory
Layer: 1
Undoes
EndUndoes
Redoes
EndRedoes
EndUndoRedoHistory
Fore
SplineSet
363 1536 m 1,0,-1
 564 0 l 1,1,-1
 264 0 l 1,2,-1
 63 1536 l 1,3,-1
 363 1536 l 1,0,-1
EndSplineSet
EndChar

StartChar: bracketright
Encoding: 93 93 67
Width: 693
GlyphClass: 2
Flags: W
LayerCount: 2
UndoRedoHistory
Layer: 1
Undoes
EndUndoes
Redoes
EndRedoes
EndUndoRedoHistory
Fore
SplineSet
552 1632 m 1,0,-1
 552 -96 l 1,1,-1
 60 -96 l 1,2,-1
 60 95 l 1,3,-1
 252 95 l 1,4,-1
 252 1440 l 1,5,-1
 60 1440 l 1,6,-1
 60 1632 l 1,7,-1
 552 1632 l 1,0,-1
EndSplineSet
EndChar

StartChar: circumflexcomb
Encoding: 770 770 68
Width: 739
GlyphClass: 4
Flags: W
AnchorPoint: "Anchor-0" 352 1150 mark 0
LayerCount: 2
UndoRedoHistory
Layer: 1
Undoes
EndUndoes
Redoes
EndRedoes
EndUndoRedoHistory
Fore
SplineSet
242 1248 m 1,0,-1
 32 1248 l 1,1,-1
 272 1728 l 1,2,-1
 474 1728 l 1,3,-1
 704 1248 l 1,4,-1
 454 1248 l 1,5,-1
 358 1538 l 1,6,-1
 242 1248 l 1,0,-1
EndSplineSet
EndChar

StartChar: underscore
Encoding: 95 95 69
Width: 556
GlyphClass: 2
Flags: W
LayerCount: 2
UndoRedoHistory
Layer: 1
Undoes
EndUndoes
Redoes
EndRedoes
EndUndoRedoHistory
Fore
SplineSet
-10 -238 m 1,0,-1
 -10 0 l 1,1,-1
 566 0 l 1,2,-1
 566 -238 l 1,3,-1
 -10 -238 l 1,0,-1
EndSplineSet
EndChar

StartChar: grave
Encoding: 96 96 70
Width: 613
GlyphClass: 2
Flags: W
LayerCount: 2
UndoRedoHistory
Layer: 1
Undoes
EndUndoes
Redoes
EndRedoes
EndUndoRedoHistory
Fore
SplineSet
535 1342 m 1,0,-1
 421 1241 l 1,1,-1
 11 1587 l 1,2,-1
 238 1789 l 1,3,-1
 535 1342 l 1,0,-1
EndSplineSet
EndChar

StartChar: a
Encoding: 97 97 71
Width: 964
GlyphClass: 2
Flags: W
AnchorPoint: "Anchor-2" 681 0 basechar 0
AnchorPoint: "Anchor-1" 561 0 basechar 0
AnchorPoint: "Anchor-0" 451 1154 basechar 0
LayerCount: 2
UndoRedoHistory
Layer: 1
Undoes
EndUndoes
Redoes
EndRedoes
EndUndoRedoHistory
Fore
SplineSet
338 331 m 0,0,1
 338 260 338 260 366.5 219.5 c 128,-1,2
 395 179 395 179 452 179 c 0,3,4
 500 179 500 179 563 247 c 1,5,-1
 563 568 l 1,6,7
 338 568 338 568 338 331 c 0,0,1
56 327 m 0,8,9
 56 395 56 395 74 452 c 128,-1,10
 92 509 92 509 121.5 549.5 c 128,-1,11
 151 590 151 590 193 622.5 c 128,-1,12
 235 655 235 655 279 675.5 c 128,-1,13
 323 696 323 696 375 710 c 128,-1,14
 427 724 427 724 471.5 730.5 c 128,-1,15
 516 737 516 737 563 740 c 1,16,17
 563 768 563 768 563 780.5 c 128,-1,18
 563 793 563 793 562 818 c 128,-1,19
 561 843 561 843 559 855.5 c 128,-1,20
 557 868 557 868 553 887.5 c 128,-1,21
 549 907 549 907 543 916.5 c 128,-1,22
 537 926 537 926 528.5 936.5 c 128,-1,23
 520 947 520 947 507.5 951.5 c 128,-1,24
 495 956 495 956 480 956 c 0,25,26
 393 956 393 956 376 826 c 1,27,-1
 96 875 l 1,28,29
 104 941 104 941 131 993 c 128,-1,30
 158 1045 158 1045 195 1077 c 128,-1,31
 232 1109 232 1109 281 1130 c 128,-1,32
 330 1151 330 1151 378.5 1159 c 128,-1,33
 427 1167 427 1167 480 1167 c 0,34,35
 575 1167 575 1167 647.5 1139.5 c 128,-1,36
 720 1112 720 1112 763.5 1063.5 c 128,-1,37
 807 1015 807 1015 829 952 c 128,-1,38
 851 889 851 889 851 813 c 2,39,-1
 851 217 l 2,40,41
 851 131 851 131 882 12 c 1,42,-1
 602 -12 l 1,43,-1
 570 129 l 1,44,45
 535 66 535 66 462 19.5 c 128,-1,46
 389 -27 389 -27 317 -27 c 0,47,48
 200 -27 200 -27 128 72.5 c 128,-1,49
 56 172 56 172 56 327 c 0,8,9
EndSplineSet
EndChar

StartChar: b
Encoding: 98 98 72
Width: 1060
GlyphClass: 2
Flags: W
AnchorPoint: "Anchor-1" 617 0 basechar 0
AnchorPoint: "Anchor-0" 656 1249 basechar 0
LayerCount: 2
UndoRedoHistory
Layer: 1
Undoes
EndUndoes
Redoes
EndRedoes
EndUndoRedoHistory
Fore
SplineSet
412 843 m 1,0,1
 412 480 l 2,2,3
 412 315 412 315 451.5 247 c 128,-1,4
 491 179 491 179 552 179 c 0,5,6
 582 179 582 179 605 190.5 c 128,-1,7
 628 202 628 202 643.5 220 c 128,-1,8
 659 238 659 238 670 269 c 128,-1,9
 681 300 681 300 687.5 330 c 128,-1,10
 694 360 694 360 697 405 c 128,-1,11
 700 450 700 450 701 486.5 c 128,-1,12
 702 523 702 523 702 576 c 0,13,14
 702 776 702 776 675.5 849 c 128,-1,15
 649 922 649 922 572 922 c 0,16,17
 534 922 534 922 485 895 c 128,-1,18
 436 868 436 868 412 843 c 1,0,1
342 -12 m 1,19,-1
 124 12 l 1,20,-1
 124 1500 l 1,21,-1
 412 1536 l 1,22,-1
 412 1005 l 1,23,24
 465 1079 465 1079 541 1123 c 128,-1,25
 617 1167 617 1167 704 1167 c 0,26,27
 768 1167 768 1167 818.5 1135.5 c 128,-1,28
 869 1104 869 1104 908.5 1036 c 128,-1,29
 948 968 948 968 969 852 c 128,-1,30
 990 736 990 736 990 576 c 0,31,32
 990 -27 990 -27 659 -27 c 0,33,34
 599 -27 599 -27 553.5 -13 c 128,-1,35
 508 1 508 1 480.5 27 c 128,-1,36
 453 53 453 53 437.5 80.5 c 128,-1,37
 422 108 422 108 412 144 c 1,38,-1
 342 -12 l 1,19,-1
EndSplineSet
EndChar

StartChar: c
Encoding: 99 99 73
Width: 912
GlyphClass: 2
Flags: W
AnchorPoint: "Anchor-1" 599 0 basechar 0
AnchorPoint: "Anchor-0" 472 1154 basechar 0
LayerCount: 2
UndoRedoHistory
Layer: 1
Undoes
EndUndoes
Redoes
EndRedoes
EndUndoRedoHistory
Fore
SplineSet
609 432 m 1,0,1
 849 405 l 1,2,3
 839 324 839 324 823.5 262.5 c 128,-1,4
 808 201 808 201 780.5 144.5 c 128,-1,5
 753 88 753 88 714 51.5 c 128,-1,6
 675 15 675 15 616.5 -6 c 128,-1,7
 558 -27 558 -27 482 -27 c 0,8,9
 382 -27 382 -27 302 22.5 c 128,-1,10
 222 72 222 72 172.5 155.5 c 128,-1,11
 123 239 123 239 96.5 344 c 128,-1,12
 70 449 70 449 70 566 c 0,13,14
 70 680 70 680 95 785 c 128,-1,15
 120 890 120 890 169 976.5 c 128,-1,16
 218 1063 218 1063 300.5 1115 c 128,-1,17
 383 1167 383 1167 488 1167 c 0,18,19
 646 1167 646 1167 748 1052 c 128,-1,20
 850 937 850 937 856 754 c 1,21,-1
 583 742 l 1,22,23
 582 747 582 747 581 758 c 0,24,25
 578 788 578 788 576.5 796.5 c 128,-1,26
 575 805 575 805 570 834 c 128,-1,27
 565 863 565 863 558.5 875.5 c 128,-1,28
 552 888 552 888 542 906 c 128,-1,29
 532 924 532 924 517.5 931.5 c 128,-1,30
 503 939 503 939 485 939 c 0,31,32
 462 939 462 939 443 928 c 128,-1,33
 424 917 424 917 411.5 895 c 128,-1,34
 399 873 399 873 389.5 850 c 128,-1,35
 380 827 380 827 374.5 792.5 c 128,-1,36
 369 758 369 758 365.5 733.5 c 128,-1,37
 362 709 362 709 361 672.5 c 128,-1,38
 360 636 360 636 359.5 620 c 128,-1,39
 359 604 359 604 359 576 c 0,40,41
 359 216 359 216 494 216 c 0,42,43
 604 216 604 216 609 432 c 1,0,1
EndSplineSet
EndChar

StartChar: d
Encoding: 100 100 74
Width: 1061
GlyphClass: 2
Flags: W
AnchorPoint: "Anchor-1" 826 0 basechar 0
AnchorPoint: "Anchor-0" 441 1208 basechar 0
LayerCount: 2
UndoRedoHistory
Layer: 1
Undoes
EndUndoes
Redoes
EndRedoes
EndUndoRedoHistory
Fore
SplineSet
652 480 m 2,0,1
 652 864 l 1,2,3
 592 956 592 956 512 956 c 0,4,5
 478 956 478 956 452 943.5 c 128,-1,6
 426 931 426 931 410 903.5 c 128,-1,7
 394 876 394 876 384 846 c 128,-1,8
 374 816 374 816 369.5 767.5 c 128,-1,9
 365 719 365 719 363.5 678.5 c 128,-1,10
 362 638 362 638 362 576 c 0,11,12
 362 523 362 523 363 486.5 c 128,-1,13
 364 450 364 450 367 405 c 128,-1,14
 370 360 370 360 376.5 330 c 128,-1,15
 383 300 383 300 394 269 c 128,-1,16
 405 238 405 238 420.5 220 c 128,-1,17
 436 202 436 202 459 190.5 c 128,-1,18
 482 179 482 179 512 179 c 0,19,20
 573 179 573 179 612.5 247 c 128,-1,21
 652 315 652 315 652 480 c 2,0,1
940 12 m 1,22,-1
 722 -12 l 1,23,-1
 652 144 l 1,24,25
 642 108 642 108 626.5 80.5 c 128,-1,26
 611 53 611 53 583.5 27 c 128,-1,27
 556 1 556 1 510.5 -13 c 128,-1,28
 465 -27 465 -27 405 -27 c 0,29,30
 74 -27 74 -27 74 576 c 0,31,32
 74 890 74 890 156 1028.5 c 128,-1,33
 238 1167 238 1167 411 1167 c 0,34,35
 486 1167 486 1167 553 1119.5 c 128,-1,36
 620 1072 620 1072 652 1000 c 1,37,-1
 652 1500 l 1,38,-1
 940 1536 l 1,39,-1
 940 12 l 1,22,-1
EndSplineSet
EndChar

StartChar: e
Encoding: 101 101 75
Width: 965
GlyphClass: 2
Flags: W
AnchorPoint: "Anchor-2" 559 56 basechar 0
AnchorPoint: "Anchor-1" 656 0 basechar 0
AnchorPoint: "Anchor-0" 502 1154 basechar 0
LayerCount: 2
UndoRedoHistory
Layer: 1
Undoes
EndUndoes
Redoes
EndRedoes
EndUndoRedoHistory
Fore
SplineSet
357 702 m 1,0,1
 632 702 l 1,2,3
 632 824 632 824 599.5 896.5 c 128,-1,4
 567 969 567 969 497 969 c 0,5,6
 443 969 443 969 400 891 c 128,-1,7
 357 813 357 813 357 702 c 1,0,1
904 536 m 1,8,-1
 357 536 l 1,9,10
 357 477 357 477 364.5 419 c 128,-1,11
 372 361 372 361 387.5 306.5 c 128,-1,12
 403 252 403 252 431.5 218.5 c 128,-1,13
 460 185 460 185 497 185 c 0,14,15
 518 185 518 185 539.5 198 c 128,-1,16
 561 211 561 211 576.5 229.5 c 128,-1,17
 592 248 592 248 607.5 273.5 c 128,-1,18
 623 299 623 299 631.5 317 c 128,-1,19
 640 335 640 335 648 354 c 2,20,-1
 657 373 l 1,21,-1
 875 290 l 1,22,23
 833 142 833 142 738 57.5 c 128,-1,24
 643 -27 643 -27 492 -27 c 0,25,26
 355 -27 355 -27 258.5 50 c 128,-1,27
 162 127 162 127 116 259.5 c 128,-1,28
 70 392 70 392 70 570 c 0,29,30
 70 843 70 843 181 1005 c 128,-1,31
 292 1167 292 1167 502 1167 c 0,32,33
 702 1167 702 1167 808.5 1005 c 128,-1,34
 915 843 915 843 915 570 c 0,35,36
 915 560 915 560 912.5 552.5 c 128,-1,37
 910 545 910 545 907 541 c 128,-1,38
 904 537 904 537 904 536 c 1,8,-1
EndSplineSet
EndChar

StartChar: f
Encoding: 102 102 76
Width: 693
GlyphClass: 2
Flags: W
AnchorPoint: "Anchor-1" 366 0 basechar 0
AnchorPoint: "Anchor-0" 543 1464 basechar 0
LayerCount: 2
UndoRedoHistory
Layer: 1
Undoes
EndUndoes
Redoes
EndRedoes
EndUndoRedoHistory
Fore
SplineSet
180 -12 m 1,0,-1
 180 936 l 1,1,-1
 38 936 l 1,2,-1
 50 1152 l 1,3,-1
 180 1152 l 1,4,-1
 180 1174 l 2,5,6
 180 1217 180 1217 181 1244 c 128,-1,7
 182 1271 182 1271 185.5 1310 c 128,-1,8
 189 1349 189 1349 197 1374 c 128,-1,9
 205 1399 205 1399 218.5 1429 c 128,-1,10
 232 1459 232 1459 253.5 1478 c 128,-1,11
 275 1497 275 1497 304 1513.5 c 128,-1,12
 333 1530 333 1530 374 1538 c 128,-1,13
 415 1546 415 1546 466 1546 c 0,14,15
 589 1546 589 1546 661 1516 c 1,16,-1
 661 1344 l 1,17,-1
 598 1344 l 2,18,19
 555 1344 555 1344 527.5 1330 c 128,-1,20
 500 1316 500 1316 488 1289 c 128,-1,21
 476 1262 476 1262 472 1236.5 c 128,-1,22
 468 1211 468 1211 468 1173 c 2,23,-1
 468 1152 l 1,24,-1
 671 1152 l 1,25,-1
 659 936 l 1,26,-1
 468 936 l 1,27,-1
 468 12 l 1,28,-1
 180 -12 l 1,0,-1
EndSplineSet
EndChar

StartChar: g
Encoding: 103 103 77
Width: 1089
GlyphClass: 2
Flags: W
AnchorPoint: "Anchor-1" 538 -422 basechar 0
AnchorPoint: "Anchor-0" 525 1154 basechar 0
LayerCount: 2
UndoRedoHistory
Layer: 1
Undoes
EndUndoes
Redoes
EndRedoes
EndUndoRedoHistory
Fore
SplineSet
390 826 m 0,0,1
 390 789 390 789 396 757.5 c 128,-1,2
 402 726 402 726 416 695 c 128,-1,3
 430 664 430 664 459 646 c 128,-1,4
 488 628 488 628 529 628 c 0,5,6
 589 628 589 628 623.5 678 c 128,-1,7
 658 728 658 728 658 820 c 0,8,9
 658 905 658 905 620.5 949 c 128,-1,10
 583 993 583 993 527 993 c 0,11,12
 463 993 463 993 426.5 941.5 c 128,-1,13
 390 890 390 890 390 826 c 0,0,1
295 -40 m 0,14,15
 295 -149 295 -149 550 -149 c 0,16,17
 652 -149 652 -149 707 -115.5 c 128,-1,18
 762 -82 762 -82 762 -21 c 0,19,20
 762 -4 762 -4 758 8.5 c 128,-1,21
 754 21 754 21 740 30 c 128,-1,22
 726 39 726 39 714 44 c 128,-1,23
 702 49 702 49 672 53.5 c 128,-1,24
 642 58 642 58 621.5 60 c 128,-1,25
 601 62 601 62 554 66 c 2,26,-1
 386 80 l 1,27,28
 348 68 348 68 321.5 37.5 c 128,-1,29
 295 7 295 7 295 -40 c 0,14,15
33 -123 m 0,30,31
 33 -39 33 -39 88.5 14 c 128,-1,32
 144 67 144 67 235 103 c 1,33,34
 161 124 161 124 120 159 c 128,-1,35
 79 194 79 194 79 256 c 0,36,37
 79 413 79 413 280 511 c 1,38,39
 195 562 195 562 145.5 632 c 128,-1,40
 96 702 96 702 96 815 c 0,41,42
 96 898 96 898 134 966.5 c 128,-1,43
 172 1035 172 1035 233.5 1078 c 128,-1,44
 295 1121 295 1121 370 1144 c 128,-1,45
 445 1167 445 1167 523 1167 c 0,46,47
 686 1167 686 1167 816 1081 c 1,48,49
 842 1105 842 1105 849 1111 c 128,-1,50
 856 1117 856 1117 890 1142 c 128,-1,51
 924 1167 924 1167 948.5 1178 c 128,-1,52
 973 1189 973 1189 1013.5 1200 c 128,-1,53
 1054 1211 1054 1211 1095 1211 c 1,54,-1
 1095 1020 l 1,55,56
 991 1020 991 1020 931 999 c 1,57,58
 915 992 915 992 913 991 c 1,59,60
 957 881 957 881 957 820 c 0,61,62
 957 768 957 768 945.5 719.5 c 128,-1,63
 934 671 934 671 905 624 c 128,-1,64
 876 577 876 577 832 542.5 c 128,-1,65
 788 508 788 508 717.5 486.5 c 128,-1,66
 647 465 647 465 558 465 c 0,67,68
 529 465 529 465 487 467 c 128,-1,69
 445 469 445 469 434 469 c 1,70,71
 408 459 408 459 383.5 432 c 128,-1,72
 359 405 359 405 359 374 c 0,73,74
 359 345 359 345 379.5 325.5 c 128,-1,75
 400 306 400 306 431 302 c 2,76,-1
 758 264 l 2,77,78
 909 247 909 247 975.5 175.5 c 128,-1,79
 1042 104 1042 104 1042 -20 c 0,80,81
 1042 -96 1042 -96 1013 -155.5 c 128,-1,82
 984 -215 984 -215 936 -252.5 c 128,-1,83
 888 -290 888 -290 819.5 -314 c 128,-1,84
 751 -338 751 -338 677.5 -348 c 128,-1,85
 604 -358 604 -358 519 -358 c 0,86,87
 290 -358 290 -358 161.5 -293.5 c 128,-1,88
 33 -229 33 -229 33 -123 c 0,30,31
EndSplineSet
EndChar

StartChar: h
Encoding: 104 104 78
Width: 1104
GlyphClass: 2
Flags: W
AnchorPoint: "Anchor-1" 563 0 basechar 0
AnchorPoint: "Anchor-0" 737 1260 basechar 0
LayerCount: 2
UndoRedoHistory
Layer: 1
Undoes
EndUndoes
Redoes
EndRedoes
EndUndoRedoHistory
Fore
SplineSet
700 -12 m 1,0,-1
 700 773 l 2,1,2
 700 848 700 848 672.5 885 c 128,-1,3
 645 922 645 922 600 922 c 0,4,5
 564 922 564 922 523 903.5 c 128,-1,6
 482 885 482 885 412 843 c 1,7,-1
 412 12 l 1,8,-1
 124 -12 l 1,9,-1
 124 1500 l 1,10,-1
 412 1536 l 1,11,-1
 412 1005 l 1,12,13
 586 1167 586 1167 742 1167 c 0,14,15
 851 1167 851 1167 919.5 1088 c 128,-1,16
 988 1009 988 1009 988 876 c 2,17,-1
 988 12 l 1,18,-1
 700 -12 l 1,0,-1
EndSplineSet
EndChar

StartChar: i
Encoding: 105 105 79
Width: 538
GlyphClass: 2
Flags: W
AnchorPoint: "Anchor-1" 270 1 basechar 0
LayerCount: 2
UndoRedoHistory
Layer: 1
Undoes
EndUndoes
Redoes
EndRedoes
EndUndoRedoHistory
Fore
SplineSet
126 -12 m 1,0,-1
 126 1128 l 1,1,-1
 414 1152 l 1,2,-1
 414 12 l 1,3,-1
 126 -12 l 1,0,-1
126 1598 m 1,4,-1
 414 1618 l 1,5,-1
 414 1312 l 1,6,-1
 126 1300 l 1,7,-1
 126 1598 l 1,4,-1
EndSplineSet
EndChar

StartChar: j
Encoding: 106 106 80
Width: 543
GlyphClass: 2
Flags: W
AnchorPoint: "Anchor-1" 676 0 basechar 0
AnchorPoint: "Anchor-0" 700 1536 basechar 0
LayerCount: 2
UndoRedoHistory
Layer: 1
Undoes
EndUndoes
Redoes
EndRedoes
EndUndoRedoHistory
Fore
SplineSet
135 1598 m 1,0,-1
 423 1618 l 1,1,-1
 423 1312 l 1,2,-1
 135 1300 l 1,3,-1
 135 1598 l 1,0,-1
-24 -269 m 1,4,5
 -24 -96 l 1,6,7
 32 -96 32 -96 64 -89 c 128,-1,8
 96 -82 96 -82 111.5 -61.5 c 128,-1,9
 127 -41 127 -41 131 -17 c 128,-1,10
 135 7 135 7 135 54 c 2,11,-1
 135 1128 l 1,12,-1
 423 1152 l 1,13,-1
 423 54 l 2,14,15
 423 -6 423 -6 422.5 -34.5 c 128,-1,16
 422 -63 422 -63 417.5 -107.5 c 128,-1,17
 413 -152 413 -152 403 -172.5 c 128,-1,18
 393 -193 393 -193 375 -220.5 c 128,-1,19
 357 -248 357 -248 330 -259.5 c 128,-1,20
 303 -271 303 -271 262.5 -279.5 c 128,-1,21
 222 -288 222 -288 168 -288 c 0,22,23
 87 -288 87 -288 -24 -269 c 1,4,5
EndSplineSet
EndChar

StartChar: k
Encoding: 107 107 81
Width: 1024
GlyphClass: 2
Flags: W
AnchorPoint: "Anchor-1" 551 -1 basechar 0
AnchorPoint: "Anchor-0" 767 1154 basechar 0
LayerCount: 2
UndoRedoHistory
Layer: 1
Undoes
EndUndoes
Redoes
EndRedoes
EndUndoRedoHistory
Fore
SplineSet
506 546 m 1,0,-1
 412 421 l 1,1,-1
 412 0 l 1,2,-1
 124 0 l 1,3,-1
 124 1500 l 1,4,-1
 412 1536 l 1,5,-1
 412 775 l 1,6,-1
 705 1152 l 1,7,-1
 1016 1152 l 1,8,-1
 692 738 l 1,9,-1
 993 60 l 1,10,-1
 739 -27 l 1,11,-1
 506 546 l 1,0,-1
EndSplineSet
EndChar

StartChar: l
Encoding: 108 108 82
Width: 538
GlyphClass: 2
Flags: W
AnchorPoint: "Anchor-1" 264 0 basechar 0
AnchorPoint: "Anchor-0" 266 1474 basechar 0
LayerCount: 2
UndoRedoHistory
Layer: 1
Undoes
EndUndoes
Redoes
EndRedoes
EndUndoRedoHistory
Fore
SplineSet
126 -12 m 1,0,-1
 126 1500 l 1,1,-1
 414 1536 l 1,2,-1
 414 12 l 1,3,-1
 126 -12 l 1,0,-1
EndSplineSet
EndChar

StartChar: m
Encoding: 109 109 83
Width: 1510
GlyphClass: 2
Flags: W
AnchorPoint: "Anchor-1" 768 0 basechar 0
AnchorPoint: "Anchor-0" 905 1154 basechar 0
LayerCount: 2
UndoRedoHistory
Layer: 1
Undoes
EndUndoes
Redoes
EndRedoes
EndUndoRedoHistory
Fore
SplineSet
1112 -12 m 1,0,-1
 1112 802 l 2,1,2
 1112 857 1112 857 1092 889 c 128,-1,3
 1072 921 1072 921 1044 921 c 0,4,5
 962 921 962 921 900 839 c 1,6,-1
 900 12 l 1,7,-1
 618 -12 l 1,8,-1
 618 804 l 2,9,10
 618 862 618 862 601 891.5 c 128,-1,11
 584 921 584 921 561 921 c 0,12,13
 520 921 520 921 477.5 897 c 128,-1,14
 435 873 435 873 406 839 c 1,15,-1
 406 12 l 1,16,-1
 124 -12 l 1,17,-1
 124 1128 l 1,18,-1
 406 1152 l 1,19,-1
 406 1005 l 1,20,21
 468 1079 468 1079 551 1123 c 128,-1,22
 634 1167 634 1167 717 1167 c 0,23,24
 847 1167 847 1167 887 988 c 1,25,26
 1022 1167 1022 1167 1190 1167 c 0,27,28
 1299 1167 1299 1167 1346.5 1078.5 c 128,-1,29
 1394 990 1394 990 1394 817 c 2,30,-1
 1394 12 l 1,31,-1
 1112 -12 l 1,0,-1
EndSplineSet
EndChar

StartChar: n
Encoding: 110 110 84
Width: 1104
GlyphClass: 2
Flags: W
AnchorPoint: "Anchor-1" 551 0 basechar 0
AnchorPoint: "Anchor-0" 697 1154 basechar 0
LayerCount: 2
UndoRedoHistory
Layer: 1
Undoes
EndUndoes
Redoes
EndRedoes
EndUndoRedoHistory
Fore
SplineSet
700 -12 m 1,0,-1
 700 769 l 2,1,2
 700 922 700 922 595 922 c 0,3,4
 571 922 571 922 536.5 908.5 c 128,-1,5
 502 895 502 895 480.5 882.5 c 128,-1,6
 459 870 459 870 412 842 c 1,7,-1
 412 12 l 1,8,-1
 124 -12 l 1,9,-1
 124 1128 l 1,10,-1
 412 1152 l 1,11,-1
 412 1005 l 1,12,13
 598 1167 598 1167 742 1167 c 0,14,15
 851 1167 851 1167 919.5 1088 c 128,-1,16
 988 1009 988 1009 988 876 c 2,17,-1
 988 12 l 1,18,-1
 700 -12 l 1,0,-1
EndSplineSet
EndChar

StartChar: o
Encoding: 111 111 85
Width: 1004
GlyphClass: 2
Flags: W
AnchorPoint: "Anchor-2" 486 0 basechar 0
AnchorPoint: "Anchor-1" 476 0 basechar 0
AnchorPoint: "Anchor-0" 502 1154 basechar 0
LayerCount: 2
UndoRedoHistory
Layer: 1
Undoes
EndUndoes
Redoes
EndRedoes
EndUndoRedoHistory
Fore
SplineSet
500 187 m 0,0,1
 534 187 534 187 560 205 c 128,-1,2
 586 223 586 223 601 258 c 128,-1,3
 616 293 616 293 625.5 327.5 c 128,-1,4
 635 362 635 362 639 413.5 c 128,-1,5
 643 465 643 465 644 497 c 128,-1,6
 645 529 645 529 645 577 c 0,7,8
 645 623 645 623 644 655 c 128,-1,9
 643 687 643 687 639 738 c 128,-1,10
 635 789 635 789 625.5 823.5 c 128,-1,11
 616 858 616 858 601 893 c 128,-1,12
 586 928 586 928 560.5 946 c 128,-1,13
 535 964 535 964 501 964 c 0,14,15
 475 964 475 964 453.5 954 c 128,-1,16
 432 944 432 944 417.5 922.5 c 128,-1,17
 403 901 403 901 392.5 879 c 128,-1,18
 382 857 382 857 375.5 821.5 c 128,-1,19
 369 786 369 786 365 761.5 c 128,-1,20
 361 737 361 737 360 695.5 c 128,-1,21
 359 654 359 654 358.5 634.5 c 128,-1,22
 358 615 358 615 358 577 c 0,23,24
 358 538 358 538 358.5 518 c 128,-1,25
 359 498 359 498 360 456.5 c 128,-1,26
 361 415 361 415 365 390 c 128,-1,27
 369 365 369 365 375.5 329 c 128,-1,28
 382 293 382 293 392.5 271.5 c 128,-1,29
 403 250 403 250 417.5 228.5 c 128,-1,30
 432 207 432 207 453 197 c 128,-1,31
 474 187 474 187 500 187 c 0,0,1
502 -27 m 0,32,33
 361 -27 361 -27 262.5 50.5 c 128,-1,34
 164 128 164 128 117 262 c 128,-1,35
 70 396 70 396 70 577 c 0,36,37
 70 752 70 752 117 883 c 128,-1,38
 164 1014 164 1014 263 1090.5 c 128,-1,39
 362 1167 362 1167 502 1167 c 0,40,41
 639 1167 639 1167 738 1091 c 128,-1,42
 837 1015 837 1015 885.5 883 c 128,-1,43
 934 751 934 751 934 577 c 0,44,45
 934 303 934 303 821 138 c 128,-1,46
 708 -27 708 -27 502 -27 c 0,32,33
EndSplineSet
EndChar

StartChar: p
Encoding: 112 112 86
Width: 1034
GlyphClass: 2
Flags: W
AnchorPoint: "Anchor-1" 636 0 basechar 0
AnchorPoint: "Anchor-0" 602 1154 basechar 0
LayerCount: 2
UndoRedoHistory
Layer: 1
Undoes
EndUndoes
Redoes
EndRedoes
EndUndoRedoHistory
Fore
SplineSet
535 960 m 0,0,1
 465 960 465 960 412 880 c 1,2,-1
 412 285 l 1,3,4
 455 193 455 193 537 193 c 0,5,6
 569 193 569 193 592 208.5 c 128,-1,7
 615 224 615 224 634 264.5 c 128,-1,8
 653 305 653 305 662.5 382.5 c 128,-1,9
 672 460 672 460 672 576 c 0,10,11
 672 718 672 718 656 803.5 c 128,-1,12
 640 889 640 889 610.5 924.5 c 128,-1,13
 581 960 581 960 535 960 c 0,0,1
124 -358 m 1,14,-1
 124 1128 l 1,15,-1
 412 1152 l 1,16,-1
 412 1041 l 1,17,18
 538 1167 538 1167 656 1167 c 0,19,20
 708 1167 708 1167 751 1154 c 0,21,22
 916 1105 916 1105 949 855 c 0,23,24
 960 775 960 775 960 576 c 0,25,26
 960 529 960 529 959.5 497.5 c 128,-1,27
 959 466 959 466 955.5 413 c 128,-1,28
 952 360 952 360 946.5 322.5 c 128,-1,29
 941 285 941 285 929.5 236 c 128,-1,30
 918 187 918 187 902 152.5 c 128,-1,31
 886 118 886 118 861 82 c 128,-1,32
 836 46 836 46 804.5 23.5 c 128,-1,33
 773 1 773 1 729.5 -13 c 128,-1,34
 686 -27 686 -27 634 -27 c 0,35,36
 491 -27 491 -27 412 99 c 1,37,-1
 412 -302 l 1,38,-1
 124 -358 l 1,14,-1
EndSplineSet
EndChar

StartChar: q
Encoding: 113 113 87
Width: 1014
GlyphClass: 2
Flags: W
LayerCount: 2
UndoRedoHistory
Layer: 1
Undoes
EndUndoes
Redoes
EndRedoes
EndUndoRedoHistory
Fore
SplineSet
499 960 m 0,0,1
 480 960 480 960 463.5 954 c 128,-1,2
 447 948 447 948 433 934.5 c 128,-1,3
 419 921 419 921 408 899.5 c 128,-1,4
 397 878 397 878 388 848 c 128,-1,5
 379 818 379 818 373.5 778 c 128,-1,6
 368 738 368 738 365 687.5 c 128,-1,7
 362 637 362 637 362 576 c 0,8,9
 362 460 362 460 370.5 382.5 c 128,-1,10
 379 305 379 305 395 264.5 c 128,-1,11
 411 224 411 224 430.5 208.5 c 128,-1,12
 450 193 450 193 477 193 c 0,13,14
 559 193 559 193 602 285 c 1,15,-1
 602 880 l 1,16,17
 559 960 559 960 499 960 c 0,0,1
890 1152 m 1,18,-1
 890 -322 l 1,19,-1
 602 -358 l 1,20,-1
 602 99 l 1,21,22
 523 -27 523 -27 380 -27 c 0,23,24
 318 -27 318 -27 269 -4 c 128,-1,25
 220 19 220 19 188.5 53 c 128,-1,26
 157 87 157 87 134.5 142.5 c 128,-1,27
 112 198 112 198 100.5 246 c 128,-1,28
 89 294 89 294 82.5 362.5 c 128,-1,29
 76 431 76 431 75 473 c 128,-1,30
 74 515 74 515 74 576 c 0,31,32
 74 623 74 623 75 659 c 128,-1,33
 76 695 76 695 79.5 745 c 128,-1,34
 83 795 83 795 89 834 c 128,-1,35
 95 873 95 873 106.5 918.5 c 128,-1,36
 118 964 118 964 134 998 c 128,-1,37
 150 1032 150 1032 174 1065.5 c 128,-1,38
 198 1099 198 1099 228 1120 c 128,-1,39
 258 1141 258 1141 298.5 1154 c 128,-1,40
 339 1167 339 1167 388 1167 c 0,41,42
 458 1167 458 1167 512.5 1133 c 128,-1,43
 567 1099 567 1099 602 1041 c 1,44,-1
 613 1128 l 1,45,-1
 890 1152 l 1,18,-1
EndSplineSet
EndChar

StartChar: r
Encoding: 114 114 88
Width: 828
GlyphClass: 2
Flags: W
AnchorPoint: "Anchor-1" 274 -3 basechar 0
AnchorPoint: "Anchor-0" 487 1154 basechar 0
LayerCount: 2
UndoRedoHistory
Layer: 1
Undoes
EndUndoes
Redoes
EndRedoes
EndUndoRedoHistory
Fore
SplineSet
124 -12 m 1,0,-1
 124 1128 l 1,1,-1
 412 1152 l 1,2,-1
 412 967 l 1,3,4
 548 1163 548 1163 796 1163 c 1,5,-1
 796 882 l 1,6,7
 770 882 770 882 729.5 877.5 c 128,-1,8
 689 873 689 873 630 862 c 128,-1,9
 571 851 571 851 511 826.5 c 128,-1,10
 451 802 451 802 412 768 c 1,11,-1
 412 12 l 1,12,-1
 124 -12 l 1,0,-1
EndSplineSet
EndChar

StartChar: s
Encoding: 115 115 89
Width: 923
GlyphClass: 2
Flags: W
AnchorPoint: "Anchor-1" 480 0 basechar 0
AnchorPoint: "Anchor-0" 456 1154 basechar 0
LayerCount: 2
UndoRedoHistory
Layer: 1
Undoes
EndUndoes
Redoes
EndRedoes
EndUndoRedoHistory
Fore
SplineSet
60 265 m 1,0,1
 282 337 l 1,2,3
 291 297 291 297 313 268 c 1,4,5
 360 200 360 200 450 200 c 0,6,7
 481 200 481 200 512 208 c 128,-1,8
 543 216 543 216 569 238 c 128,-1,9
 595 260 595 260 595 293 c 0,10,11
 595 357 595 357 508 392 c 2,12,-1
 267 490 l 2,13,14
 170 529 170 529 118.5 612 c 128,-1,15
 67 695 67 695 67 814 c 0,16,17
 67 924 67 924 123.5 1006 c 128,-1,18
 180 1088 180 1088 267 1127.5 c 128,-1,19
 354 1167 354 1167 456 1167 c 0,20,21
 586 1167 586 1167 694 1093 c 128,-1,22
 802 1019 802 1019 839 889 c 1,23,-1
 603 816 l 1,24,25
 592 854 592 854 573 885 c 1,26,27
 528 954 528 954 458 954 c 0,28,29
 408 954 408 954 371 930.5 c 128,-1,30
 334 907 334 907 334 862 c 0,31,32
 334 808 334 808 434 764 c 1,33,-1
 639 679 l 1,34,35
 748 629 748 629 809.5 551 c 128,-1,36
 871 473 871 473 871 342 c 0,37,38
 871 253 871 253 836 181 c 128,-1,39
 801 109 801 109 743.5 64.5 c 128,-1,40
 686 20 686 20 615.5 -3.5 c 128,-1,41
 545 -27 545 -27 469 -27 c 0,42,43
 298 -27 298 -27 194.5 50 c 128,-1,44
 91 127 91 127 60 265 c 1,0,1
EndSplineSet
EndChar

StartChar: t
Encoding: 116 116 90
Width: 738
GlyphClass: 2
Flags: W
AnchorPoint: "Anchor-1" 467 0 basechar 0
AnchorPoint: "Anchor-0" 370 1266 basechar 0
LayerCount: 2
UndoRedoHistory
Layer: 1
Undoes
EndUndoes
Redoes
EndRedoes
EndUndoRedoHistory
Fore
SplineSet
38 1152 m 1,0,-1
 195 1152 l 1,1,-1
 224 1402 l 1,2,-1
 474 1438 l 1,3,-1
 474 1152 l 1,4,-1
 710 1152 l 1,5,-1
 698 936 l 1,6,-1
 475 936 l 1,7,-1
 475 301 l 2,8,9
 475 239 475 239 505.5 213 c 128,-1,10
 536 187 536 187 595 187 c 0,11,12
 638 187 638 187 707 199 c 1,13,-1
 707 1 l 1,14,15
 606 -22 606 -22 518 -22 c 0,16,17
 468 -22 468 -22 424.5 -14.5 c 128,-1,18
 381 -7 381 -7 336 14.5 c 128,-1,19
 291 36 291 36 259.5 70.5 c 128,-1,20
 228 105 228 105 207.5 163.5 c 128,-1,21
 187 222 187 222 187 299 c 2,22,-1
 187 936 l 1,23,-1
 26 936 l 1,24,-1
 38 1152 l 1,0,-1
EndSplineSet
EndChar

StartChar: u
Encoding: 117 117 91
Width: 1104
GlyphClass: 2
Flags: W
AnchorPoint: "Anchor-2" 754 0 basechar 0
AnchorPoint: "Anchor-1" 569 0 basechar 0
AnchorPoint: "Anchor-0" 550 1154 basechar 0
LayerCount: 2
UndoRedoHistory
Layer: 1
Undoes
EndUndoes
Redoes
EndRedoes
EndUndoRedoHistory
Fore
SplineSet
404 1152 m 1,0,-1
 404 381 l 2,1,2
 404 299 404 299 430.5 263.5 c 128,-1,3
 457 228 457 228 512 228 c 0,4,5
 616 228 616 228 692 318 c 1,6,-1
 692 1128 l 1,7,-1
 980 1152 l 1,8,-1
 980 12 l 1,9,-1
 692 -12 l 1,10,-1
 692 135 l 1,11,12
 621 54 621 54 535.5 13.5 c 128,-1,13
 450 -27 450 -27 372 -27 c 0,14,15
 259 -27 259 -27 187.5 52 c 128,-1,16
 116 131 116 131 116 264 c 2,17,-1
 116 1128 l 1,18,-1
 404 1152 l 1,0,-1
EndSplineSet
EndChar

StartChar: v
Encoding: 118 118 92
Width: 932
GlyphClass: 2
Flags: W
LayerCount: 2
UndoRedoHistory
Layer: 1
Undoes
EndUndoes
Redoes
EndRedoes
EndUndoRedoHistory
Fore
SplineSet
329 0 m 1,0,-1
 9 1128 l 1,1,-1
 352 1152 l 1,2,-1
 497 415 l 1,3,-1
 663 1116 l 1,4,-1
 924 1140 l 1,5,-1
 594 0 l 1,6,-1
 329 0 l 1,0,-1
EndSplineSet
EndChar

StartChar: w
Encoding: 119 119 93
Width: 1315
GlyphClass: 2
Flags: W
AnchorPoint: "Anchor-1" 667 0 basechar 0
AnchorPoint: "Anchor-0" 707 1154 basechar 0
LayerCount: 2
UndoRedoHistory
Layer: 1
Undoes
EndUndoes
Redoes
EndRedoes
EndUndoRedoHistory
Fore
SplineSet
801 0 m 1,0,-1
 670 747 l 1,1,-1
 508 0 l 1,2,-1
 273 0 l 1,3,-1
 36 1130 l 1,4,-1
 329 1152 l 1,5,-1
 428 500 l 1,6,-1
 573 1128 l 1,7,-1
 813 1152 l 1,8,-1
 937 508 l 1,9,-1
 1062 1128 l 1,10,-1
 1296 1140 l 1,11,-1
 1032 0 l 1,12,-1
 801 0 l 1,0,-1
EndSplineSet
EndChar

StartChar: x
Encoding: 120 120 94
Width: 941
GlyphClass: 2
Flags: W
LayerCount: 2
UndoRedoHistory
Layer: 1
Undoes
EndUndoes
Redoes
EndRedoes
EndUndoRedoHistory
Fore
SplineSet
630 -12 m 1,0,-1
 460 339 l 1,1,-1
 284 0 l 1,2,-1
 10 0 l 1,3,-1
 321 579 l 1,4,-1
 21 1152 l 1,5,-1
 335 1152 l 1,6,-1
 474 870 l 1,7,-1
 620 1152 l 1,8,-1
 892 1152 l 1,9,-1
 615 634 l 1,10,-1
 947 12 l 1,11,-1
 630 -12 l 1,0,-1
EndSplineSet
EndChar

StartChar: y
Encoding: 121 121 95
Width: 901
GlyphClass: 2
Flags: W
AnchorPoint: "Anchor-0" 459 1154 basechar 0
LayerCount: 2
UndoRedoHistory
Layer: 1
Undoes
EndUndoes
Redoes
EndRedoes
EndUndoRedoHistory
Fore
SplineSet
30 -353 m 1,0,-1
 30 -113 l 1,1,-1
 80 -115 l 2,2,3
 134 -117 134 -117 149 -117 c 0,4,5
 331 -117 331 -117 331 52 c 2,6,-1
 331 108 l 1,7,-1
 2 1138 l 1,8,-1
 314 1152 l 1,9,-1
 476 431 l 1,10,-1
 629 1146 l 1,11,-1
 889 1148 l 1,12,-1
 594 21 l 1,13,14
 566 -76 566 -76 524.5 -148 c 128,-1,15
 483 -220 483 -220 440 -260.5 c 128,-1,16
 397 -301 397 -301 343.5 -325.5 c 128,-1,17
 290 -350 290 -350 246 -357.5 c 128,-1,18
 202 -365 202 -365 151 -365 c 0,19,20
 115 -365 115 -365 69 -359 c 1,21,-1
 30 -353 l 1,0,-1
EndSplineSet
EndChar

StartChar: z
Encoding: 122 122 96
Width: 870
GlyphClass: 2
Flags: W
AnchorPoint: "Anchor-1" 422 0 basechar 0
AnchorPoint: "Anchor-0" 359 1154 basechar 0
LayerCount: 2
UndoRedoHistory
Layer: 1
Undoes
EndUndoes
Redoes
EndRedoes
EndUndoRedoHistory
Fore
SplineSet
415 227 m 1,0,-1
 827 227 l 1,1,-1
 803 0 l 1,2,-1
 90 0 l 1,3,-1
 90 181 l 1,4,-1
 478 928 l 1,5,-1
 107 928 l 1,6,-1
 131 1152 l 1,7,-1
 796 1152 l 1,8,-1
 796 982 l 1,9,-1
 415 227 l 1,0,-1
EndSplineSet
EndChar

StartChar: braceleft
Encoding: 123 123 97
Width: 674
GlyphClass: 2
Flags: W
LayerCount: 2
UndoRedoHistory
Layer: 1
Undoes
EndUndoes
Redoes
EndRedoes
EndUndoRedoHistory
Fore
SplineSet
141 551 m 0,0,1
 141 577 141 577 140.5 591 c 128,-1,2
 140 605 140 605 135 627.5 c 128,-1,3
 130 650 130 650 120.5 662 c 128,-1,4
 111 674 111 674 92 683.5 c 128,-1,5
 73 693 73 693 45 693 c 1,6,-1
 45 882 l 1,7,8
 73 882 73 882 92 891.5 c 128,-1,9
 111 901 111 901 120.5 913 c 128,-1,10
 130 925 130 925 135 947.5 c 128,-1,11
 140 970 140 970 140.5 984 c 128,-1,12
 141 998 141 998 141 1024 c 0,13,14
 141 1179 141 1179 162.5 1286 c 128,-1,15
 184 1393 184 1393 237 1474 c 128,-1,16
 290 1555 290 1555 384.5 1593.5 c 128,-1,17
 479 1632 479 1632 621 1632 c 1,18,-1
 621 1470 l 1,19,20
 573 1470 573 1470 540 1460 c 128,-1,21
 507 1450 507 1450 486 1419.5 c 128,-1,22
 465 1389 465 1389 453 1362.5 c 128,-1,23
 441 1336 441 1336 436 1272 c 128,-1,24
 431 1208 431 1208 430 1164 c 128,-1,25
 429 1120 429 1120 429 1024 c 0,26,27
 429 997 429 997 428 982.5 c 128,-1,28
 427 968 427 968 422 942.5 c 128,-1,29
 417 917 417 917 405 899.5 c 128,-1,30
 393 882 393 882 372.5 861 c 128,-1,31
 352 840 352 840 317.5 821.5 c 128,-1,32
 283 803 283 803 237 787 c 1,33,34
 277 774 277 774 308 757.5 c 128,-1,35
 339 741 339 741 359 726.5 c 128,-1,36
 379 712 379 712 393 692 c 128,-1,37
 407 672 407 672 414 658 c 128,-1,38
 421 644 421 644 424.5 621.5 c 128,-1,39
 428 599 428 599 428.5 586.5 c 128,-1,40
 429 574 429 574 429 551 c 0,41,42
 429 448 429 448 430 401.5 c 128,-1,43
 431 355 431 355 436 286.5 c 128,-1,44
 441 218 441 218 453 189.5 c 128,-1,45
 465 161 465 161 486 128.5 c 128,-1,46
 507 96 507 96 540 85.5 c 128,-1,47
 573 75 573 75 621 75 c 1,48,-1
 621 -87 l 1,49,50
 507 -87 507 -87 423.5 -59.5 c 128,-1,51
 340 -32 340 -32 286 18.5 c 128,-1,52
 232 69 232 69 199.5 149.5 c 128,-1,53
 167 230 167 230 154 326 c 128,-1,54
 141 422 141 422 141 551 c 0,0,1
EndSplineSet
EndChar

StartChar: bar
Encoding: 124 124 98
Width: 582
GlyphClass: 2
Flags: W
LayerCount: 2
UndoRedoHistory
Layer: 1
Undoes
EndUndoes
Redoes
EndRedoes
EndUndoRedoHistory
Fore
SplineSet
141 -96 m 1,0,-1
 141 1632 l 1,1,-1
 441 1632 l 1,2,-1
 441 -96 l 1,3,-1
 141 -96 l 1,0,-1
EndSplineSet
EndChar

StartChar: braceright
Encoding: 125 125 99
Width: 673
GlyphClass: 2
Flags: W
LayerCount: 2
UndoRedoHistory
Layer: 1
Undoes
EndUndoes
Redoes
EndRedoes
EndUndoRedoHistory
Fore
SplineSet
532 551 m 0,0,1
 532 422 532 422 519 326 c 128,-1,2
 506 230 506 230 473.5 149.5 c 128,-1,3
 441 69 441 69 387 18.5 c 128,-1,4
 333 -32 333 -32 249.5 -59.5 c 128,-1,5
 166 -87 166 -87 52 -87 c 1,6,-1
 52 75 l 1,7,8
 100 75 100 75 133 85.5 c 128,-1,9
 166 96 166 96 187 128.5 c 128,-1,10
 208 161 208 161 220 189.5 c 128,-1,11
 232 218 232 218 237 286.5 c 128,-1,12
 242 355 242 355 243 401.5 c 128,-1,13
 244 448 244 448 244 551 c 0,14,15
 244 574 244 574 244.5 586.5 c 128,-1,16
 245 599 245 599 248.5 621.5 c 128,-1,17
 252 644 252 644 259 658 c 128,-1,18
 266 672 266 672 280 692 c 128,-1,19
 294 712 294 712 314 726.5 c 128,-1,20
 334 741 334 741 365 757.5 c 128,-1,21
 396 774 396 774 436 787 c 1,22,23
 390 803 390 803 355.5 821.5 c 128,-1,24
 321 840 321 840 300.5 861 c 128,-1,25
 280 882 280 882 268 899.5 c 128,-1,26
 256 917 256 917 251 942.5 c 128,-1,27
 246 968 246 968 245 982.5 c 128,-1,28
 244 997 244 997 244 1024 c 0,29,30
 244 1120 244 1120 243 1164 c 128,-1,31
 242 1208 242 1208 237 1272 c 128,-1,32
 232 1336 232 1336 220 1362.5 c 128,-1,33
 208 1389 208 1389 187 1419.5 c 128,-1,34
 166 1450 166 1450 133 1460 c 128,-1,35
 100 1470 100 1470 52 1470 c 1,36,-1
 52 1632 l 1,37,38
 194 1632 194 1632 288.5 1593.5 c 128,-1,39
 383 1555 383 1555 436 1474 c 128,-1,40
 489 1393 489 1393 510.5 1286 c 128,-1,41
 532 1179 532 1179 532 1024 c 0,42,43
 532 998 532 998 532.5 984 c 128,-1,44
 533 970 533 970 538 947.5 c 128,-1,45
 543 925 543 925 552.5 913 c 128,-1,46
 562 901 562 901 581 891.5 c 128,-1,47
 600 882 600 882 628 882 c 1,48,-1
 628 693 l 1,49,50
 600 693 600 693 581 683.5 c 128,-1,51
 562 674 562 674 552.5 662 c 128,-1,52
 543 650 543 650 538 627.5 c 128,-1,53
 533 605 533 605 532.5 591 c 128,-1,54
 532 577 532 577 532 551 c 0,0,1
EndSplineSet
EndChar

StartChar: asciitilde
Encoding: 126 126 100
Width: 815
GlyphClass: 2
Flags: W
LayerCount: 2
UndoRedoHistory
Layer: 1
Undoes
EndUndoes
Redoes
EndRedoes
EndUndoRedoHistory
Fore
SplineSet
91 768 m 1,0,1
 92 932 l 1,2,3
 127 973 127 973 161 1003 c 0,4,5
 244 1074 244 1074 305 1074 c 0,6,7
 348 1074 348 1074 391 1046.5 c 128,-1,8
 434 1019 434 1019 473 991.5 c 128,-1,9
 512 964 512 964 546 964 c 0,10,11
 630 964 630 964 687 1019 c 0,12,13
 713 1043 713 1043 729 1074 c 1,14,-1
 729 892 l 2,15,16
 729 890 729 890 721 876.5 c 128,-1,17
 713 863 713 863 696 842.5 c 128,-1,18
 679 822 679 822 657.5 803 c 128,-1,19
 636 784 636 784 604 770.5 c 128,-1,20
 572 757 572 757 538 757 c 0,21,22
 508 757 508 757 475.5 776 c 128,-1,23
 443 795 443 795 418 817.5 c 128,-1,24
 393 840 393 840 357 859 c 128,-1,25
 321 878 321 878 284 878 c 0,26,27
 224 878 224 878 151 823 c 1,28,29
 117 796 117 796 91 768 c 1,0,1
EndSplineSet
EndChar

StartChar: exclamdown
Encoding: 161 161 102
Width: 542
GlyphClass: 2
Flags: W
LayerCount: 2
UndoRedoHistory
Layer: 1
Undoes
EndUndoes
Redoes
EndRedoes
EndUndoRedoHistory
Fore
SplineSet
127 1536 m 1,0,-1
 415 1524 l 1,1,-1
 415 1224 l 1,2,-1
 127 1224 l 1,3,-1
 127 1536 l 1,0,-1
127 -12 m 1,4,-1
 176 1076 l 1,5,-1
 368 1076 l 1,6,-1
 415 -12 l 1,7,-1
 127 -12 l 1,4,-1
EndSplineSet
EndChar

StartChar: cent
Encoding: 162 162 103
Width: 983
GlyphClass: 2
Flags: W
LayerCount: 2
UndoRedoHistory
Layer: 1
Undoes
EndUndoes
Redoes
EndRedoes
EndUndoRedoHistory
Fore
SplineSet
341 576 m 0,0,1
 341 541 341 541 341.5 519.5 c 128,-1,2
 342 498 342 498 347 452.5 c 128,-1,3
 352 407 352 407 361.5 375.5 c 128,-1,4
 371 344 371 344 391 308.5 c 128,-1,5
 411 273 411 273 439 252 c 1,6,-1
 439 920 l 1,7,8
 411 902 411 902 391 866 c 128,-1,9
 371 830 371 830 361.5 796 c 128,-1,10
 352 762 352 762 347 712 c 128,-1,11
 342 662 342 662 341.5 638 c 128,-1,12
 341 614 341 614 341 576 c 0,0,1
439 -192 m 1,13,-1
 439 -16 l 1,14,15
 344 3 344 3 269 58.5 c 128,-1,16
 194 114 194 114 147.5 193.5 c 128,-1,17
 101 273 101 273 76.5 368 c 128,-1,18
 52 463 52 463 52 566 c 0,19,20
 52 672 52 672 75.5 770.5 c 128,-1,21
 99 869 99 869 144.5 953 c 128,-1,22
 190 1037 190 1037 266 1093 c 128,-1,23
 342 1149 342 1149 439 1162 c 1,24,-1
 439 1344 l 1,25,-1
 578 1344 l 1,26,-1
 578 1161 l 1,27,28
 732 1137 732 1137 827 1027 c 128,-1,29
 922 917 922 917 928 754 c 1,30,-1
 655 742 l 1,31,32
 649 780 649 780 644 803.5 c 128,-1,33
 639 827 639 827 621.5 863.5 c 128,-1,34
 604 900 604 900 578 918 c 1,35,-1
 578 218 l 1,36,37
 640 231 640 231 667 334 c 1,38,39
 678 380 678 380 681 432 c 1,40,-1
 921 405 l 1,41,42
 908 307 908 307 887 236 c 128,-1,43
 866 165 866 165 827.5 105.5 c 128,-1,44
 789 46 789 46 727 13.5 c 128,-1,45
 665 -19 665 -19 578 -25 c 1,46,-1
 578 -192 l 1,47,-1
 439 -192 l 1,13,-1
EndSplineSet
EndChar

StartChar: sterling
Encoding: 163 163 104
Width: 914
GlyphClass: 2
Flags: W
LayerCount: 2
UndoRedoHistory
Layer: 1
Undoes
EndUndoes
Redoes
EndRedoes
EndUndoRedoHistory
Fore
SplineSet
843 10 m 1,0,-1
 801 -2 l 1,1,2
 741 57 741 57 684 77 c 128,-1,3
 627 97 627 97 563 97 c 0,4,5
 496 97 496 97 427 69.5 c 128,-1,6
 358 42 358 42 302.5 15 c 128,-1,7
 247 -12 247 -12 211 -12 c 0,8,9
 164 -12 164 -12 126 12 c 0,10,11
 108 23 108 23 97 36 c 1,12,-1
 97 226 l 1,13,14
 246 274 246 274 246 591 c 0,15,16
 246 612 246 612 244 636 c 1,17,-1
 105 636 l 1,18,-1
 105 827 l 1,19,-1
 205 827 l 1,20,21
 174 937 174 937 144 1035 c 0,22,23
 110 1144 110 1144 110 1199 c 0,24,25
 110 1281 110 1281 142.5 1351.5 c 128,-1,26
 175 1422 175 1422 228.5 1467.5 c 128,-1,27
 282 1513 282 1513 348 1538.5 c 128,-1,28
 414 1564 414 1564 482 1564 c 0,29,30
 621 1564 621 1564 724.5 1480.5 c 128,-1,31
 828 1397 828 1397 851 1233 c 1,32,-1
 619 1145 l 1,33,34
 619 1237 619 1237 585.5 1284 c 128,-1,35
 552 1331 552 1331 496 1331 c 0,36,37
 455 1331 455 1331 429.5 1293.5 c 128,-1,38
 404 1256 404 1256 404 1179 c 0,39,40
 404 1116 404 1116 427.5 1042.5 c 128,-1,41
 451 969 451 969 479 912 c 0,42,43
 498 874 498 874 514 827 c 1,44,-1
 701 827 l 1,45,-1
 701 636 l 1,46,-1
 554 636 l 1,47,48
 554 634 554 634 554 632 c 0,49,50
 554 470 554 470 435 288 c 1,51,52
 503 322 503 322 576 322 c 0,53,54
 700 322 700 322 843 231 c 1,55,-1
 843 10 l 1,0,-1
EndSplineSet
EndChar

StartChar: currency
Encoding: 164 164 105
Width: 1213
GlyphClass: 2
Flags: W
LayerCount: 2
UndoRedoHistory
Layer: 1
Undoes
EndUndoes
Redoes
EndRedoes
EndUndoRedoHistory
Fore
SplineSet
607 698 m 128,-1,1
 798 698 798 698 798 912 c 0,2,3
 798 1127 798 1127 607 1127 c 128,-1,4
 416 1127 416 1127 416 912 c 0,5,0
 416 698 416 698 607 698 c 128,-1,1
321 568 m 1,6,7
 183 447 l 1,8,-1
 88 556 l 1,9,-1
 228 679 l 1,10,11
 176 779 176 779 176 912 c 0,12,13
 176 1053 176 1053 232 1151 c 1,14,-1
 88 1278 l 1,15,-1
 183 1387 l 1,16,-1
 326 1261 l 1,17,18
 435 1343 435 1343 608 1343 c 0,19,20
 779 1343 779 1343 889 1260 c 1,21,-1
 1033 1387 l 1,22,-1
 1128 1278 l 1,23,-1
 983 1150 l 1,24,25
 1038 1049 1038 1049 1038 912 c 0,26,27
 1038 780 1038 780 986 680 c 1,28,-1
 1128 556 l 1,29,-1
 1033 447 l 1,30,-1
 894 569 l 1,31,32
 784 482 784 482 606 482 c 0,33,34
 429 482 429 482 321 568 c 1,6,7
EndSplineSet
EndChar

StartChar: yen
Encoding: 165 165 106
Width: 1096
GlyphClass: 2
Flags: W
LayerCount: 2
UndoRedoHistory
Layer: 1
Undoes
EndUndoes
Redoes
EndRedoes
EndUndoRedoHistory
Fore
SplineSet
404 0 m 1,0,-1
 404 608 l 1,1,-1
 34 1536 l 1,2,-1
 364 1536 l 1,3,-1
 575 896 l 1,4,-1
 803 1536 l 1,5,-1
 1062 1536 l 1,6,-1
 707 643 l 1,7,-1
 707 0 l 1,8,-1
 404 0 l 1,0,-1
EndSplineSet
EndChar

StartChar: brokenbar
Encoding: 166 166 107
Width: 590
GlyphClass: 2
Flags: W
LayerCount: 2
UndoRedoHistory
Layer: 1
Undoes
EndUndoes
Redoes
EndRedoes
EndUndoRedoHistory
Fore
SplineSet
145 960 m 1,0,-1
 145 1632 l 1,1,-1
 445 1632 l 1,2,-1
 445 960 l 1,3,-1
 145 960 l 1,0,-1
145 -96 m 1,4,-1
 145 576 l 1,5,-1
 445 576 l 1,6,-1
 445 -96 l 1,7,-1
 145 -96 l 1,4,-1
EndSplineSet
EndChar

StartChar: section
Encoding: 167 167 108
Width: 984
GlyphClass: 2
Flags: W
LayerCount: 2
UndoRedoHistory
Layer: 1
Undoes
EndUndoes
Redoes
EndRedoes
EndUndoRedoHistory
Fore
SplineSet
357 827 m 0,0,1
 357 758 357 758 457 709 c 1,2,-1
 590 654 l 1,3,4
 628 682 628 682 628 724 c 0,5,6
 628 788 628 788 541 823 c 2,7,-1
 380 888 l 1,8,9
 357 861 357 861 357 827 c 0,0,1
83 240 m 1,10,11
 305 312 l 1,12,13
 314 272 314 272 336 243 c 1,14,15
 383 175 383 175 473 175 c 0,16,17
 504 175 504 175 535 183 c 128,-1,18
 566 191 566 191 592 213 c 128,-1,19
 618 235 618 235 618 268 c 0,20,21
 618 332 618 332 531 367 c 2,22,-1
 290 465 l 1,23,24
 193 503 193 503 141.5 583 c 128,-1,25
 90 663 90 663 90 779 c 0,26,27
 90 911 90 911 173 1007 c 1,28,29
 100 1090 100 1090 100 1225 c 0,30,31
 100 1332 100 1332 156.5 1412 c 128,-1,32
 213 1492 213 1492 300 1530 c 128,-1,33
 387 1568 387 1568 489 1568 c 0,34,35
 619 1568 619 1568 727 1496.5 c 128,-1,36
 835 1425 835 1425 872 1300 c 1,37,38
 636 1227 l 1,39,40
 626 1264 626 1264 606 1296 c 0,41,42
 561 1365 561 1365 491 1365 c 0,43,44
 441 1365 441 1365 404 1341.5 c 128,-1,45
 367 1318 367 1318 367 1273 c 0,46,47
 367 1240 367 1240 399 1214 c 128,-1,48
 431 1188 431 1188 467 1175 c 1,49,-1
 672 1090 l 2,50,51
 780 1045 780 1045 842 970 c 128,-1,52
 904 895 904 895 904 773 c 0,53,54
 904 628 904 628 812 529 c 1,55,56
 894 447 894 447 894 317 c 0,57,58
 894 233 894 233 859 165 c 128,-1,59
 824 97 824 97 766.5 55 c 128,-1,60
 709 13 709 13 638 -9.5 c 128,-1,61
 567 -32 567 -32 492 -32 c 0,62,63
 321 -32 321 -32 217.5 40 c 128,-1,64
 114 112 114 112 83 240 c 1,10,11
EndSplineSet
EndChar

StartChar: dieresis
Encoding: 168 168 109
Width: 1091
GlyphClass: 4
Flags: W
AnchorPoint: "Anchor-0" 513 1096 mark 0
LayerCount: 2
UndoRedoHistory
Layer: 1
Undoes
EndUndoes
Redoes
EndRedoes
EndUndoRedoHistory
Fore
SplineSet
642 1536 m 1,0,-1
 930 1536 l 1,1,-1
 930 1248 l 1,2,-1
 642 1248 l 1,3,-1
 642 1536 l 1,0,-1
162 1536 m 1,4,-1
 450 1536 l 1,5,-1
 450 1248 l 1,6,-1
 162 1248 l 1,7,-1
 162 1536 l 1,4,-1
EndSplineSet
EndChar

StartChar: copyright
Encoding: 169 169 110
Width: 1397
GlyphClass: 2
Flags: W
LayerCount: 2
UndoRedoHistory
Layer: 1
Undoes
EndUndoes
Redoes
EndRedoes
EndUndoRedoHistory
Fore
SplineSet
54 673 m 128,-1,1
 54 810 54 810 105 934.5 c 128,-1,2
 156 1059 156 1059 242.5 1149 c 128,-1,3
 329 1239 329 1239 448.5 1292.5 c 128,-1,4
 568 1346 568 1346 699 1346 c 0,5,6
 873 1346 873 1346 1021.5 1256 c 128,-1,7
 1170 1166 1170 1166 1256.5 1011 c 128,-1,8
 1343 856 1343 856 1343 673 c 128,-1,9
 1343 490 1343 490 1256.5 335 c 128,-1,10
 1170 180 1170 180 1021.5 90 c 128,-1,11
 873 0 873 0 699 0 c 0,12,13
 568 0 568 0 448.5 53.5 c 128,-1,14
 329 107 329 107 242.5 197 c 128,-1,15
 156 287 156 287 105 411.5 c 128,-1,0
 54 536 54 536 54 673 c 128,-1,1
187 673 m 128,-1,17
 187 563 187 563 227.5 463 c 128,-1,18
 268 363 268 363 337 290.5 c 128,-1,19
 406 218 406 218 500.5 175.5 c 128,-1,20
 595 133 595 133 699 133 c 0,21,22
 837 133 837 133 954.5 205 c 128,-1,23
 1072 277 1072 277 1141 401.5 c 128,-1,24
 1210 526 1210 526 1210 673 c 128,-1,25
 1210 820 1210 820 1141 944.5 c 128,-1,26
 1072 1069 1072 1069 954.5 1141 c 128,-1,27
 837 1213 837 1213 699 1213 c 0,28,29
 595 1213 595 1213 500.5 1170.5 c 128,-1,30
 406 1128 406 1128 337 1055.5 c 128,-1,31
 268 983 268 983 227.5 883 c 128,-1,16
 187 783 187 783 187 673 c 128,-1,17
827 598 m 1,32,33
 995 582 l 1,34,35
 995 438 995 438 920.5 340 c 128,-1,36
 846 242 846 242 707 242 c 0,37,38
 640 242 640 242 585.5 269 c 128,-1,39
 531 296 531 296 495.5 340.5 c 128,-1,40
 460 385 460 385 436 444 c 128,-1,41
 412 503 412 503 401.5 564 c 128,-1,42
 391 625 391 625 391 689 c 0,43,44
 391 764 391 764 408.5 834.5 c 128,-1,45
 426 905 426 905 462 967.5 c 128,-1,46
 498 1030 498 1030 562.5 1068 c 128,-1,47
 627 1106 627 1106 712 1106 c 128,-1,48
 797 1106 797 1106 863 1054.5 c 128,-1,49
 929 1003 929 1003 961.5 926 c 128,-1,50
 994 849 994 849 994 763 c 1,51,-1
 803 755 l 1,52,53
 803 766 803 766 802 782 c 128,-1,54
 801 798 801 798 795 828.5 c 128,-1,55
 789 859 789 859 779 883 c 128,-1,56
 769 907 769 907 748.5 925.5 c 128,-1,57
 728 944 728 944 700 944 c 0,58,59
 589 944 589 944 589 689 c 0,60,61
 589 625 589 625 593.5 578 c 128,-1,62
 598 531 598 531 611 485.5 c 128,-1,63
 624 440 624 440 651.5 415.5 c 128,-1,64
 679 391 679 391 720 391 c 0,65,66
 815 391 815 391 827 598 c 1,32,33
EndSplineSet
EndChar

StartChar: ordfeminine
Encoding: 170 170 111
Width: 774
GlyphClass: 2
Flags: W
LayerCount: 2
UndoRedoHistory
Layer: 1
Undoes
EndUndoes
Redoes
EndRedoes
EndUndoRedoHistory
Fore
SplineSet
276 552 m 0,0,1
 276 440 276 440 360 440 c 0,2,3
 385 440 385 440 416 465 c 0,4,5
 428 475 428 475 442 490 c 1,6,-1
 442 726 l 1,7,8
 276 726 276 726 276 552 c 0,0,1
68 549 m 0,9,10
 68 618 68 618 93.5 672 c 128,-1,11
 119 726 119 726 156.5 757.5 c 128,-1,12
 194 789 194 789 247 810.5 c 128,-1,13
 300 832 300 832 345.5 840.5 c 128,-1,14
 391 849 391 849 442 853 c 1,15,16
 442 883 442 883 441.5 900 c 128,-1,17
 441 917 441 917 437.5 941.5 c 128,-1,18
 434 966 434 966 428 979 c 128,-1,19
 422 992 422 992 410 1002 c 128,-1,20
 398 1012 398 1012 380 1012 c 0,21,22
 345 1012 345 1012 326.5 984 c 128,-1,23
 308 956 308 956 304 916 c 1,24,-1
 98 952 l 1,25,26
 106 1012 106 1012 133.5 1056 c 128,-1,27
 161 1100 161 1100 202 1123 c 128,-1,28
 243 1146 243 1146 287 1156.5 c 128,-1,29
 331 1167 331 1167 380 1167 c 0,30,31
 518 1167 518 1167 586 1095 c 128,-1,32
 654 1023 654 1023 654 907 c 2,33,-1
 654 468 l 2,34,35
 654 413 654 413 665 367 c 1,36,37
 671 333 671 333 676 317 c 1,38,-1
 470 299 l 1,39,-1
 447 403 l 1,40,41
 423 357 423 357 368 322.5 c 128,-1,42
 313 288 313 288 260 288 c 0,43,44
 175 288 175 288 121.5 361.5 c 128,-1,45
 68 435 68 435 68 549 c 0,9,10
EndSplineSet
EndChar

StartChar: guillemotleft
Encoding: 171 171 112
Width: 1244
GlyphClass: 2
Flags: W
LayerCount: 2
UndoRedoHistory
Layer: 1
Undoes
EndUndoes
Redoes
EndRedoes
EndUndoRedoHistory
Fore
SplineSet
1138 59 m 1,0,-1
 630 439 l 1,1,-1
 630 704 l 1,2,-1
 1140 1094 l 1,3,-1
 1126 833 l 1,4,-1
 825 607 l 1,5,-1
 1152 402 l 1,6,-1
 1138 59 l 1,0,-1
562 59 m 1,7,-1
 54 439 l 1,8,-1
 54 704 l 1,9,-1
 564 1094 l 1,10,-1
 550 833 l 1,11,-1
 249 607 l 1,12,-1
 576 402 l 1,13,-1
 562 59 l 1,7,-1
EndSplineSet
EndChar

StartChar: logicalnot
Encoding: 172 172 113
Width: 789
GlyphClass: 2
Flags: W
LayerCount: 2
UndoRedoHistory
Layer: 1
Undoes
EndUndoes
Redoes
EndRedoes
EndUndoRedoHistory
Fore
SplineSet
95 480 m 1,0,-1
 95 718 l 1,1,-1
 671 718 l 1,2,-1
 671 288 l 1,3,-1
 527 288 l 1,4,-1
 527 480 l 1,5,-1
 95 480 l 1,0,-1
EndSplineSet
EndChar

StartChar: registered
Encoding: 174 174 114
Width: 1397
GlyphClass: 2
Flags: W
LayerCount: 2
UndoRedoHistory
Layer: 1
Undoes
EndUndoes
Redoes
EndRedoes
EndUndoRedoHistory
Fore
SplineSet
619 751 m 1,0,-1
 656 751 l 2,1,2
 723 751 723 751 760.5 769.5 c 128,-1,3
 798 788 798 788 798 838 c 0,4,5
 798 892 798 892 764 910 c 128,-1,6
 730 928 730 928 652 928 c 2,7,-1
 619 928 l 1,8,-1
 619 751 l 1,0,-1
974 344 m 1,9,-1
 814 288 l 1,10,-1
 684 630 l 1,11,12
 665 629 665 629 617 629 c 1,13,-1
 617 305 l 1,14,-1
 444 289 l 1,15,-1
 444 1065 l 1,16,-1
 555 1065 l 2,17,18
 562 1065 562 1065 576 1065 c 0,19,20
 647 1065 647 1065 684.5 1063.5 c 128,-1,21
 722 1062 722 1062 783.5 1050.5 c 128,-1,22
 845 1039 845 1039 876.5 1016.5 c 128,-1,23
 908 994 908 994 933.5 948.5 c 128,-1,24
 959 903 959 903 959 837 c 0,25,26
 959 704 959 704 841 659 c 1,27,-1
 974 344 l 1,9,-1
187 673 m 128,-1,29
 187 563 187 563 227.5 463 c 128,-1,30
 268 363 268 363 337 290.5 c 128,-1,31
 406 218 406 218 500.5 175.5 c 128,-1,32
 595 133 595 133 699 133 c 0,33,34
 837 133 837 133 954.5 205 c 128,-1,35
 1072 277 1072 277 1141 401.5 c 128,-1,36
 1210 526 1210 526 1210 673 c 128,-1,37
 1210 820 1210 820 1141 944.5 c 128,-1,38
 1072 1069 1072 1069 954.5 1141 c 128,-1,39
 837 1213 837 1213 699 1213 c 0,40,41
 595 1213 595 1213 500.5 1170.5 c 128,-1,42
 406 1128 406 1128 337 1055.5 c 128,-1,43
 268 983 268 983 227.5 883 c 128,-1,28
 187 783 187 783 187 673 c 128,-1,29
54 673 m 128,-1,45
 54 810 54 810 105 934.5 c 128,-1,46
 156 1059 156 1059 242.5 1149 c 128,-1,47
 329 1239 329 1239 448.5 1292.5 c 128,-1,48
 568 1346 568 1346 699 1346 c 0,49,50
 873 1346 873 1346 1021.5 1256 c 128,-1,51
 1170 1166 1170 1166 1256.5 1011 c 128,-1,52
 1343 856 1343 856 1343 673 c 128,-1,53
 1343 490 1343 490 1256.5 335 c 128,-1,54
 1170 180 1170 180 1021.5 90 c 128,-1,55
 873 0 873 0 699 0 c 0,56,57
 568 0 568 0 448.5 53.5 c 128,-1,58
 329 107 329 107 242.5 197 c 128,-1,59
 156 287 156 287 105 411.5 c 128,-1,44
 54 536 54 536 54 673 c 128,-1,45
EndSplineSet
EndChar

StartChar: macron
Encoding: 175 175 115
Width: 898
GlyphClass: 4
Flags: W
AnchorPoint: "Anchor-0" 422 1104 mark 0
LayerCount: 2
UndoRedoHistory
Layer: 1
Undoes
EndUndoes
Redoes
EndRedoes
EndUndoRedoHistory
Fore
SplineSet
162 1248 m 1,0,-1
 162 1440 l 1,1,-1
 738 1440 l 1,2,-1
 738 1248 l 1,3,-1
 162 1248 l 1,0,-1
EndSplineSet
EndChar

StartChar: degree
Encoding: 176 176 116
Width: 921
GlyphClass: 2
Flags: W
LayerCount: 2
UndoRedoHistory
Layer: 1
Undoes
EndUndoes
Redoes
EndRedoes
EndUndoRedoHistory
Fore
SplineSet
603 769 m 128,-1,1
 603 796 603 796 602 814.5 c 128,-1,2
 601 833 601 833 593.5 863 c 128,-1,3
 586 893 586 893 572.5 911.5 c 128,-1,4
 559 930 559 930 532.5 944.5 c 128,-1,5
 506 959 506 959 468 959 c 0,6,7
 436 959 436 959 411.5 951.5 c 128,-1,8
 387 944 387 944 371 933 c 128,-1,9
 355 922 355 922 344 903.5 c 128,-1,10
 333 885 333 885 327.5 871 c 128,-1,11
 322 857 322 857 319.5 834 c 128,-1,12
 317 811 317 811 316.5 800 c 128,-1,13
 316 789 316 789 316 769 c 128,-1,14
 316 749 316 749 316.5 738 c 128,-1,15
 317 727 317 727 319.5 704 c 128,-1,16
 322 681 322 681 327.5 667 c 128,-1,17
 333 653 333 653 344 634.5 c 128,-1,18
 355 616 355 616 371 605 c 128,-1,19
 387 594 387 594 411.5 586.5 c 128,-1,20
 436 579 436 579 468 579 c 0,21,22
 506 579 506 579 532.5 593.5 c 128,-1,23
 559 608 559 608 572.5 626.5 c 128,-1,24
 586 645 586 645 593.5 675 c 128,-1,25
 601 705 601 705 602 723.5 c 128,-1,0
 603 742 603 742 603 769 c 128,-1,1
68 769 m 128,-1,27
 68 940 68 940 171.5 1045.5 c 128,-1,28
 275 1151 275 1151 469 1151 c 0,29,30
 650 1151 650 1151 751 1044.5 c 128,-1,31
 852 938 852 938 852 769 c 128,-1,32
 852 600 852 600 751 493.5 c 128,-1,33
 650 387 650 387 469 387 c 0,34,35
 275 387 275 387 171.5 492.5 c 128,-1,26
 68 598 68 598 68 769 c 128,-1,27
EndSplineSet
EndChar

StartChar: plusminus
Encoding: 177 177 117
Width: 866
GlyphClass: 2
Flags: W
LayerCount: 2
UndoRedoHistory
Layer: 1
Undoes
EndUndoes
Redoes
EndRedoes
EndUndoRedoHistory
Fore
SplineSet
142 1 m 1,0,-1
 142 239 l 1,1,-1
 718 239 l 1,2,-1
 718 1 l 1,3,-1
 142 1 l 1,0,-1
793 576 m 1,4,-1
 553 576 l 1,5,-1
 553 336 l 1,6,-1
 315 336 l 1,7,-1
 315 576 l 1,8,-1
 75 576 l 1,9,-1
 75 814 l 1,10,-1
 315 814 l 1,11,-1
 315 1054 l 1,12,-1
 553 1054 l 1,13,-1
 553 814 l 1,14,-1
 793 814 l 1,15,-1
 793 576 l 1,4,-1
EndSplineSet
EndChar

StartChar: twosuperior
Encoding: 178 178 118
Width: 840
GlyphClass: 2
Flags: W
LayerCount: 2
UndoRedoHistory
Layer: 1
Undoes
EndUndoes
Redoes
EndRedoes
EndUndoRedoHistory
Fore
SplineSet
326 1241 m 1,0,1
 87 1321 l 1,2,3
 112 1425 112 1425 205.5 1496.5 c 128,-1,4
 299 1568 299 1568 434 1568 c 0,5,6
 501 1568 501 1568 557.5 1552 c 128,-1,7
 614 1536 614 1536 658.5 1503 c 128,-1,8
 703 1470 703 1470 728.5 1414 c 128,-1,9
 754 1358 754 1358 754 1284 c 0,10,11
 754 1070 754 1070 403 768 c 1,12,-1
 707 768 l 1,13,14
 707 730 707 730 699 672 c 128,-1,15
 691 614 691 614 691 576 c 1,16,-1
 87 576 l 1,17,-1
 87 749 l 1,18,19
 120 786 120 786 182.5 850 c 128,-1,20
 245 914 245 914 287.5 961 c 128,-1,21
 330 1008 330 1008 375.5 1065.5 c 128,-1,22
 421 1123 421 1123 445 1178.5 c 128,-1,23
 469 1234 469 1234 469 1286 c 0,24,25
 469 1326 469 1326 453 1352 c 128,-1,26
 437 1378 437 1378 408 1378 c 0,27,28
 365 1378 365 1378 341 1309 c 0,29,30
 331 1279 331 1279 326 1241 c 1,0,1
EndSplineSet
EndChar

StartChar: threesuperior
Encoding: 179 179 119
Width: 857
GlyphClass: 2
Flags: W
LayerCount: 2
UndoRedoHistory
Layer: 1
Undoes
EndUndoes
Redoes
EndRedoes
EndUndoRedoHistory
Fore
SplineSet
292 1294 m 1,0,1
 85 1372 l 1,2,3
 145 1476 145 1476 219 1521.5 c 128,-1,4
 293 1567 293 1567 402 1567 c 0,5,6
 539 1567 539 1567 639 1499.5 c 128,-1,7
 739 1432 739 1432 739 1315 c 0,8,9
 739 1152 739 1152 552 1079 c 1,10,11
 651 1048 651 1048 702 988 c 128,-1,12
 753 928 753 928 753 830 c 0,13,14
 753 736 753 736 702.5 666 c 128,-1,15
 652 596 652 596 570.5 562 c 128,-1,16
 489 528 489 528 390 528 c 0,17,18
 267 528 267 528 172 586.5 c 128,-1,19
 77 645 77 645 48 754 c 1,20,21
 263 817 l 1,22,23
 293 722 293 722 377 722 c 0,24,25
 423 722 423 722 451.5 753 c 128,-1,26
 480 784 480 784 480 828 c 0,27,28
 480 912 480 912 426 941.5 c 128,-1,29
 372 971 372 971 274 971 c 1,30,-1
 274 1164 l 1,31,32
 364 1164 364 1164 415 1190.5 c 128,-1,33
 466 1217 466 1217 466 1289 c 0,34,35
 466 1327 466 1327 443.5 1354 c 128,-1,36
 421 1381 421 1381 380 1381 c 0,37,38
 343 1381 343 1381 314 1337 c 0,39,40
 301 1318 301 1318 292 1294 c 1,0,1
EndSplineSet
EndChar

StartChar: acutecomb
Encoding: 769 769 120
Width: 591
GlyphClass: 4
Flags: W
AnchorPoint: "Anchor-0" 150 1156 mark 0
LayerCount: 2
UndoRedoHistory
Layer: 1
Undoes
EndUndoes
Redoes
EndRedoes
EndUndoRedoHistory
Fore
SplineSet
146 1245 m 1,0,-1
 34 1346 l 1,1,-1
 330 1793 l 1,2,-1
 558 1591 l 1,3,-1
 146 1245 l 1,0,-1
EndSplineSet
EndChar

StartChar: mu
Encoding: 181 181 121
Width: 1099
GlyphClass: 2
Flags: W
LayerCount: 2
UndoRedoHistory
Layer: 1
Undoes
EndUndoes
Redoes
EndRedoes
EndUndoRedoHistory
Fore
SplineSet
128 -204 m 1,0,-1
 128 1128 l 1,1,-1
 416 1152 l 1,2,-1
 416 381 l 2,3,4
 416 228 416 228 511 228 c 0,5,6
 566 228 566 228 704 318 c 1,7,-1
 704 1128 l 1,8,-1
 992 1152 l 1,9,-1
 992 12 l 1,10,-1
 704 -12 l 1,11,-1
 704 135 l 1,12,13
 578 43 578 43 474 43 c 0,14,15
 443 43 443 43 416 46 c 1,16,-1
 416 -192 l 1,17,-1
 128 -204 l 1,0,-1
EndSplineSet
EndChar

StartChar: paragraph
Encoding: 182 182 122
Width: 1152
GlyphClass: 2
Flags: W
LayerCount: 2
UndoRedoHistory
Layer: 1
Undoes
EndUndoes
Redoes
EndRedoes
EndUndoRedoHistory
Fore
SplineSet
1095 1536 m 1,0,-1
 1095 1288 l 1,1,-1
 951 1288 l 1,2,-1
 951 0 l 1,3,-1
 719 0 l 1,4,-1
 719 764 l 1,5,6
 629 764 629 764 567 770 c 1,7,-1
 567 0 l 1,8,-1
 335 0 l 1,9,-1
 335 801 l 1,10,11
 199 839 199 839 123 920 c 128,-1,12
 47 1001 47 1001 47 1145 c 0,13,14
 47 1227 47 1227 74 1290.5 c 128,-1,15
 101 1354 101 1354 138 1394.5 c 128,-1,16
 175 1435 175 1435 244.5 1463.5 c 128,-1,17
 314 1492 314 1492 368 1506 c 128,-1,18
 422 1520 422 1520 517 1527 c 128,-1,19
 612 1534 612 1534 665.5 1535 c 128,-1,20
 719 1536 719 1536 819 1536 c 0,21,22
 846 1536 846 1536 859 1536 c 2,23,-1
 1095 1536 l 1,0,-1
EndSplineSet
EndChar

StartChar: periodcentered
Encoding: 183 183 123
Width: 516
GlyphClass: 2
Flags: W
LayerCount: 2
UndoRedoHistory
Layer: 1
Undoes
EndUndoes
Redoes
EndRedoes
EndUndoRedoHistory
Fore
SplineSet
114 768 m 1,0,-1
 402 768 l 1,1,-1
 402 480 l 1,2,-1
 114 480 l 1,3,-1
 114 768 l 1,0,-1
EndSplineSet
EndChar

StartChar: cedilla
Encoding: 184 184 124
Width: 551
GlyphClass: 4
Flags: W
AnchorPoint: "Anchor-1" 262 26 mark 0
LayerCount: 2
UndoRedoHistory
Layer: 1
Undoes
EndUndoes
Redoes
EndRedoes
EndUndoRedoHistory
Fore
SplineSet
124 -171 m 1,0,1
 164 48 l 1,2,-1
 316 48 l 1,3,-1
 286 -76 l 1,4,5
 336 -90 336 -90 375.5 -112 c 128,-1,6
 415 -134 415 -134 439 -156 c 128,-1,7
 463 -178 463 -178 480.5 -206 c 128,-1,8
 498 -234 498 -234 505.5 -253 c 128,-1,9
 513 -272 513 -272 517.5 -295.5 c 128,-1,10
 522 -319 522 -319 522 -324.5 c 128,-1,11
 522 -330 522 -330 522 -339 c 0,12,13
 522 -450 522 -450 460.5 -503 c 128,-1,14
 399 -556 399 -556 306 -556 c 0,15,16
 168 -556 168 -556 76 -492 c 1,17,-1
 76 -327 l 1,18,19
 155 -363 155 -363 220 -363 c 0,20,21
 269 -363 269 -363 292.5 -342.5 c 128,-1,22
 316 -322 316 -322 316 -289 c 0,23,24
 316 -243 316 -243 266.5 -207 c 128,-1,25
 217 -171 217 -171 124 -171 c 1,0,1
EndSplineSet
EndChar

StartChar: onesuperior
Encoding: 185 185 125
Width: 763
GlyphClass: 2
Flags: W
LayerCount: 2
UndoRedoHistory
Layer: 1
Undoes
EndUndoes
Redoes
EndRedoes
EndUndoRedoHistory
Fore
SplineSet
104 576 m 1,0,-1
 104 768 l 1,1,-1
 283 768 l 1,2,-1
 283 1206 l 1,3,-1
 221 1198 l 1,4,5
 151 1190 151 1190 117 1190 c 2,6,-1
 91 1190 l 1,7,-1
 91 1331 l 1,8,-1
 422 1536 l 1,9,-1
 523 1536 l 1,10,-1
 523 768 l 1,11,-1
 710 768 l 1,12,-1
 698 576 l 1,13,-1
 104 576 l 1,0,-1
EndSplineSet
EndChar

StartChar: ordmasculine
Encoding: 186 186 126
Width: 951
GlyphClass: 2
Flags: W
LayerCount: 2
UndoRedoHistory
Layer: 1
Undoes
EndUndoes
Redoes
EndRedoes
EndUndoRedoHistory
Fore
SplineSet
476 363 m 0,0,1
 286 363 286 363 185 473.5 c 128,-1,2
 84 584 84 584 84 767 c 0,3,4
 84 947 84 947 185 1057 c 128,-1,5
 286 1167 286 1167 476 1167 c 0,6,7
 662 1167 662 1167 765 1056.5 c 128,-1,8
 868 946 868 946 868 767 c 0,9,10
 868 585 868 585 765.5 474 c 128,-1,11
 663 363 663 363 476 363 c 0,0,1
474 557 m 1,12,13
 543 557 543 557 581 619.5 c 128,-1,14
 619 682 619 682 619 769 c 128,-1,15
 619 856 619 856 581 920 c 128,-1,16
 543 984 543 984 475 984 c 128,-1,17
 407 984 407 984 369 921 c 128,-1,18
 331 858 331 858 331 771 c 0,19,20
 331 686 331 686 369 622.5 c 128,-1,21
 407 559 407 559 474 557 c 1,12,13
EndSplineSet
EndChar

StartChar: guillemotright
Encoding: 187 187 127
Width: 1244
GlyphClass: 2
Flags: W
LayerCount: 2
UndoRedoHistory
Layer: 1
Undoes
EndUndoes
Redoes
EndRedoes
EndUndoRedoHistory
Fore
SplineSet
614 439 m 1,0,-1
 106 59 l 1,1,-1
 92 402 l 1,2,-1
 419 607 l 1,3,-1
 118 833 l 1,4,-1
 104 1094 l 1,5,-1
 614 704 l 1,6,-1
 614 439 l 1,0,-1
1190 439 m 1,7,-1
 682 59 l 1,8,-1
 668 402 l 1,9,-1
 995 607 l 1,10,-1
 694 833 l 1,11,-1
 680 1094 l 1,12,-1
 1190 704 l 1,13,-1
 1190 439 l 1,7,-1
EndSplineSet
EndChar

StartChar: onequarter
Encoding: 188 188 128
Width: 1991
GlyphClass: 2
Flags: W
LayerCount: 2
UndoRedoHistory
Layer: 1
Undoes
EndUndoes
Redoes
EndRedoes
EndUndoRedoHistory
Fore
SplineSet
1367 370 m 1,0,-1
 1572 370 l 1,1,-1
 1572 711 l 1,2,-1
 1367 370 l 1,0,-1
1572 -48 m 1,3,-1
 1572 192 l 1,4,-1
 1182 192 l 1,5,-1
 1182 360 l 1,6,-1
 1534 960 l 1,7,-1
 1820 960 l 1,8,-1
 1820 370 l 1,9,-1
 1945 370 l 1,10,-1
 1929 192 l 1,11,-1
 1820 192 l 1,12,-1
 1820 -32 l 1,13,-1
 1572 -48 l 1,3,-1
84 576 m 1,14,-1
 84 768 l 1,15,-1
 263 768 l 1,16,-1
 263 1206 l 1,17,-1
 201 1198 l 1,18,19
 131 1190 131 1190 97 1190 c 2,20,-1
 71 1190 l 1,21,-1
 71 1331 l 1,22,-1
 402 1536 l 1,23,-1
 503 1536 l 1,24,-1
 503 768 l 1,25,-1
 690 768 l 1,26,-1
 678 576 l 1,27,-1
 84 576 l 1,14,-1
680 0 m 1,28,-1
 1064 1536 l 1,29,-1
 1352 1536 l 1,30,-1
 968 0 l 1,31,-1
 680 0 l 1,28,-1
EndSplineSet
EndChar

StartChar: onehalf
Encoding: 189 189 129
Width: 1984
GlyphClass: 2
Flags: W
LayerCount: 2
UndoRedoHistory
Layer: 1
Undoes
EndUndoes
Redoes
EndRedoes
EndUndoRedoHistory
Fore
SplineSet
1506 665 m 1,0,1
 1267 745 l 1,2,3
 1292 849 1292 849 1385.5 920.5 c 128,-1,4
 1479 992 1479 992 1614 992 c 0,5,6
 1681 992 1681 992 1737.5 976 c 128,-1,7
 1794 960 1794 960 1838.5 927 c 128,-1,8
 1883 894 1883 894 1908.5 838 c 128,-1,9
 1934 782 1934 782 1934 708 c 0,10,11
 1934 494 1934 494 1583 192 c 1,12,-1
 1887 192 l 1,13,14
 1887 154 1887 154 1879 96 c 128,-1,15
 1871 38 1871 38 1871 0 c 1,16,-1
 1267 0 l 1,17,-1
 1267 173 l 1,18,19
 1300 210 1300 210 1362.5 274 c 128,-1,20
 1425 338 1425 338 1467.5 385 c 128,-1,21
 1510 432 1510 432 1555.5 489.5 c 128,-1,22
 1601 547 1601 547 1625 602.5 c 128,-1,23
 1649 658 1649 658 1649 710 c 0,24,25
 1649 750 1649 750 1633 776 c 128,-1,26
 1617 802 1617 802 1588 802 c 0,27,28
 1545 802 1545 802 1521 733 c 0,29,30
 1511 703 1511 703 1506 665 c 1,0,1
78 576 m 1,31,-1
 78 768 l 1,32,-1
 257 768 l 1,33,-1
 257 1206 l 1,34,-1
 195 1198 l 1,35,36
 125 1190 125 1190 91 1190 c 2,37,-1
 65 1190 l 1,38,-1
 65 1331 l 1,39,-1
 396 1536 l 1,40,-1
 497 1536 l 1,41,-1
 497 768 l 1,42,-1
 684 768 l 1,43,-1
 672 576 l 1,44,-1
 78 576 l 1,31,-1
674 0 m 1,45,-1
 1058 1536 l 1,46,-1
 1346 1536 l 1,47,-1
 962 0 l 1,48,-1
 674 0 l 1,45,-1
EndSplineSet
EndChar

StartChar: threequarters
Encoding: 190 190 130
Width: 1981
GlyphClass: 2
Flags: W
LayerCount: 2
UndoRedoHistory
Layer: 1
Undoes
EndUndoes
Redoes
EndRedoes
EndUndoRedoHistory
Fore
SplineSet
1356 370 m 1,0,-1
 1561 370 l 1,1,-1
 1561 711 l 1,2,-1
 1356 370 l 1,0,-1
1561 -48 m 1,3,-1
 1561 192 l 1,4,-1
 1171 192 l 1,5,-1
 1171 360 l 1,6,-1
 1523 960 l 1,7,-1
 1809 960 l 1,8,-1
 1809 370 l 1,9,-1
 1934 370 l 1,10,-1
 1918 192 l 1,11,-1
 1809 192 l 1,12,-1
 1809 -32 l 1,13,-1
 1561 -48 l 1,3,-1
287 1294 m 1,14,15
 80 1372 l 1,16,17
 140 1476 140 1476 214 1521.5 c 128,-1,18
 288 1567 288 1567 397 1567 c 0,19,20
 534 1567 534 1567 634 1499.5 c 128,-1,21
 734 1432 734 1432 734 1315 c 0,22,23
 734 1152 734 1152 547 1079 c 1,24,25
 646 1048 646 1048 697 988 c 128,-1,26
 748 928 748 928 748 830 c 0,27,28
 748 736 748 736 697.5 666 c 128,-1,29
 647 596 647 596 565.5 562 c 128,-1,30
 484 528 484 528 385 528 c 0,31,32
 262 528 262 528 167 586.5 c 128,-1,33
 72 645 72 645 43 754 c 1,34,35
 258 817 l 1,36,37
 288 722 288 722 372 722 c 0,38,39
 418 722 418 722 446.5 753 c 128,-1,40
 475 784 475 784 475 828 c 0,41,42
 475 912 475 912 421 941.5 c 128,-1,43
 367 971 367 971 269 971 c 1,44,-1
 269 1164 l 1,45,46
 359 1164 359 1164 410 1190.5 c 128,-1,47
 461 1217 461 1217 461 1289 c 0,48,49
 461 1327 461 1327 438.5 1354 c 128,-1,50
 416 1381 416 1381 375 1381 c 0,51,52
 338 1381 338 1381 309 1337 c 0,53,54
 296 1318 296 1318 287 1294 c 1,14,15
669 0 m 1,55,-1
 1053 1536 l 1,56,-1
 1341 1536 l 1,57,-1
 957 0 l 1,58,-1
 669 0 l 1,55,-1
EndSplineSet
EndChar

StartChar: questiondown
Encoding: 191 191 131
Width: 885
GlyphClass: 2
Flags: W
LayerCount: 2
UndoRedoHistory
Layer: 1
Undoes
EndUndoes
Redoes
EndRedoes
EndUndoRedoHistory
Fore
SplineSet
716 1246 m 1,0,-1
 428 1246 l 1,1,-1
 428 1534 l 1,2,-1
 716 1546 l 1,3,-1
 716 1246 l 1,0,-1
451 1138 m 2,4,5
 451 1150 l 1,6,-1
 691 1150 l 1,7,8
 701 1045 701 1045 691 968 c 128,-1,9
 681 891 681 891 658 845 c 128,-1,10
 635 799 635 799 602.5 764.5 c 128,-1,11
 570 730 570 730 534.5 710 c 128,-1,12
 499 690 499 690 464 665.5 c 128,-1,13
 429 641 429 641 401.5 615 c 128,-1,14
 374 589 374 589 356.5 541.5 c 128,-1,15
 339 494 339 494 339 429 c 0,16,17
 339 216 339 216 455 216 c 0,18,19
 503 216 503 216 530 268 c 0,20,21
 550 307 550 307 563 413 c 1,22,-1
 836 401 l 1,23,24
 830 217 830 217 723 102.5 c 128,-1,25
 616 -12 616 -12 448 -12 c 0,26,27
 349 -12 349 -12 270.5 27 c 128,-1,28
 192 66 192 66 145 131.5 c 128,-1,29
 98 197 98 197 74 275.5 c 128,-1,30
 50 354 50 354 50 439 c 0,31,32
 50 537 50 537 72 609.5 c 128,-1,33
 94 682 94 682 129.5 723 c 128,-1,34
 165 764 165 764 207.5 795.5 c 128,-1,35
 250 827 250 827 293 854.5 c 128,-1,36
 336 882 336 882 371.5 915 c 128,-1,37
 407 948 407 948 429 1004 c 128,-1,38
 451 1060 451 1060 451 1138 c 2,4,5
EndSplineSet
EndChar

StartChar: AE
Encoding: 198 198 138
Width: 1580
GlyphClass: 2
Flags: W
LayerCount: 2
UndoRedoHistory
Layer: 1
Undoes
EndUndoes
Redoes
EndRedoes
EndUndoRedoHistory
Fore
SplineSet
549 575 m 1,0,-1
 786 575 l 1,1,-1
 808 1310 l 1,2,-1
 549 575 l 1,0,-1
1506 0 m 1,3,-1
 769 0 l 1,4,-1
 785 329 l 1,5,-1
 450 329 l 1,6,-1
 320 0 l 1,7,-1
 -7 0 l 1,8,-1
 654 1518 l 1,9,-1
 858 1536 l 1,10,-1
 1514 1536 l 1,11,-1
 1490 1296 l 1,12,-1
 1104 1296 l 1,13,-1
 1104 930 l 1,14,-1
 1357 930 l 1,15,-1
 1356 672 l 1,16,-1
 1104 672 l 1,17,-1
 1104 240 l 1,18,-1
 1530 240 l 1,19,-1
 1506 0 l 1,3,-1
EndSplineSet
EndChar

StartChar: Eth
Encoding: 208 208 148
Width: 1138
GlyphClass: 2
Flags: W
LayerCount: 2
UndoRedoHistory
Layer: 1
Undoes
EndUndoes
Redoes
EndRedoes
EndUndoRedoHistory
Fore
SplineSet
482 1296 m 2,0,1
 447 1296 l 1,2,-1
 447 864 l 1,3,-1
 581 864 l 1,4,-1
 581 672 l 1,5,-1
 447 672 l 1,6,-1
 447 240 l 1,7,-1
 490 240 l 2,8,9
 556 240 556 240 606 268.5 c 128,-1,10
 656 297 656 297 685.5 341.5 c 128,-1,11
 715 386 715 386 733.5 449.5 c 128,-1,12
 752 513 752 513 758.5 574 c 128,-1,13
 765 635 765 635 765 705 c 0,14,15
 765 716 765 716 765 740 c 1,16,17
 767 778 767 778 765 822 c 128,-1,18
 763 866 763 866 761.5 912.5 c 128,-1,19
 760 959 760 959 751.5 1005.5 c 128,-1,20
 743 1052 743 1052 731.5 1094.5 c 128,-1,21
 720 1137 720 1137 698 1174 c 128,-1,22
 676 1211 676 1211 647.5 1238 c 128,-1,23
 619 1265 619 1265 576.5 1280.5 c 128,-1,24
 534 1296 534 1296 482 1296 c 2,0,1
148 0 m 1,25,-1
 148 672 l 1,26,-1
 5 672 l 1,27,-1
 5 864 l 1,28,-1
 148 864 l 1,29,-1
 148 1536 l 1,30,-1
 462 1536 l 2,31,32
 765 1536 765 1536 915 1344 c 128,-1,33
 1065 1152 1065 1152 1065 762 c 0,34,35
 1065 641 1065 641 1047 533 c 128,-1,36
 1029 425 1029 425 987 326 c 128,-1,37
 945 227 945 227 883 155.5 c 128,-1,38
 821 84 821 84 726.5 42 c 128,-1,39
 632 0 632 0 515 0 c 2,40,-1
 148 0 l 1,25,-1
EndSplineSet
EndChar

StartChar: multiply
Encoding: 215 215 155
Width: 857
GlyphClass: 2
Flags: W
LayerCount: 2
UndoRedoHistory
Layer: 1
Undoes
EndUndoes
Redoes
EndRedoes
EndUndoRedoHistory
Fore
SplineSet
243 905 m 1,0,-1
 427 720 l 1,1,-1
 615 908 l 1,2,-1
 783 739 l 1,3,-1
 595 552 l 1,4,-1
 786 362 l 1,5,-1
 617 193 l 1,6,-1
 427 384 l 1,7,-1
 240 196 l 1,8,-1
 71 364 l 1,9,-1
 259 552 l 1,10,-1
 74 736 l 1,11,-1
 243 905 l 1,0,-1
EndSplineSet
EndChar

StartChar: Oslash
Encoding: 216 216 156
Width: 1129
GlyphClass: 2
Flags: W
LayerCount: 2
UndoRedoHistory
Layer: 1
Undoes
EndUndoes
Redoes
EndRedoes
EndUndoRedoHistory
Fore
SplineSet
562 223 m 0,0,1
 596 223 596 223 622.5 237.5 c 128,-1,2
 649 252 649 252 667.5 276.5 c 128,-1,3
 686 301 686 301 699.5 343 c 128,-1,4
 713 385 713 385 720.5 430 c 128,-1,5
 728 475 728 475 732.5 541.5 c 128,-1,6
 737 608 737 608 738.5 670.5 c 128,-1,7
 740 733 740 733 740 820 c 2,8,-1
 740 853 l 1,9,-1
 403 444 l 1,10,11
 419 334 419 334 456 278.5 c 128,-1,12
 493 223 493 223 562 223 c 0,0,1
386 820 m 0,13,14
 386 672 386 672 388 634 c 1,15,-1
 729 1048 l 1,16,17
 698 1329 698 1329 562 1329 c 0,18,19
 523 1329 523 1329 492.5 1305.5 c 128,-1,20
 462 1282 462 1282 443.5 1238.5 c 128,-1,21
 425 1195 425 1195 412.5 1147 c 128,-1,22
 400 1099 400 1099 395 1035.5 c 128,-1,23
 390 972 390 972 388 925 c 128,-1,24
 386 878 386 878 386 820 c 0,13,14
562 -32 m 0,25,26
 316 -32 316 -32 196 193 c 1,27,-1
 124 106 l 1,28,-1
 29 198 l 1,29,-1
 141 334 l 1,30,31
 87 524 87 524 87 820 c 0,32,33
 87 992 87 992 115 1127.5 c 128,-1,34
 143 1263 143 1263 199.5 1362.5 c 128,-1,35
 256 1462 256 1462 348 1515 c 128,-1,36
 440 1568 440 1568 562 1568 c 0,37,38
 831 1568 831 1568 951 1317 c 1,39,-1
 1035 1419 l 1,40,-1
 1130 1327 l 1,41,-1
 1002 1171 l 1,42,43
 1040 1014 1040 1014 1040 820 c 0,44,45
 1040 705 1040 705 1031.5 606.5 c 128,-1,46
 1023 508 1023 508 1003.5 408.5 c 128,-1,47
 984 309 984 309 948.5 232 c 128,-1,48
 913 155 913 155 861.5 94 c 128,-1,49
 810 33 810 33 734 0.5 c 128,-1,50
 658 -32 658 -32 562 -32 c 0,25,26
EndSplineSet
EndChar

StartChar: Thorn
Encoding: 222 222 162
Width: 1082
GlyphClass: 2
Flags: W
LayerCount: 2
UndoRedoHistory
Layer: 1
Undoes
EndUndoes
Redoes
EndRedoes
EndUndoRedoHistory
Fore
SplineSet
442 488 m 1,0,-1
 493 488 l 2,1,2
 538 488 538 488 573.5 493.5 c 128,-1,3
 609 499 609 499 643 514.5 c 128,-1,4
 677 530 677 530 699.5 555.5 c 128,-1,5
 722 581 722 581 735.5 622 c 128,-1,6
 749 663 749 663 749 718 c 0,7,8
 749 848 749 848 686 892.5 c 128,-1,9
 623 937 623 937 485 937 c 2,10,-1
 442 937 l 1,11,-1
 442 488 l 1,0,-1
140 -92 m 1,12,-1
 140 1536 l 1,13,-1
 442 1536 l 1,14,-1
 442 1167 l 1,15,16
 514 1166 514 1166 567 1162.5 c 128,-1,17
 620 1159 620 1159 687 1148 c 128,-1,18
 754 1137 754 1137 802 1118 c 128,-1,19
 850 1099 850 1099 899 1065.5 c 128,-1,20
 948 1032 948 1032 978.5 985.5 c 128,-1,21
 1009 939 1009 939 1028.5 870.5 c 128,-1,22
 1048 802 1048 802 1048 716 c 128,-1,23
 1048 630 1048 630 1028 561.5 c 128,-1,24
 1008 493 1008 493 976 446.5 c 128,-1,25
 944 400 944 400 894 366 c 128,-1,26
 844 332 844 332 794.5 313 c 128,-1,27
 745 294 745 294 679.5 282.5 c 128,-1,28
 614 271 614 271 560.5 268 c 128,-1,29
 507 265 507 265 440 265 c 1,30,-1
 440 -68 l 1,31,-1
 140 -92 l 1,12,-1
EndSplineSet
EndChar

StartChar: germandbls
Encoding: 223 223 163
Width: 1170
GlyphClass: 2
Flags: W
LayerCount: 2
UndoRedoHistory
Layer: 1
Undoes
EndUndoes
Redoes
EndRedoes
EndUndoRedoHistory
Fore
SplineSet
414 0 m 1,0,-1
 124 -25 l 1,1,-1
 124 1056 l 2,2,3
 124 1189 124 1189 154.5 1288 c 128,-1,4
 185 1387 185 1387 241 1446 c 128,-1,5
 297 1505 297 1505 368.5 1534.5 c 128,-1,6
 440 1564 440 1564 529 1567 c 0,7,8
 648 1571 648 1571 740.5 1541 c 128,-1,9
 833 1511 833 1511 888.5 1457 c 128,-1,10
 944 1403 944 1403 972 1335.5 c 128,-1,11
 1000 1268 1000 1268 1000 1192 c 0,12,13
 1000 1097 1000 1097 957.5 1017.5 c 128,-1,14
 915 938 915 938 813 870 c 1,15,16
 882 847 882 847 934.5 817 c 128,-1,17
 987 787 987 787 1032.5 741 c 128,-1,18
 1078 695 1078 695 1102.5 626.5 c 128,-1,19
 1127 558 1127 558 1127 471 c 0,20,21
 1127 26 1127 26 540 2 c 1,22,-1
 540 211 l 1,23,24
 615 211 615 211 673.5 233.5 c 128,-1,25
 732 256 732 256 766.5 292.5 c 128,-1,26
 801 329 801 329 818.5 372.5 c 128,-1,27
 836 416 836 416 836 462 c 0,28,29
 836 567 836 567 757 655 c 128,-1,30
 678 743 678 743 551 743 c 1,31,-1
 551 910 l 1,32,33
 649 942 649 942 700 1014 c 128,-1,34
 751 1086 751 1086 751 1160 c 0,35,36
 751 1241 751 1241 703.5 1296 c 128,-1,37
 656 1351 656 1351 560 1345 c 0,38,39
 498 1341 498 1341 456 1282.5 c 128,-1,40
 414 1224 414 1224 414 1111 c 2,41,-1
 414 0 l 1,0,-1
EndSplineSet
EndChar

StartChar: ae
Encoding: 230 230 170
Width: 1457
GlyphClass: 2
Flags: W
LayerCount: 2
UndoRedoHistory
Layer: 1
Undoes
EndUndoes
Redoes
EndRedoes
EndUndoRedoHistory
Fore
SplineSet
849 702 m 1,0,-1
 1124 702 l 1,1,2
 1124 824 1124 824 1091.5 896.5 c 128,-1,3
 1059 969 1059 969 989 969 c 0,4,5
 936 969 936 969 893.5 894.5 c 128,-1,6
 851 820 851 820 849 713 c 1,7,-1
 849 702 l 1,0,-1
336 331 m 0,8,9
 336 260 336 260 364.5 219.5 c 128,-1,10
 393 179 393 179 450 179 c 0,11,12
 497 179 497 179 529 243 c 128,-1,13
 561 307 561 307 561 382 c 2,14,-1
 561 568 l 1,15,16
 336 568 336 568 336 331 c 0,8,9
1399 536 m 1,17,18
 849 536 l 1,19,20
 849 477 849 477 856.5 419 c 128,-1,21
 864 361 864 361 879.5 306.5 c 128,-1,22
 895 252 895 252 923.5 218.5 c 128,-1,23
 952 185 952 185 989 185 c 0,24,25
 1010 185 1010 185 1031.5 198 c 128,-1,26
 1053 211 1053 211 1068.5 229.5 c 128,-1,27
 1084 248 1084 248 1099.5 273.5 c 128,-1,28
 1115 299 1115 299 1123.5 317 c 128,-1,29
 1132 335 1132 335 1140 354 c 2,30,-1
 1149 373 l 1,31,-1
 1367 290 l 1,32,33
 1325 142 1325 142 1230 57.5 c 128,-1,34
 1135 -27 1135 -27 984 -27 c 0,35,36
 819 -27 819 -27 713 144 c 1,37,38
 665 52 665 52 571 12.5 c 128,-1,39
 477 -27 477 -27 365 -27 c 0,40,41
 226 -27 226 -27 140 72.5 c 128,-1,42
 54 172 54 172 54 327 c 0,43,44
 54 395 54 395 72 452 c 128,-1,45
 90 509 90 509 119.5 549.5 c 128,-1,46
 149 590 149 590 191 622.5 c 128,-1,47
 233 655 233 655 277 675.5 c 128,-1,48
 321 696 321 696 373 710 c 128,-1,49
 425 724 425 724 469.5 730.5 c 128,-1,50
 514 737 514 737 561 740 c 1,51,52
 561 768 561 768 561 780.5 c 128,-1,53
 561 793 561 793 560 818 c 128,-1,54
 559 843 559 843 557 855.5 c 128,-1,55
 555 868 555 868 551 887.5 c 128,-1,56
 547 907 547 907 541 916.5 c 128,-1,57
 535 926 535 926 526.5 936.5 c 128,-1,58
 518 947 518 947 505.5 951.5 c 128,-1,59
 493 956 493 956 478 956 c 0,60,61
 391 956 391 956 374 826 c 1,62,-1
 94 875 l 1,63,64
 102 941 102 941 129 993 c 128,-1,65
 156 1045 156 1045 193 1077 c 128,-1,66
 230 1109 230 1109 279 1130 c 128,-1,67
 328 1151 328 1151 376.5 1159 c 128,-1,68
 425 1167 425 1167 478 1167 c 0,69,70
 633 1167 633 1167 723 1032 c 1,71,72
 839 1167 839 1167 994 1167 c 0,73,74
 1194 1167 1194 1167 1300.5 1005 c 128,-1,75
 1407 843 1407 843 1407 570 c 1,76,-1
 1403 556 l 2,77,78
 1399 545 1399 545 1399 536 c 1,17,18
EndSplineSet
EndChar

StartChar: eth
Encoding: 240 240 180
Width: 1006
GlyphClass: 2
Flags: W
LayerCount: 2
UndoRedoHistory
Layer: 1
Undoes
EndUndoes
Redoes
EndRedoes
EndUndoRedoHistory
Fore
SplineSet
623 608 m 0,0,1
 623 611 623 611 622.5 619.5 c 128,-1,2
 622 628 622 628 622 633 c 0,3,4
 621 638 621 638 621 649 c 1,5,-1
 581 670 l 1,6,7
 533 692 533 692 488 692 c 0,8,9
 446 692 446 692 414.5 671 c 128,-1,10
 383 650 383 650 365.5 613.5 c 128,-1,11
 348 577 348 577 340 535.5 c 128,-1,12
 332 494 332 494 332 447 c 0,13,14
 332 410 332 410 339 375.5 c 128,-1,15
 346 341 346 341 361.5 306.5 c 128,-1,16
 377 272 377 272 408.5 251 c 128,-1,17
 440 230 440 230 484 230 c 0,18,19
 586 230 586 230 612 388 c 0,20,21
 623 451 623 451 623 608 c 0,0,1
916 774 m 0,22,23
 916 -32 916 -32 471 -32 c 0,24,25
 348 -32 348 -32 248.5 38 c 128,-1,26
 149 108 149 108 96 218 c 128,-1,27
 43 328 43 328 43 452 c 0,28,29
 43 579 43 579 84 688 c 128,-1,30
 125 797 125 797 205 866.5 c 128,-1,31
 285 936 285 936 387 936 c 0,32,33
 448 936 448 936 511.5 914 c 128,-1,34
 575 892 575 892 623 856 c 1,35,36
 622 897 622 897 620.5 926 c 128,-1,37
 619 955 619 955 615.5 1003 c 0,38,39
 612 1052 612 1052 605 1086 c 0,40,-1
 605 1086 l 2,41,-1
 393 1021 l 1,42,-1
 329 1202 l 1,43,-1
 540 1267 l 1,44,45
 530 1280 530 1280 520 1292 c 0,46,47
 498 1318 498 1318 466.5 1332 c 128,-1,48
 435 1346 435 1346 397 1346 c 0,49,50
 325 1346 325 1346 239 1301 c 128,-1,51
 153 1256 153 1256 100 1207 c 1,52,-1
 -8 1393 l 1,53,54
 120 1500 120 1500 213.5 1534 c 128,-1,55
 307 1568 307 1568 448 1568 c 0,56,57
 546 1568 546 1568 626.5 1517 c 0,58,59
 708 1466 708 1466 760 1384 c 0,60,61
 773 1364 773 1364 785 1342 c 1,62,-1
 943 1391 l 1,63,-1
 1007 1210 l 1,64,-1
 859 1165 l 1,65,66
 886 1076 886 1076 900 986 c 0,67,68
 916 880 916 880 916 774 c 0,22,23
EndSplineSet
EndChar

StartChar: divide
Encoding: 247 247 187
Width: 797
GlyphClass: 2
Flags: W
LayerCount: 2
UndoRedoHistory
Layer: 1
Undoes
EndUndoes
Redoes
EndRedoes
EndUndoRedoHistory
Fore
SplineSet
64 384 m 1,0,-1
 64 576 l 1,1,-1
 734 576 l 1,2,-1
 734 384 l 1,3,-1
 64 384 l 1,0,-1
256 960 m 1,4,-1
 544 960 l 1,5,-1
 544 672 l 1,6,-1
 256 672 l 1,7,-1
 256 960 l 1,4,-1
256 288 m 1,8,-1
 544 288 l 1,9,-1
 544 0 l 1,10,-1
 256 -12 l 1,11,-1
 256 288 l 1,8,-1
EndSplineSet
EndChar

StartChar: oslash
Encoding: 248 248 188
Width: 1006
GlyphClass: 2
Flags: W
LayerCount: 2
UndoRedoHistory
Layer: 1
Undoes
EndUndoes
Redoes
EndRedoes
EndUndoRedoHistory
Fore
SplineSet
500 187 m 0,0,1
 534 187 534 187 560 205 c 128,-1,2
 586 223 586 223 601 258 c 128,-1,3
 616 293 616 293 625.5 327.5 c 128,-1,4
 635 362 635 362 639 413.5 c 128,-1,5
 643 465 643 465 644 497 c 128,-1,6
 645 529 645 529 645 577 c 2,7,-1
 645 620 l 1,8,-1
 385 290 l 1,9,10
 419 187 419 187 500 187 c 0,0,1
358 577 m 0,11,12
 358 479 358 479 362 426 c 1,13,-1
 635 773 l 1,14,15
 610 964 610 964 501 964 c 0,16,17
 475 964 475 964 453.5 954 c 128,-1,18
 432 944 432 944 417.5 922.5 c 128,-1,19
 403 901 403 901 392.5 879 c 128,-1,20
 382 857 382 857 375.5 821.5 c 128,-1,21
 369 786 369 786 365 761.5 c 128,-1,22
 361 737 361 737 360 695.5 c 128,-1,23
 359 654 359 654 358.5 634.5 c 128,-1,24
 358 615 358 615 358 577 c 0,11,12
502 -27 m 0,25,26
 333 -27 333 -27 223 85 c 1,27,-1
 132 -31 l 1,28,-1
 55 37 l 1,29,-1
 160 170 l 1,30,31
 70 326 70 326 70 577 c 0,32,33
 70 752 70 752 117 883 c 128,-1,34
 164 1014 164 1014 263 1090.5 c 128,-1,35
 362 1167 362 1167 502 1167 c 0,36,37
 703 1167 703 1167 819 1007 c 1,38,-1
 906 1117 l 1,39,-1
 983 1049 l 1,40,-1
 873 910 l 1,41,42
 934 772 934 772 934 577 c 0,43,44
 934 303 934 303 821 138 c 128,-1,45
 708 -27 708 -27 502 -27 c 0,25,26
EndSplineSet
EndChar

StartChar: thorn
Encoding: 254 254 194
Width: 1067
GlyphClass: 2
Flags: W
LayerCount: 2
UndoRedoHistory
Layer: 1
Undoes
EndUndoes
Redoes
EndRedoes
EndUndoRedoHistory
Fore
SplineSet
412 843 m 1,0,1
 412 480 l 2,2,3
 412 315 412 315 451.5 247 c 128,-1,4
 491 179 491 179 552 179 c 0,5,6
 582 179 582 179 605 190.5 c 128,-1,7
 628 202 628 202 643.5 220 c 128,-1,8
 659 238 659 238 670 269 c 128,-1,9
 681 300 681 300 687.5 330 c 128,-1,10
 694 360 694 360 697 405 c 128,-1,11
 700 450 700 450 701 486.5 c 128,-1,12
 702 523 702 523 702 576 c 0,13,14
 702 633 702 633 701 669.5 c 128,-1,15
 700 706 700 706 697 751 c 128,-1,16
 694 796 694 796 687.5 823 c 128,-1,17
 681 850 681 850 670 874.5 c 128,-1,18
 659 899 659 899 642 910.5 c 128,-1,19
 625 922 625 922 602 922 c 0,20,21
 559 922 559 922 481 882 c 0,22,23
 446 864 446 864 412 843 c 1,0,1
413 -358 m 1,24,-1
 124 -358 l 1,25,-1
 124 1500 l 1,26,-1
 412 1536 l 1,27,-1
 412 1005 l 1,28,29
 480 1079 480 1079 559 1123 c 128,-1,30
 638 1167 638 1167 710 1167 c 0,31,32
 757 1167 757 1167 797.5 1148 c 128,-1,33
 838 1129 838 1129 874 1084.5 c 128,-1,34
 910 1040 910 1040 935.5 973 c 128,-1,35
 961 906 961 906 975.5 805 c 128,-1,36
 990 704 990 704 990 576 c 0,37,38
 990 -27 990 -27 659 -27 c 0,39,40
 525 -27 525 -27 456 58 c 1,41,42
 426 93 426 93 412 144 c 1,43,-1
 413 -358 l 1,24,-1
EndSplineSet
EndChar

StartChar: dcaron
Encoding: 271 271 211
Width: 1315
GlyphClass: 2
Flags: W
LayerCount: 2
UndoRedoHistory
Layer: 1
Undoes
EndUndoes
Redoes
EndRedoes
EndUndoRedoHistory
Fore
SplineSet
1084 1536 m 1,0,-1
 1372 1536 l 1,1,-1
 1372 1248 l 2,2,3
 1372 1066 1372 1066 1252 996 c 1,4,5
 1200 964 1200 964 1132 960 c 1,6,-1
 1132 1152 l 1,7,8
 1192 1152 1192 1152 1216 1200 c 0,9,10
 1226 1221 1226 1221 1228 1248 c 1,11,-1
 1084 1236 l 1,12,-1
 1084 1536 l 1,0,-1
656 480 m 2,13,14
 656 864 l 1,15,16
 633 891 633 891 612 910 c 0,17,18
 558 956 558 956 516 956 c 0,19,20
 482 956 482 956 456 943.5 c 128,-1,21
 430 931 430 931 414 903.5 c 128,-1,22
 398 876 398 876 388 846 c 128,-1,23
 378 816 378 816 373.5 767.5 c 128,-1,24
 369 719 369 719 367.5 678.5 c 128,-1,25
 366 638 366 638 366 576 c 0,26,27
 366 523 366 523 367 486.5 c 128,-1,28
 368 450 368 450 371 405 c 128,-1,29
 374 360 374 360 380.5 330 c 128,-1,30
 387 300 387 300 398 269 c 128,-1,31
 409 238 409 238 424.5 220 c 128,-1,32
 440 202 440 202 463 190.5 c 128,-1,33
 486 179 486 179 516 179 c 0,34,35
 577 179 577 179 616.5 247 c 128,-1,36
 656 315 656 315 656 480 c 2,13,14
944 12 m 1,37,-1
 726 -12 l 1,38,-1
 656 144 l 1,39,40
 642 93 642 93 612 58 c 1,41,42
 543 -27 543 -27 409 -27 c 0,43,44
 78 -27 78 -27 78 576 c 0,45,46
 78 894 78 894 151.5 1030.5 c 128,-1,47
 225 1167 225 1167 395 1167 c 0,48,49
 481 1167 481 1167 575 1083 c 0,50,51
 621 1043 621 1043 656 1000 c 1,52,-1
 656 1500 l 1,53,-1
 944 1536 l 1,54,-1
 944 12 l 1,37,-1
EndSplineSet
EndChar

StartChar: Dcroat
Encoding: 272 272 212
Width: 1135
GlyphClass: 2
Flags: W
LayerCount: 2
UndoRedoHistory
Layer: 1
Undoes
EndUndoes
Redoes
EndRedoes
EndUndoRedoHistory
Fore
SplineSet
479 1296 m 2,0,1
 444 1296 l 1,2,-1
 444 908 l 1,3,-1
 630 908 l 1,4,-1
 611 716 l 1,5,-1
 444 716 l 1,6,-1
 444 240 l 1,7,-1
 487 240 l 2,8,9
 553 240 553 240 603 268.5 c 128,-1,10
 653 297 653 297 682.5 341.5 c 128,-1,11
 712 386 712 386 730.5 449.5 c 128,-1,12
 749 513 749 513 755.5 574 c 128,-1,13
 762 635 762 635 762 705 c 0,14,15
 762 716 762 716 762 740 c 1,16,17
 764 778 764 778 762 822 c 128,-1,18
 760 866 760 866 758.5 912.5 c 128,-1,19
 757 959 757 959 748.5 1005.5 c 128,-1,20
 740 1052 740 1052 728.5 1094.5 c 128,-1,21
 717 1137 717 1137 695 1174 c 128,-1,22
 673 1211 673 1211 644.5 1238 c 128,-1,23
 616 1265 616 1265 573.5 1280.5 c 128,-1,24
 531 1296 531 1296 479 1296 c 2,0,1
35 716 m 1,25,-1
 54 908 l 1,26,-1
 145 908 l 1,27,-1
 145 1536 l 1,28,-1
 459 1536 l 2,29,30
 762 1536 762 1536 912 1344 c 128,-1,31
 1062 1152 1062 1152 1062 762 c 0,32,33
 1062 641 1062 641 1044 533 c 128,-1,34
 1026 425 1026 425 984 326 c 128,-1,35
 942 227 942 227 880 155.5 c 128,-1,36
 818 84 818 84 723.5 42 c 128,-1,37
 629 0 629 0 512 0 c 2,38,-1
 145 0 l 1,39,-1
 145 716 l 1,40,-1
 35 716 l 1,25,-1
EndSplineSet
EndChar

StartChar: dcroat
Encoding: 273 273 213
Width: 1067
GlyphClass: 2
Flags: W
LayerCount: 2
UndoRedoHistory
Layer: 1
Undoes
EndUndoes
Redoes
EndRedoes
EndUndoRedoHistory
Fore
SplineSet
656 480 m 2,0,1
 656 864 l 1,2,3
 633 891 633 891 612 910 c 0,4,5
 558 956 558 956 516 956 c 0,6,7
 482 956 482 956 456 943.5 c 128,-1,8
 430 931 430 931 414 903.5 c 128,-1,9
 398 876 398 876 388 846 c 128,-1,10
 378 816 378 816 373.5 767.5 c 128,-1,11
 369 719 369 719 367.5 678.5 c 128,-1,12
 366 638 366 638 366 576 c 0,13,14
 366 523 366 523 367 486.5 c 128,-1,15
 368 450 368 450 371 405 c 128,-1,16
 374 360 374 360 380.5 330 c 128,-1,17
 387 300 387 300 398 269 c 128,-1,18
 409 238 409 238 424.5 220 c 128,-1,19
 440 202 440 202 463 190.5 c 128,-1,20
 486 179 486 179 516 179 c 0,21,22
 577 179 577 179 616.5 247 c 128,-1,23
 656 315 656 315 656 480 c 2,0,1
656 1248 m 1,24,-1
 505 1248 l 1,25,-1
 505 1440 l 1,26,-1
 656 1440 l 1,27,-1
 656 1500 l 1,28,-1
 944 1536 l 1,29,-1
 944 1440 l 1,30,-1
 1081 1440 l 1,31,-1
 1081 1248 l 1,32,-1
 944 1248 l 1,33,-1
 944 12 l 1,34,-1
 726 -12 l 1,35,-1
 656 144 l 1,36,37
 642 93 642 93 612 58 c 1,38,39
 543 -27 543 -27 409 -27 c 0,40,41
 78 -27 78 -27 78 576 c 0,42,43
 78 894 78 894 151.5 1030.5 c 128,-1,44
 225 1167 225 1167 395 1167 c 0,45,46
 481 1167 481 1167 575 1083 c 0,47,48
 621 1043 621 1043 656 1000 c 1,49,-1
 656 1248 l 1,24,-1
EndSplineSet
EndChar

StartChar: gcommaaccent
Encoding: 291 291 231
Width: 1109
GlyphClass: 2
Flags: W
LayerCount: 2
UndoRedoHistory
Layer: 1
Undoes
EndUndoes
Redoes
EndRedoes
EndUndoRedoHistory
Fore
SplineSet
751 1314 m 1,0,-1
 414 1302 l 1,1,-1
 414 1632 l 2,2,3
 414 1810 414 1810 558 1884 c 0,4,5
 621 1916 621 1916 703 1920 c 1,6,-1
 703 1728 l 1,7,8
 614 1728 614 1728 576 1680 c 0,9,10
 560 1659 560 1659 558 1632 c 1,11,-1
 751 1632 l 1,12,-1
 751 1314 l 1,0,-1
395 826 m 0,13,14
 395 628 395 628 530 628 c 0,15,16
 590 628 590 628 624 678 c 128,-1,17
 658 728 658 728 658 820 c 0,18,19
 658 905 658 905 621 949 c 128,-1,20
 584 993 584 993 528 993 c 0,21,22
 464 993 464 993 429.5 942 c 128,-1,23
 395 891 395 891 395 826 c 0,13,14
306 -36 m 0,24,25
 306 -145 306 -145 561 -145 c 0,26,27
 663 -145 663 -145 718 -111.5 c 128,-1,28
 773 -78 773 -78 773 -17 c 0,29,30
 773 14 773 14 750 35 c 128,-1,31
 727 56 727 56 690 65 c 128,-1,32
 653 74 653 74 624 77 c 128,-1,33
 595 80 595 80 565 80 c 2,34,-1
 397 80 l 1,35,36
 306 51 306 51 306 -36 c 0,24,25
44 -123 m 0,37,38
 44 -27 44 -27 145 48 c 0,39,40
 187 80 187 80 246 103 c 1,41,42
 195 117 195 117 160 137 c 0,43,44
 74 185 74 185 74 256 c 0,45,46
 74 349 74 349 182 441 c 0,47,48
 229 481 229 481 291 511 c 1,49,50
 241 541 241 541 199 586 c 1,51,52
 107 690 107 690 107 815 c 0,53,54
 107 882 107 882 131.5 939.5 c 128,-1,55
 156 997 156 997 197.5 1038.5 c 128,-1,56
 239 1080 239 1080 293 1109.5 c 128,-1,57
 347 1139 347 1139 407.5 1153 c 128,-1,58
 468 1167 468 1167 530 1167 c 0,59,60
 692 1167 692 1167 822 1081 c 1,61,62
 848 1105 848 1105 865 1119 c 128,-1,63
 882 1133 882 1133 919 1160 c 128,-1,64
 956 1187 956 1187 994.5 1201 c 128,-1,65
 1033 1215 1033 1215 1070 1215 c 0,66,67
 1076 1215 1076 1215 1090 1213 c 2,68,-1
 1101 1211 l 1,69,-1
 1101 969 l 1,70,-1
 1050 988 l 1,71,72
 1001 1008 1001 1008 975 1008 c 0,73,74
 962 1008 962 1008 937 999 c 1,75,76
 921 992 921 992 919 991 c 1,77,78
 927 971 927 971 941 931 c 1,79,80
 963 861 963 861 963 820 c 0,81,82
 963 682 963 682 862 573 c 0,83,84
 813 521 813 521 737 486 c 0,85,86
 663 453 663 453 565 465 c 1,87,88
 536 465 536 465 496 467 c 128,-1,89
 456 469 456 469 445 469 c 1,90,91
 402 457 402 457 386 442 c 1,92,93
 370 429 370 429 370 374 c 0,94,95
 370 345 370 345 390.5 325.5 c 128,-1,96
 411 306 411 306 442 302 c 1,97,-1
 714 281 l 2,98,99
 883 268 883 268 961 198 c 0,100,101
 1053 117 1053 117 1053 -20 c 0,102,103
 1053 -83 1053 -83 1029.5 -135.5 c 128,-1,104
 1006 -188 1006 -188 964.5 -224 c 128,-1,105
 923 -260 923 -260 871 -287 c 128,-1,106
 819 -314 819 -314 758.5 -329 c 128,-1,107
 698 -344 698 -344 640.5 -351 c 128,-1,108
 583 -358 583 -358 526 -358 c 0,109,110
 297 -358 297 -358 170.5 -293.5 c 128,-1,111
 44 -229 44 -229 44 -123 c 0,37,38
EndSplineSet
EndChar

StartChar: Hbar
Encoding: 294 294 234
Width: 1179
GlyphClass: 2
Flags: W
LayerCount: 2
UndoRedoHistory
Layer: 1
Undoes
EndUndoes
Redoes
EndRedoes
EndUndoRedoHistory
Fore
SplineSet
445 913 m 1,0,-1
 733 913 l 1,1,-1
 733 1162 l 1,2,-1
 445 1162 l 1,3,-1
 445 913 l 1,0,-1
26 1162 m 1,4,-1
 26 1344 l 1,5,-1
 145 1344 l 1,6,-1
 145 1512 l 1,7,-1
 445 1536 l 1,8,-1
 445 1344 l 1,9,-1
 733 1344 l 1,10,-1
 733 1512 l 1,11,-1
 1033 1536 l 1,12,-1
 1033 1344 l 1,13,-1
 1139 1344 l 1,14,-1
 1139 1162 l 1,15,-1
 1033 1162 l 1,16,-1
 1033 12 l 1,17,-1
 733 -12 l 1,18,-1
 733 639 l 1,19,-1
 445 639 l 1,20,-1
 445 12 l 1,21,-1
 145 -12 l 1,22,-1
 145 1162 l 1,23,-1
 26 1162 l 1,4,-1
EndSplineSet
EndChar

StartChar: hbar
Encoding: 295 295 235
Width: 1104
GlyphClass: 2
Flags: W
LayerCount: 2
UndoRedoHistory
Layer: 1
Undoes
EndUndoes
Redoes
EndRedoes
EndUndoRedoHistory
Fore
SplineSet
700 -12 m 1,0,-1
 700 773 l 2,1,2
 700 848 700 848 672.5 885 c 128,-1,3
 645 922 645 922 600 922 c 0,4,5
 564 922 564 922 523 903.5 c 128,-1,6
 482 885 482 885 412 843 c 1,7,-1
 412 12 l 1,8,-1
 124 -12 l 1,9,-1
 124 1248 l 1,10,-1
 -32 1248 l 1,11,-1
 -32 1440 l 1,12,-1
 124 1440 l 1,13,-1
 124 1500 l 1,14,-1
 412 1536 l 1,15,-1
 412 1440 l 1,16,-1
 639 1440 l 1,17,-1
 639 1248 l 1,18,-1
 412 1248 l 1,19,-1
 412 1005 l 1,20,21
 586 1167 586 1167 742 1167 c 0,22,23
 851 1167 851 1167 919.5 1088 c 128,-1,24
 988 1009 988 1009 988 876 c 2,25,-1
 988 12 l 1,26,-1
 700 -12 l 1,0,-1
EndSplineSet
EndChar

StartChar: dotlessi
Encoding: 305 305 245
Width: 536
GlyphClass: 2
Flags: W
AnchorPoint: "Anchor-0" 275 1158 basechar 0
LayerCount: 2
UndoRedoHistory
Layer: 1
Undoes
EndUndoes
Redoes
EndRedoes
EndUndoRedoHistory
Fore
SplineSet
124 -12 m 1,0,-1
 124 1128 l 1,1,-1
 412 1152 l 1,2,-1
 412 12 l 1,3,-1
 124 -12 l 1,0,-1
EndSplineSet
EndChar

StartChar: Lslash
Encoding: 321 321 260
Width: 985
GlyphClass: 2
Flags: W
LayerCount: 2
UndoRedoHistory
Layer: 1
Undoes
EndUndoes
Redoes
EndRedoes
EndUndoRedoHistory
Fore
SplineSet
156 1512 m 1,0,-1
 455 1536 l 1,1,-1
 455 975 l 1,2,-1
 670 1006 l 1,3,-1
 670 768 l 1,4,-1
 455 737 l 1,5,-1
 455 240 l 1,6,-1
 975 240 l 1,7,-1
 927 0 l 1,8,-1
 156 0 l 1,9,-1
 156 694 l 1,10,-1
 -2 672 l 1,11,-1
 -2 910 l 1,12,-1
 156 932 l 1,13,-1
 156 1512 l 1,0,-1
EndSplineSet
EndChar

StartChar: lslash
Encoding: 322 322 261
Width: 583
GlyphClass: 2
Flags: W
LayerCount: 2
UndoRedoHistory
Layer: 1
Undoes
EndUndoes
Redoes
EndRedoes
EndUndoRedoHistory
Fore
SplineSet
156 -12 m 1,0,-1
 156 616 l 1,1,-1
 -1 576 l 1,2,-1
 -1 814 l 1,3,-1
 156 854 l 1,4,-1
 156 1500 l 1,5,-1
 444 1536 l 1,6,-1
 444 927 l 1,7,-1
 575 960 l 1,8,-1
 575 722 l 1,9,-1
 444 689 l 1,10,-1
 444 12 l 1,11,-1
 156 -12 l 1,0,-1
EndSplineSet
EndChar

StartChar: napostrophe
Encoding: 329 329 268
Width: 1104
GlyphClass: 2
Flags: W
LayerCount: 2
UndoRedoHistory
Layer: 1
Undoes
EndUndoes
Redoes
EndRedoes
EndUndoRedoHistory
Fore
SplineSet
71 1785 m 1,0,-1
 359 1785 l 1,1,-1
 359 1497 l 2,2,3
 359 1315 359 1315 239 1245 c 0,4,5
 186 1214 186 1214 119 1209 c 1,6,-1
 119 1401 l 1,7,8
 179 1401 179 1401 203 1449 c 0,9,10
 214 1470 214 1470 215 1497 c 1,11,-1
 71 1497 l 1,12,-1
 71 1785 l 1,0,-1
700 -12 m 1,13,-1
 700 769 l 2,14,15
 700 922 700 922 595 922 c 0,16,17
 571 922 571 922 536.5 908.5 c 128,-1,18
 502 895 502 895 480.5 882.5 c 128,-1,19
 459 870 459 870 412 842 c 1,20,-1
 412 12 l 1,21,-1
 124 -12 l 1,22,-1
 124 1128 l 1,23,-1
 412 1152 l 1,24,-1
 412 1005 l 1,25,26
 598 1167 598 1167 742 1167 c 0,27,28
 851 1167 851 1167 919.5 1088 c 128,-1,29
 988 1009 988 1009 988 876 c 2,30,-1
 988 12 l 1,31,-1
 700 -12 l 1,13,-1
EndSplineSet
EndChar

StartChar: Eng
Encoding: 330 330 269
Width: 1245
GlyphClass: 2
Flags: W
LayerCount: 2
UndoRedoHistory
Layer: 1
Undoes
EndUndoes
Redoes
EndRedoes
EndUndoRedoHistory
Fore
SplineSet
628 -287 m 1,0,1
 628 -84 l 1,2,3
 669 -98 669 -98 708 -98 c 0,4,5
 742 -98 742 -98 767.5 -90.5 c 128,-1,6
 793 -83 793 -83 808 -65 c 128,-1,7
 823 -47 823 -47 832 -30.5 c 128,-1,8
 841 -14 841 -14 844.5 16.5 c 128,-1,9
 848 47 848 47 849 65.5 c 128,-1,10
 850 84 850 84 850 120 c 2,11,-1
 850 143 l 1,12,-1
 409 998 l 1,13,-1
 409 12 l 1,14,-1
 141 0 l 1,15,-1
 141 1524 l 1,16,-1
 454 1536 l 1,17,-1
 850 722 l 1,18,-1
 850 1512 l 1,19,-1
 1104 1536 l 1,20,-1
 1104 95 l 2,21,22
 1104 0 1104 0 1089.5 -73 c 128,-1,23
 1075 -146 1075 -146 1042.5 -202 c 128,-1,24
 1010 -258 1010 -258 954 -287.5 c 128,-1,25
 898 -317 898 -317 820 -317 c 0,26,27
 739 -317 739 -317 628 -287 c 1,0,1
EndSplineSet
EndChar

StartChar: eng
Encoding: 331 331 270
Width: 1105
GlyphClass: 2
Flags: W
LayerCount: 2
UndoRedoHistory
Layer: 1
Undoes
EndUndoes
Redoes
EndRedoes
EndUndoRedoHistory
Fore
SplineSet
541 -269 m 1,0,1
 541 -96 l 1,2,3
 597 -96 597 -96 629 -89 c 128,-1,4
 661 -82 661 -82 676.5 -61.5 c 128,-1,5
 692 -41 692 -41 696 -17 c 128,-1,6
 700 7 700 7 700 54 c 2,7,-1
 700 769 l 2,8,9
 700 922 700 922 595 922 c 0,10,11
 571 922 571 922 536.5 908.5 c 128,-1,12
 502 895 502 895 480.5 882.5 c 128,-1,13
 459 870 459 870 412 842 c 1,14,-1
 412 12 l 1,15,-1
 124 -12 l 1,16,-1
 124 1128 l 1,17,-1
 412 1152 l 1,18,-1
 412 1005 l 1,19,20
 598 1167 598 1167 742 1167 c 0,21,22
 851 1167 851 1167 919.5 1088 c 128,-1,23
 988 1009 988 1009 988 876 c 2,24,-1
 988 54 l 2,25,26
 988 -6 988 -6 987.5 -34.5 c 128,-1,27
 987 -63 987 -63 982.5 -107.5 c 128,-1,28
 978 -152 978 -152 968 -172.5 c 128,-1,29
 958 -193 958 -193 940 -220.5 c 128,-1,30
 922 -248 922 -248 895 -259.5 c 128,-1,31
 868 -271 868 -271 827.5 -279.5 c 128,-1,32
 787 -288 787 -288 733 -288 c 0,33,34
 652 -288 652 -288 541 -269 c 1,0,1
EndSplineSet
EndChar

StartChar: OE
Encoding: 338 338 277
Width: 1617
GlyphClass: 2
Flags: W
LayerCount: 2
UndoRedoHistory
Layer: 1
Undoes
EndUndoes
Redoes
EndRedoes
EndUndoRedoHistory
Fore
SplineSet
561 228 m 0,0,1
 621 228 621 228 662 258 c 128,-1,2
 703 288 703 288 726 349 c 128,-1,3
 749 410 749 410 758.5 489.5 c 128,-1,4
 768 569 768 569 768 681 c 2,5,-1
 768 884 l 2,6,7
 768 961 768 961 759 1029 c 128,-1,8
 750 1097 750 1097 728.5 1163 c 128,-1,9
 707 1229 707 1229 664 1268 c 128,-1,10
 621 1307 621 1307 561 1307 c 0,11,12
 522 1307 522 1307 491.5 1284 c 128,-1,13
 461 1261 461 1261 442.5 1218 c 128,-1,14
 424 1175 424 1175 411.5 1128 c 128,-1,15
 399 1081 399 1081 394 1019 c 128,-1,16
 389 957 389 957 387 911.5 c 128,-1,17
 385 866 385 866 385 810 c 0,18,19
 385 724 385 724 386.5 663.5 c 128,-1,20
 388 603 388 603 392 537.5 c 128,-1,21
 396 472 396 472 404 428.5 c 128,-1,22
 412 385 412 385 425 344 c 128,-1,23
 438 303 438 303 456.5 279.5 c 128,-1,24
 475 256 475 256 501 242 c 128,-1,25
 527 228 527 228 561 228 c 0,0,1
768 1424 m 1,26,27
 768 1536 l 1,28,-1
 1542 1536 l 1,29,-1
 1542 1296 l 1,30,-1
 1068 1296 l 1,31,-1
 1068 930 l 1,32,-1
 1367 930 l 1,33,-1
 1367 672 l 1,34,-1
 1068 672 l 1,35,-1
 1068 240 l 1,36,-1
 1558 240 l 1,37,-1
 1558 0 l 1,38,-1
 768 0 l 1,39,-1
 768 96 l 1,40,41
 690 -27 690 -27 561 -27 c 0,42,43
 479 -27 479 -27 411 -2.5 c 128,-1,44
 343 22 343 22 294.5 64 c 128,-1,45
 246 106 246 106 209 168.5 c 128,-1,46
 172 231 172 231 149 301 c 128,-1,47
 126 371 126 371 111.5 458 c 128,-1,48
 97 545 97 545 91.5 629 c 128,-1,49
 86 713 86 713 86 810 c 0,50,51
 86 977 86 977 114 1110 c 128,-1,52
 142 1243 142 1243 198.5 1341.5 c 128,-1,53
 255 1440 255 1440 347 1493 c 128,-1,54
 439 1546 439 1546 561 1546 c 0,55,56
 688 1546 688 1546 768 1424 c 1,26,27
EndSplineSet
EndChar

StartChar: oe
Encoding: 339 339 278
Width: 1539
GlyphClass: 2
Flags: W
LayerCount: 2
UndoRedoHistory
Layer: 1
Undoes
EndUndoes
Redoes
EndRedoes
EndUndoRedoHistory
Fore
SplineSet
932 702 m 1,0,1
 1207 702 l 1,2,3
 1207 824 1207 824 1174.5 896.5 c 128,-1,4
 1142 969 1142 969 1072 969 c 0,5,6
 1018 969 1018 969 975 891 c 128,-1,7
 932 813 932 813 932 702 c 1,0,1
500 187 m 0,8,9
 534 187 534 187 560 205 c 128,-1,10
 586 223 586 223 601 258 c 128,-1,11
 616 293 616 293 625.5 327.5 c 128,-1,12
 635 362 635 362 639 413.5 c 128,-1,13
 643 465 643 465 644 497 c 128,-1,14
 645 529 645 529 645 577 c 0,15,16
 645 623 645 623 644 655 c 128,-1,17
 643 687 643 687 639 738 c 128,-1,18
 635 789 635 789 625.5 823.5 c 128,-1,19
 616 858 616 858 601 893 c 128,-1,20
 586 928 586 928 560.5 946 c 128,-1,21
 535 964 535 964 501 964 c 0,22,23
 475 964 475 964 453.5 954 c 128,-1,24
 432 944 432 944 417.5 922.5 c 128,-1,25
 403 901 403 901 392.5 879 c 128,-1,26
 382 857 382 857 375.5 821.5 c 128,-1,27
 369 786 369 786 365 761.5 c 128,-1,28
 361 737 361 737 360 695.5 c 128,-1,29
 359 654 359 654 358.5 634.5 c 128,-1,30
 358 615 358 615 358 577 c 0,31,32
 358 538 358 538 358.5 518 c 128,-1,33
 359 498 359 498 360 456.5 c 128,-1,34
 361 415 361 415 365 390 c 128,-1,35
 369 365 369 365 375.5 329 c 128,-1,36
 382 293 382 293 392.5 271.5 c 128,-1,37
 403 250 403 250 417.5 228.5 c 128,-1,38
 432 207 432 207 453 197 c 128,-1,39
 474 187 474 187 500 187 c 0,8,9
1482 536 m 1,40,-1
 932 536 l 1,41,42
 932 477 932 477 939.5 419 c 128,-1,43
 947 361 947 361 962.5 306.5 c 128,-1,44
 978 252 978 252 1006.5 218.5 c 128,-1,45
 1035 185 1035 185 1072 185 c 0,46,47
 1093 185 1093 185 1114.5 198 c 128,-1,48
 1136 211 1136 211 1151.5 229.5 c 128,-1,49
 1167 248 1167 248 1182.5 273.5 c 128,-1,50
 1198 299 1198 299 1206.5 317 c 128,-1,51
 1215 335 1215 335 1224 354 c 2,52,-1
 1232 373 l 1,53,-1
 1450 290 l 1,54,55
 1408 142 1408 142 1313 57.5 c 128,-1,56
 1218 -27 1218 -27 1067 -27 c 0,57,58
 978 -27 978 -27 911.5 13 c 128,-1,59
 845 53 845 53 791 132 c 1,60,61
 740 56 740 56 664.5 14.5 c 128,-1,62
 589 -27 589 -27 502 -27 c 0,63,64
 361 -27 361 -27 262.5 50.5 c 128,-1,65
 164 128 164 128 117 262 c 128,-1,66
 70 396 70 396 70 577 c 0,67,68
 70 752 70 752 117 883 c 128,-1,69
 164 1014 164 1014 263 1090.5 c 128,-1,70
 362 1167 362 1167 502 1167 c 0,71,72
 589 1167 589 1167 665.5 1122.5 c 128,-1,73
 742 1078 742 1078 793 997 c 1,74,75
 849 1082 849 1082 917 1124.5 c 128,-1,76
 985 1167 985 1167 1077 1167 c 0,77,78
 1277 1167 1277 1167 1383.5 1005 c 128,-1,79
 1490 843 1490 843 1490 570 c 1,80,-1
 1486 556 l 2,81,82
 1482 545 1482 545 1482 536 c 1,40,-1
EndSplineSet
EndChar

StartChar: Tbar
Encoding: 358 358 297
Width: 977
GlyphClass: 2
Flags: W
LayerCount: 2
UndoRedoHistory
Layer: 1
Undoes
EndUndoes
Redoes
EndRedoes
EndUndoRedoHistory
Fore
SplineSet
641 612 m 1,0,-1
 641 12 l 1,1,-1
 341 -12 l 1,2,-1
 341 612 l 1,3,-1
 194 612 l 1,4,-1
 194 804 l 1,5,-1
 341 804 l 1,6,-1
 341 1296 l 1,7,-1
 28 1296 l 1,8,-1
 52 1536 l 1,9,-1
 952 1536 l 1,10,-1
 928 1296 l 1,11,-1
 641 1296 l 1,12,-1
 641 804 l 1,13,-1
 770 804 l 1,14,-1
 770 612 l 1,15,-1
 641 612 l 1,0,-1
EndSplineSet
EndChar

StartChar: tbar
Encoding: 359 359 298
Width: 733
GlyphClass: 2
Flags: W
LayerCount: 2
UndoRedoHistory
Layer: 1
Undoes
EndUndoes
Redoes
EndRedoes
EndUndoRedoHistory
Fore
SplineSet
41 1152 m 1,0,-1
 198 1152 l 1,1,-1
 227 1402 l 1,2,-1
 477 1438 l 1,3,-1
 477 1152 l 1,4,-1
 713 1152 l 1,5,-1
 701 936 l 1,6,-1
 478 936 l 1,7,-1
 478 769 l 1,8,-1
 634 769 l 1,9,-1
 634 577 l 1,10,-1
 478 577 l 1,11,-1
 478 301 l 2,12,13
 478 192 478 192 625 192 c 0,14,15
 656 192 656 192 676 195 c 2,16,-1
 697 199 l 1,17,-1
 697 1 l 1,18,19
 671 -8 671 -8 643 -13 c 0,20,21
 571 -27 571 -27 477 -27 c 0,22,23
 427 -27 427 -27 379.5 -13 c 128,-1,24
 332 1 332 1 288 31 c 128,-1,25
 244 61 244 61 217 116 c 128,-1,26
 190 171 190 171 190 244 c 2,27,-1
 190 577 l 1,28,-1
 58 577 l 1,29,-1
 58 769 l 1,30,-1
 190 769 l 1,31,-1
 190 936 l 1,32,-1
 29 936 l 1,33,-1
 41 1152 l 1,0,-1
EndSplineSet
EndChar

StartChar: uni018F
Encoding: 399 399 322
Width: 1109
GlyphClass: 2
Flags: W
LayerCount: 2
UndoRedoHistory
Layer: 1
Undoes
EndUndoes
Redoes
EndRedoes
EndUndoRedoHistory
Fore
SplineSet
545 223 m 128,-1,1
 634 223 634 223 672 314.5 c 128,-1,2
 710 406 710 406 719 595 c 1,3,-1
 373 595 l 1,4,5
 382 406 382 406 419 314.5 c 128,-1,0
 456 223 456 223 545 223 c 128,-1,1
70 816 m 1,6,7
 723 816 l 1,8,-1
 723 820 l 2,9,10
 723 878 723 878 721 925 c 128,-1,11
 719 972 719 972 713.5 1036 c 128,-1,12
 708 1100 708 1100 696 1147.5 c 128,-1,13
 684 1195 684 1195 665 1238.5 c 128,-1,14
 646 1282 646 1282 615.5 1305.5 c 128,-1,15
 585 1329 585 1329 545 1329 c 0,16,17
 404 1329 404 1329 365 1044 c 1,18,-1
 88 1141 l 1,19,20
 137 1346 137 1346 251 1457 c 128,-1,21
 365 1568 365 1568 545 1568 c 0,22,23
 668 1568 668 1568 760 1515 c 128,-1,24
 852 1462 852 1462 909.5 1362.5 c 128,-1,25
 967 1263 967 1263 995 1127.5 c 128,-1,26
 1023 992 1023 992 1023 820 c 0,27,28
 1023 705 1023 705 1014.5 606.5 c 128,-1,29
 1006 508 1006 508 986.5 408.5 c 128,-1,30
 967 309 967 309 931.5 232 c 128,-1,31
 896 155 896 155 844.5 94 c 128,-1,32
 793 33 793 33 717 0.5 c 128,-1,33
 641 -32 641 -32 545 -32 c 0,34,35
 463 -32 463 -32 395 -7 c 128,-1,36
 327 18 327 18 278.5 61 c 128,-1,37
 230 104 230 104 193 167.5 c 128,-1,38
 156 231 156 231 133 302.5 c 128,-1,39
 110 374 110 374 95.5 461.5 c 128,-1,40
 81 549 81 549 75.5 634 c 128,-1,41
 70 719 70 719 70 816 c 1,6,7
EndSplineSet
EndChar

StartChar: florin
Encoding: 402 402 323
Width: 704
GlyphClass: 2
Flags: W
LayerCount: 2
UndoRedoHistory
Layer: 1
Undoes
EndUndoes
Redoes
EndRedoes
EndUndoRedoHistory
Fore
SplineSet
474 627 m 1,0,-1
 474 -22 l 2,1,2
 474 -65 474 -65 473 -92 c 128,-1,3
 472 -119 472 -119 468.5 -158 c 128,-1,4
 465 -197 465 -197 457 -222 c 128,-1,5
 449 -247 449 -247 435.5 -277 c 128,-1,6
 422 -307 422 -307 400.5 -326 c 128,-1,7
 379 -345 379 -345 350 -361.5 c 128,-1,8
 321 -378 321 -378 280 -386 c 128,-1,9
 239 -394 239 -394 188 -394 c 0,10,11
 96 -394 96 -394 38 -379 c 0,12,13
 11 -373 11 -373 -7 -364 c 1,14,-1
 -7 -192 l 1,15,-1
 56 -192 l 2,16,17
 99 -192 99 -192 126.5 -178 c 128,-1,18
 154 -164 154 -164 166 -137 c 128,-1,19
 178 -110 178 -110 182 -84.5 c 128,-1,20
 186 -59 186 -59 186 -21 c 2,21,-1
 186 629 l 1,22,-1
 44 629 l 1,23,-1
 44 864 l 1,24,-1
 186 864 l 1,25,-1
 186 1174 l 2,26,27
 186 1217 186 1217 187 1244 c 128,-1,28
 188 1271 188 1271 191.5 1310 c 128,-1,29
 195 1349 195 1349 203 1374 c 128,-1,30
 211 1399 211 1399 224.5 1429 c 128,-1,31
 238 1459 238 1459 259.5 1478 c 128,-1,32
 281 1497 281 1497 310 1513.5 c 128,-1,33
 339 1530 339 1530 380 1538 c 128,-1,34
 421 1546 421 1546 472 1546 c 0,35,36
 556 1546 556 1546 622 1531 c 0,37,38
 649 1524 649 1524 667 1516 c 1,39,-1
 667 1344 l 1,40,-1
 604 1344 l 2,41,42
 561 1344 561 1344 533.5 1330 c 128,-1,43
 506 1316 506 1316 494 1289 c 128,-1,44
 482 1262 482 1262 478 1236.5 c 128,-1,45
 474 1211 474 1211 474 1173 c 2,46,-1
 474 864 l 1,47,-1
 665 864 l 1,48,-1
 665 627 l 1,49,-1
 474 627 l 1,0,-1
EndSplineSet
EndChar

StartChar: dotlessj
Encoding: 567 567 372
Width: 536
GlyphClass: 2
Flags: W
AnchorPoint: "Anchor-0" 259 1152 basechar 0
LayerCount: 2
UndoRedoHistory
Layer: 1
Undoes
EndUndoes
Redoes
EndRedoes
EndUndoRedoHistory
Fore
SplineSet
-35 -269 m 1,0,1
 -35 -96 l 1,2,3
 21 -96 21 -96 53 -89 c 128,-1,4
 85 -82 85 -82 100.5 -61.5 c 128,-1,5
 116 -41 116 -41 120 -17 c 128,-1,6
 124 7 124 7 124 54 c 2,7,-1
 124 1128 l 1,8,-1
 412 1152 l 1,9,-1
 412 54 l 2,10,11
 412 -6 412 -6 411.5 -34.5 c 128,-1,12
 411 -63 411 -63 406.5 -107.5 c 128,-1,13
 402 -152 402 -152 392 -172.5 c 128,-1,14
 382 -193 382 -193 364 -220.5 c 128,-1,15
 346 -248 346 -248 319 -259.5 c 128,-1,16
 292 -271 292 -271 251.5 -279.5 c 128,-1,17
 211 -288 211 -288 157 -288 c 0,18,19
 76 -288 76 -288 -35 -269 c 1,0,1
EndSplineSet
EndChar

StartChar: schwa
Encoding: 601 601 373
Width: 965
GlyphClass: 2
Flags: W
LayerCount: 2
UndoRedoHistory
Layer: 1
Undoes
EndUndoes
Redoes
EndRedoes
EndUndoRedoHistory
Fore
SplineSet
608 438 m 1,0,1
 333 438 l 1,2,3
 333 358 333 358 346 299 c 128,-1,4
 359 240 359 240 390 203 c 128,-1,5
 421 166 421 166 468 166 c 0,6,7
 522 166 522 166 565 246.5 c 128,-1,8
 608 327 608 327 608 438 c 1,0,1
58 604 m 1,9,-1
 608 604 l 1,10,11
 608 663 608 663 600.5 721 c 128,-1,12
 593 779 593 779 577.5 833.5 c 128,-1,13
 562 888 562 888 533.5 921.5 c 128,-1,14
 505 955 505 955 468 955 c 0,15,16
 447 955 447 955 425.5 942 c 128,-1,17
 404 929 404 929 388.5 910.5 c 128,-1,18
 373 892 373 892 357.5 866.5 c 128,-1,19
 342 841 342 841 333.5 823 c 128,-1,20
 325 805 325 805 316 786 c 2,21,-1
 308 767 l 1,22,-1
 90 850 l 1,23,24
 132 998 132 998 227 1082.5 c 128,-1,25
 322 1167 322 1167 473 1167 c 0,26,27
 610 1167 610 1167 706.5 1090 c 128,-1,28
 803 1013 803 1013 849 880.5 c 128,-1,29
 895 748 895 748 895 570 c 0,30,31
 895 391 895 391 848 257 c 128,-1,32
 801 123 801 123 702.5 45.5 c 128,-1,33
 604 -32 604 -32 463 -32 c 0,34,35
 263 -32 263 -32 156.5 132 c 128,-1,36
 50 296 50 296 50 570 c 1,37,-1
 54 584 l 1,38,39
 58 593 58 593 58 604 c 1,9,-1
EndSplineSet
EndChar

StartChar: circumflex
Encoding: 710 710 374
Width: 739
GlyphClass: 2
Flags: W
LayerCount: 2
UndoRedoHistory
Layer: 1
Undoes
EndUndoes
Redoes
EndRedoes
EndUndoRedoHistory
Fore
SplineSet
242 1248 m 1,0,-1
 32 1248 l 1,1,-1
 272 1728 l 1,2,-1
 474 1728 l 1,3,-1
 704 1248 l 1,4,-1
 454 1248 l 1,5,-1
 358 1538 l 1,6,-1
 242 1248 l 1,0,-1
EndSplineSet
EndChar

StartChar: caron
Encoding: 711 711 375
Width: 768
GlyphClass: 2
Flags: W
LayerCount: 2
UndoRedoHistory
Layer: 1
Undoes
EndUndoes
Redoes
EndRedoes
EndUndoRedoHistory
Fore
SplineSet
32 1728 m 1,0,-1
 242 1728 l 1,1,-1
 358 1438 l 1,2,-1
 454 1728 l 1,3,-1
 704 1728 l 1,4,-1
 474 1248 l 1,5,-1
 272 1248 l 1,6,-1
 32 1728 l 1,0,-1
EndSplineSet
EndChar

StartChar: breve
Encoding: 728 728 376
Width: 1018
GlyphClass: 2
Flags: W
LayerCount: 2
UndoRedoHistory
Layer: 1
Undoes
EndUndoes
Redoes
EndRedoes
EndUndoRedoHistory
Fore
SplineSet
77 1728 m 1,0,1
 317 1728 l 1,2,3
 317 1700 317 1700 317.5 1684 c 128,-1,4
 318 1668 318 1668 321.5 1639 c 128,-1,5
 325 1610 325 1610 332 1592.5 c 128,-1,6
 339 1575 339 1575 353 1553 c 128,-1,7
 367 1531 367 1531 387 1518.5 c 128,-1,8
 407 1506 407 1506 438 1497 c 128,-1,9
 469 1488 469 1488 509 1488 c 128,-1,10
 549 1488 549 1488 580 1497 c 128,-1,11
 611 1506 611 1506 631 1518.5 c 128,-1,12
 651 1531 651 1531 665 1553 c 128,-1,13
 679 1575 679 1575 686 1592.5 c 128,-1,14
 693 1610 693 1610 696.5 1639 c 128,-1,15
 700 1668 700 1668 700.5 1684 c 128,-1,16
 701 1700 701 1700 701 1728 c 1,17,-1
 941 1728 l 1,18,19
 941 1669 941 1669 929 1608 c 128,-1,20
 917 1547 917 1547 885.5 1481 c 128,-1,21
 854 1415 854 1415 807 1364.5 c 128,-1,22
 760 1314 760 1314 682.5 1281 c 128,-1,23
 605 1248 605 1248 509 1248 c 128,-1,24
 413 1248 413 1248 335.5 1281 c 128,-1,25
 258 1314 258 1314 211 1364.5 c 128,-1,26
 164 1415 164 1415 132.5 1481 c 128,-1,27
 101 1547 101 1547 89 1608 c 128,-1,28
 77 1669 77 1669 77 1728 c 1,0,1
EndSplineSet
EndChar

StartChar: dotaccent
Encoding: 729 729 377
Width: 608
GlyphClass: 2
Flags: W
LayerCount: 2
UndoRedoHistory
Layer: 1
Undoes
EndUndoes
Redoes
EndRedoes
EndUndoRedoHistory
Fore
SplineSet
162 1536 m 1,0,-1
 450 1536 l 1,1,-1
 450 1248 l 1,2,-1
 162 1248 l 1,3,-1
 162 1536 l 1,0,-1
EndSplineSet
EndChar

StartChar: ring
Encoding: 730 730 378
Width: 789
GlyphClass: 4
Flags: W
AnchorPoint: "Anchor-0" 359 1144 mark 0
LayerCount: 2
UndoRedoHistory
Layer: 1
Undoes
EndUndoes
Redoes
EndRedoes
EndUndoRedoHistory
Fore
SplineSet
395 1248 m 128,-1,1
 314 1248 314 1248 244.5 1277 c 128,-1,2
 175 1306 175 1306 128.5 1369.5 c 128,-1,3
 82 1433 82 1433 82 1521 c 0,4,5
 82 1607 82 1607 128.5 1670.5 c 128,-1,6
 175 1734 175 1734 244.5 1763 c 128,-1,7
 314 1792 314 1792 395 1792 c 0,8,9
 475 1792 475 1792 544.5 1763 c 128,-1,10
 614 1734 614 1734 660.5 1670.5 c 128,-1,11
 707 1607 707 1607 707 1521 c 0,12,13
 707 1433 707 1433 660.5 1369.5 c 128,-1,14
 614 1306 614 1306 545 1277 c 128,-1,0
 476 1248 476 1248 395 1248 c 128,-1,1
394 1407 m 0,15,16
 443 1407 443 1407 480.5 1437 c 128,-1,17
 518 1467 518 1467 518 1520 c 0,18,19
 518 1570 518 1570 480.5 1600.5 c 128,-1,20
 443 1631 443 1631 395 1631 c 0,21,22
 345 1631 345 1631 308 1601 c 128,-1,23
 271 1571 271 1571 271 1520 c 0,24,25
 271 1467 271 1467 308 1437 c 0,26,27
 345 1407 345 1407 394 1407 c 0,15,16
EndSplineSet
EndChar

StartChar: ogonek
Encoding: 731 731 379
Width: 544
GlyphClass: 4
Flags: W
AnchorPoint: "Anchor-2" 218 0 mark 0
LayerCount: 2
UndoRedoHistory
Layer: 1
Undoes
EndUndoes
Redoes
EndRedoes
EndUndoRedoHistory
Fore
SplineSet
324 20 m 1,0,-1
 294 -101 l 2,1,2
 289 -121 289 -121 289 -130 c 0,3,4
 289 -191 289 -191 368 -191 c 0,5,6
 439 -191 439 -191 517 -156 c 1,7,-1
 517 -321 l 1,8,9
 488 -351 488 -351 434 -368 c 128,-1,10
 380 -385 380 -385 319 -385 c 0,11,12
 222 -385 222 -385 152.5 -342.5 c 128,-1,13
 83 -300 83 -300 83 -218 c 0,14,15
 83 -190 83 -190 100 -148 c 1,16,-1
 162 20 l 1,17,-1
 324 20 l 1,0,-1
EndSplineSet
EndChar

StartChar: tilde
Encoding: 732 732 380
Width: 860
GlyphClass: 4
Flags: W
AnchorPoint: "Anchor-0" 405 1088 mark 0
LayerCount: 2
UndoRedoHistory
Layer: 1
Undoes
EndUndoes
Redoes
EndRedoes
EndUndoRedoHistory
Fore
SplineSet
133 1231 m 1,0,1
 118 1415 l 1,2,3
 146 1448 146 1448 181 1476 c 0,4,5
 254 1537 254 1537 311 1537 c 0,6,7
 367 1537 367 1537 444.5 1497 c 128,-1,8
 522 1457 522 1457 562 1457 c 0,9,10
 627 1457 627 1457 675 1497 c 0,11,12
 697 1516 697 1516 711 1537 c 1,13,-1
 755 1375 l 2,14,15
 755 1373 755 1373 747 1358.5 c 128,-1,16
 739 1344 739 1344 722 1322 c 128,-1,17
 705 1300 705 1300 683.5 1279.5 c 128,-1,18
 662 1259 662 1259 630 1244.5 c 128,-1,19
 598 1230 598 1230 564 1230 c 0,20,21
 532 1230 532 1230 498 1246 c 128,-1,22
 464 1262 464 1262 438.5 1280.5 c 128,-1,23
 413 1299 413 1299 375.5 1315 c 128,-1,24
 338 1331 338 1331 300 1331 c 0,25,26
 248 1331 248 1331 186 1281 c 0,27,28
 158 1259 158 1259 133 1231 c 1,0,1
EndSplineSet
EndChar

StartChar: hungarumlaut
Encoding: 733 733 381
Width: 1102
GlyphClass: 4
Flags: W
AnchorPoint: "Anchor-0" 376 1035 mark 0
LayerCount: 2
UndoRedoHistory
Layer: 1
Undoes
EndUndoes
Redoes
EndRedoes
EndUndoRedoHistory
Fore
SplineSet
180 1150 m 1,0,-1
 61 1248 l 1,1,-1
 330 1728 l 1,2,-1
 564 1534 l 1,3,-1
 180 1150 l 1,0,-1
683 1150 m 1,4,-1
 564 1248 l 1,5,-1
 833 1728 l 1,6,-1
 1067 1534 l 1,7,-1
 683 1150 l 1,4,-1
EndSplineSet
EndChar

StartChar: dblgravecmb
Encoding: 783 783 382
Width: 1102
GlyphClass: 4
Flags: W
AnchorPoint: "Anchor-0" 612 1152 mark 0
LayerCount: 2
UndoRedoHistory
Layer: 1
Undoes
EndUndoes
Redoes
EndRedoes
EndUndoRedoHistory
Fore
SplineSet
503 1346 m 1,0,-1
 384 1248 l 1,1,-1
 0 1632 l 1,2,-1
 234 1826 l 1,3,-1
 503 1346 l 1,0,-1
899 1320 m 1,4,-1
 762 1250 l 1,5,-1
 469 1708 l 1,6,-1
 739 1847 l 1,7,-1
 899 1320 l 1,4,-1
EndSplineSet
EndChar

StartChar: uni0311
Encoding: 785 785 383
Width: 1018
GlyphClass: 4
Flags: W
AnchorPoint: "Anchor-0" 473 1127 mark 0
LayerCount: 2
UndoRedoHistory
Layer: 1
Undoes
EndUndoes
Redoes
EndRedoes
EndUndoRedoHistory
Fore
SplineSet
317 1248 m 1,0,1
 77 1248 l 1,2,3
 77 1307 77 1307 89 1368 c 128,-1,4
 101 1429 101 1429 132.5 1495 c 128,-1,5
 164 1561 164 1561 211 1611.5 c 128,-1,6
 258 1662 258 1662 335.5 1695 c 128,-1,7
 413 1728 413 1728 509 1728 c 128,-1,8
 605 1728 605 1728 682.5 1695 c 128,-1,9
 760 1662 760 1662 807 1611.5 c 128,-1,10
 854 1561 854 1561 885.5 1495 c 128,-1,11
 917 1429 917 1429 929 1368 c 128,-1,12
 941 1307 941 1307 941 1248 c 1,13,-1
 701 1248 l 1,14,15
 701 1276 701 1276 700.5 1292 c 128,-1,16
 700 1308 700 1308 696.5 1337 c 128,-1,17
 693 1366 693 1366 686 1383.5 c 128,-1,18
 679 1401 679 1401 665 1423 c 128,-1,19
 651 1445 651 1445 631 1457.5 c 128,-1,20
 611 1470 611 1470 580 1479 c 128,-1,21
 549 1488 549 1488 509 1488 c 128,-1,22
 469 1488 469 1488 438 1479 c 128,-1,23
 407 1470 407 1470 387 1457.5 c 128,-1,24
 367 1445 367 1445 353 1423 c 128,-1,25
 339 1401 339 1401 332 1383.5 c 128,-1,26
 325 1366 325 1366 321.5 1337 c 128,-1,27
 318 1308 318 1308 317.5 1292 c 128,-1,28
 317 1276 317 1276 317 1248 c 1,0,1
EndSplineSet
EndChar

StartChar: Sigma
Encoding: 931 931 384
Width: 1008
GlyphClass: 2
Flags: W
LayerCount: 2
UndoRedoHistory
Layer: 1
Undoes
EndUndoes
Redoes
EndRedoes
EndUndoRedoHistory
Fore
SplineSet
51 190 m 1,0,-1
 581 1296 l 1,1,-1
 98 1296 l 1,2,-1
 122 1536 l 1,3,-1
 935 1536 l 1,4,-1
 935 1337 l 1,5,-1
 421 240 l 1,6,-1
 949 240 l 1,7,-1
 901 0 l 1,8,-1
 51 0 l 1,9,-1
 51 190 l 1,0,-1
EndSplineSet
EndChar

StartChar: pi
Encoding: 960 960 386
Width: 538
GlyphClass: 2
Flags: W
LayerCount: 2
UndoRedoHistory
Layer: 1
Undoes
EndUndoes
Redoes
EndRedoes
EndUndoRedoHistory
Fore
SplineSet
-20 1248 m 1,0,-1
 -20 1440 l 1,1,-1
 556 1440 l 1,2,-1
 556 1248 l 1,3,-1
 -20 1248 l 1,0,-1
126 -12 m 1,4,-1
 126 -12 l 1,5,-1
 124 -12 l 1,6,-1
 124 1128 l 1,7,-1
 412 1152 l 1,8,-1
 412 1152 l 1,9,-1
 414 1152 l 1,10,-1
 414 12 l 1,11,-1
 126 -12 l 1,4,-1
EndSplineSet
EndChar

StartChar: endash
Encoding: 8211 8211 401
Width: 804
GlyphClass: 2
Flags: W
LayerCount: 2
UndoRedoHistory
Layer: 1
Undoes
EndUndoes
Redoes
EndRedoes
EndUndoRedoHistory
Fore
SplineSet
114 480 m 1,0,-1
 114 718 l 1,1,-1
 690 718 l 1,2,-1
 690 480 l 1,3,-1
 114 480 l 1,0,-1
EndSplineSet
EndChar

StartChar: emdash
Encoding: 8212 8212 402
Width: 1379
GlyphClass: 2
Flags: W
LayerCount: 2
UndoRedoHistory
Layer: 1
Undoes
EndUndoes
Redoes
EndRedoes
EndUndoRedoHistory
Fore
SplineSet
114 480 m 1,0,-1
 114 718 l 1,1,-1
 1266 718 l 1,2,-1
 1266 480 l 1,3,-1
 114 480 l 1,0,-1
EndSplineSet
EndChar

StartChar: quoteleft
Encoding: 8216 8216 403
Width: 524
GlyphClass: 2
Flags: W
LayerCount: 2
UndoRedoHistory
Layer: 1
Undoes
EndUndoes
Redoes
EndRedoes
EndUndoRedoHistory
Fore
SplineSet
434 930 m 1,0,-1
 97 918 l 1,1,-1
 97 1248 l 2,2,3
 97 1426 97 1426 241 1500 c 0,4,5
 304 1532 304 1532 386 1536 c 1,6,-1
 386 1344 l 1,7,8
 297 1344 297 1344 259 1296 c 0,9,10
 242 1275 242 1275 241 1248 c 1,11,-1
 434 1248 l 1,12,-1
 434 930 l 1,0,-1
EndSplineSet
EndChar

StartChar: quoteright
Encoding: 8217 8217 404
Width: 458
GlyphClass: 2
Flags: W
LayerCount: 2
UndoRedoHistory
Layer: 1
Undoes
EndUndoes
Redoes
EndRedoes
EndUndoRedoHistory
Fore
SplineSet
87 1536 m 1,0,-1
 375 1536 l 1,1,-1
 375 1248 l 2,2,3
 375 1066 375 1066 255 996 c 0,4,5
 202 964 202 964 135 960 c 1,6,-1
 135 1152 l 1,7,8
 195 1152 195 1152 219 1200 c 0,9,10
 230 1221 230 1221 231 1248 c 1,11,-1
 87 1236 l 1,12,-1
 87 1536 l 1,0,-1
EndSplineSet
EndChar

StartChar: quotesinglbase
Encoding: 8218 8218 405
Width: 489
GlyphClass: 2
Flags: W
LayerCount: 2
UndoRedoHistory
Layer: 1
Undoes
EndUndoes
Redoes
EndRedoes
EndUndoRedoHistory
Fore
SplineSet
100 288 m 1,0,-1
 388 288 l 1,1,-1
 388 0 l 2,2,3
 388 -182 388 -182 268 -252 c 1,4,5
 216 -284 216 -284 148 -288 c 1,6,-1
 148 -96 l 1,7,8
 208 -96 208 -96 232 -48 c 0,9,10
 242 -27 242 -27 244 0 c 1,11,-1
 100 0 l 1,12,-1
 100 288 l 1,0,-1
EndSplineSet
EndChar

StartChar: quotedblleft
Encoding: 8220 8220 406
Width: 859
GlyphClass: 2
Flags: W
LayerCount: 2
UndoRedoHistory
Layer: 1
Undoes
EndUndoes
Redoes
EndRedoes
EndUndoRedoHistory
Fore
SplineSet
768 960 m 1,0,-1
 480 948 l 1,1,-1
 480 1248 l 2,2,3
 480 1426 480 1426 600 1500 c 0,4,5
 652 1532 652 1532 720 1536 c 1,6,-1
 720 1344 l 1,7,8
 660 1344 660 1344 636 1296 c 0,9,10
 626 1275 626 1275 624 1248 c 1,11,-1
 768 1248 l 1,12,-1
 768 960 l 1,0,-1
384 960 m 1,13,-1
 96 948 l 1,14,-1
 96 1248 l 2,15,16
 96 1426 96 1426 216 1500 c 0,17,18
 268 1532 268 1532 336 1536 c 1,19,-1
 336 1344 l 1,20,21
 276 1344 276 1344 252 1296 c 0,22,23
 242 1275 242 1275 240 1248 c 1,24,-1
 384 1248 l 1,25,-1
 384 960 l 1,13,-1
EndSplineSet
EndChar

StartChar: quotedblright
Encoding: 8221 8221 407
Width: 842
GlyphClass: 2
Flags: W
LayerCount: 2
UndoRedoHistory
Layer: 1
Undoes
EndUndoes
Redoes
EndRedoes
EndUndoRedoHistory
Fore
SplineSet
87 1536 m 1,0,-1
 375 1536 l 1,1,-1
 375 1248 l 2,2,3
 375 1066 375 1066 255 996 c 0,4,5
 202 964 202 964 135 960 c 1,6,-1
 135 1152 l 1,7,8
 195 1152 195 1152 219 1200 c 0,9,10
 230 1221 230 1221 231 1248 c 1,11,-1
 87 1236 l 1,12,-1
 87 1536 l 1,0,-1
471 1536 m 1,13,-1
 759 1536 l 1,14,-1
 759 1248 l 2,15,16
 759 1066 759 1066 639 996 c 0,17,18
 586 964 586 964 519 960 c 1,19,-1
 519 1152 l 1,20,21
 579 1152 579 1152 603 1200 c 0,22,23
 614 1221 614 1221 615 1248 c 1,24,-1
 471 1236 l 1,25,-1
 471 1536 l 1,13,-1
EndSplineSet
EndChar

StartChar: quotedblbase
Encoding: 8222 8222 408
Width: 873
GlyphClass: 2
Flags: W
LayerCount: 2
UndoRedoHistory
Layer: 1
Undoes
EndUndoes
Redoes
EndRedoes
EndUndoRedoHistory
Fore
SplineSet
100 288 m 1,0,-1
 388 288 l 1,1,-1
 388 0 l 2,2,3
 388 -182 388 -182 268 -252 c 1,4,5
 216 -284 216 -284 148 -288 c 1,6,-1
 148 -96 l 1,7,8
 208 -96 208 -96 232 -48 c 0,9,10
 242 -27 242 -27 244 0 c 1,11,-1
 100 0 l 1,12,-1
 100 288 l 1,0,-1
484 288 m 1,13,-1
 772 288 l 1,14,-1
 772 0 l 2,15,16
 772 -182 772 -182 652 -252 c 1,17,18
 600 -284 600 -284 532 -288 c 1,19,-1
 532 -96 l 1,20,21
 592 -96 592 -96 616 -48 c 0,22,23
 626 -27 626 -27 628 0 c 1,24,-1
 484 0 l 1,25,-1
 484 288 l 1,13,-1
EndSplineSet
EndChar

StartChar: dagger
Encoding: 8224 8224 409
Width: 768
GlyphClass: 2
Flags: W
LayerCount: 2
UndoRedoHistory
Layer: 1
Undoes
EndUndoes
Redoes
EndRedoes
EndUndoRedoHistory
Fore
SplineSet
60 1152 m 1,0,-1
 264 1152 l 1,1,-1
 264 1428 l 1,2,-1
 504 1440 l 1,3,-1
 504 1152 l 1,4,-1
 720 1152 l 1,5,-1
 708 960 l 1,6,-1
 504 960 l 1,7,-1
 504 192 l 1,8,-1
 264 180 l 1,9,-1
 264 960 l 1,10,-1
 48 960 l 1,11,-1
 60 1152 l 1,0,-1
EndSplineSet
EndChar

StartChar: daggerdbl
Encoding: 8225 8225 410
Width: 822
GlyphClass: 2
Flags: W
LayerCount: 2
UndoRedoHistory
Layer: 1
Undoes
EndUndoes
Redoes
EndRedoes
EndUndoRedoHistory
Fore
SplineSet
88 1152 m 1,0,-1
 292 1152 l 1,1,-1
 292 1428 l 1,2,-1
 532 1440 l 1,3,-1
 532 1152 l 1,4,-1
 748 1152 l 1,5,-1
 736 960 l 1,6,-1
 532 960 l 1,7,-1
 532 672 l 1,8,-1
 748 672 l 1,9,-1
 736 480 l 1,10,-1
 532 480 l 1,11,-1
 532 192 l 1,12,-1
 292 180 l 1,13,-1
 292 480 l 1,14,-1
 76 480 l 1,15,-1
 88 672 l 1,16,-1
 292 672 l 1,17,-1
 292 960 l 1,18,-1
 76 960 l 1,19,-1
 88 1152 l 1,0,-1
EndSplineSet
EndChar

StartChar: bullet
Encoding: 8226 8226 411
Width: 818
GlyphClass: 2
Flags: W
LayerCount: 2
UndoRedoHistory
Layer: 1
Undoes
EndUndoes
Redoes
EndRedoes
EndUndoRedoHistory
Fore
SplineSet
72 720 m 128,-1,1
 72 870 72 870 161 963 c 128,-1,2
 250 1056 250 1056 416 1056 c 0,3,4
 571 1056 571 1056 658 962.5 c 128,-1,5
 745 869 745 869 745 720 c 128,-1,6
 745 571 745 571 658 478 c 128,-1,7
 571 385 571 385 416 385 c 0,8,9
 250 385 250 385 161 477.5 c 128,-1,0
 72 570 72 570 72 720 c 128,-1,1
EndSplineSet
EndChar

StartChar: ellipsis
Encoding: 8230 8230 412
Width: 1633
GlyphClass: 2
Flags: W
LayerCount: 2
UndoRedoHistory
Layer: 1
Undoes
EndUndoes
Redoes
EndRedoes
EndUndoRedoHistory
Fore
SplineSet
1246 288 m 1,0,-1
 1534 288 l 1,1,-1
 1534 12 l 1,2,-1
 1246 -12 l 1,3,-1
 1246 288 l 1,0,-1
674 288 m 1,4,-1
 962 288 l 1,5,-1
 962 12 l 1,6,-1
 674 -12 l 1,7,-1
 674 288 l 1,4,-1
102 288 m 1,8,-1
 390 288 l 1,9,-1
 390 12 l 1,10,-1
 102 -12 l 1,11,-1
 102 288 l 1,8,-1
EndSplineSet
EndChar

StartChar: perthousand
Encoding: 8240 8240 413
Width: 2997
GlyphClass: 2
Flags: W
LayerCount: 2
UndoRedoHistory
Layer: 1
Undoes
EndUndoes
Redoes
EndRedoes
EndUndoRedoHistory
Fore
SplineSet
1657 -1 m 0,0,1
 1467 -1 1467 -1 1366 109.5 c 128,-1,2
 1265 220 1265 220 1265 403 c 0,3,4
 1265 583 1265 583 1366 693 c 128,-1,5
 1467 803 1467 803 1657 803 c 0,6,7
 1843 803 1843 803 1946 692.5 c 128,-1,8
 2049 582 2049 582 2049 403 c 0,9,10
 2049 221 2049 221 1946.5 110 c 128,-1,11
 1844 -1 1844 -1 1657 -1 c 0,0,1
1655 193 m 1,12,13
 1724 193 1724 193 1762 255.5 c 128,-1,14
 1800 318 1800 318 1800 405 c 128,-1,15
 1800 492 1800 492 1762 556 c 128,-1,16
 1724 620 1724 620 1656 620 c 128,-1,17
 1588 620 1588 620 1550 557 c 128,-1,18
 1512 494 1512 494 1512 407 c 0,19,20
 1512 322 1512 322 1550 258.5 c 128,-1,21
 1588 195 1588 195 1655 193 c 1,12,13
703 0 m 1,22,-1
 1096 1536 l 1,23,-1
 1372 1536 l 1,24,-1
 979 0 l 1,25,-1
 703 0 l 1,22,-1
2558 -1 m 0,26,27
 2368 -1 2368 -1 2267 109.5 c 128,-1,28
 2166 220 2166 220 2166 403 c 0,29,30
 2166 583 2166 583 2267 693 c 128,-1,31
 2368 803 2368 803 2558 803 c 0,32,33
 2744 803 2744 803 2847 692.5 c 128,-1,34
 2950 582 2950 582 2950 403 c 0,35,36
 2950 221 2950 221 2847.5 110 c 128,-1,37
 2745 -1 2745 -1 2558 -1 c 0,26,27
2556 193 m 1,38,39
 2625 193 2625 193 2663 255.5 c 128,-1,40
 2701 318 2701 318 2701 405 c 128,-1,41
 2701 492 2701 492 2663 556 c 128,-1,42
 2625 620 2625 620 2557 620 c 128,-1,43
 2489 620 2489 620 2451 557 c 128,-1,44
 2413 494 2413 494 2413 407 c 0,45,46
 2413 322 2413 322 2451 258.5 c 128,-1,47
 2489 195 2489 195 2556 193 c 1,38,39
439 732 m 0,48,49
 249 732 249 732 148 842.5 c 128,-1,50
 47 953 47 953 47 1136 c 0,51,52
 47 1316 47 1316 148 1426 c 128,-1,53
 249 1536 249 1536 439 1536 c 0,54,55
 625 1536 625 1536 728 1425.5 c 128,-1,56
 831 1315 831 1315 831 1136 c 0,57,58
 831 954 831 954 728.5 843 c 128,-1,59
 626 732 626 732 439 732 c 0,48,49
437 926 m 1,60,61
 506 926 506 926 544 988.5 c 128,-1,62
 582 1051 582 1051 582 1138 c 128,-1,63
 582 1225 582 1225 544 1289 c 128,-1,64
 506 1353 506 1353 438 1353 c 128,-1,65
 370 1353 370 1353 332 1290 c 128,-1,66
 294 1227 294 1227 294 1140 c 0,67,68
 294 1055 294 1055 332 991.5 c 128,-1,69
 370 928 370 928 437 926 c 1,60,61
EndSplineSet
EndChar

StartChar: guilsinglleft
Encoding: 8249 8249 414
Width: 800
GlyphClass: 2
Flags: W
LayerCount: 2
UndoRedoHistory
Layer: 1
Undoes
EndUndoes
Redoes
EndRedoes
EndUndoRedoHistory
Fore
SplineSet
692 59 m 1,0,-1
 54 439 l 1,1,-1
 54 704 l 1,2,-1
 694 1094 l 1,3,-1
 680 833 l 1,4,-1
 299 607 l 1,5,-1
 706 402 l 1,6,-1
 692 59 l 1,0,-1
EndSplineSet
EndChar

StartChar: guilsinglright
Encoding: 8250 8250 415
Width: 800
GlyphClass: 2
Flags: W
LayerCount: 2
UndoRedoHistory
Layer: 1
Undoes
EndUndoes
Redoes
EndRedoes
EndUndoRedoHistory
Fore
SplineSet
746 439 m 1,0,-1
 108 59 l 1,1,-1
 94 402 l 1,2,-1
 501 607 l 1,3,-1
 120 833 l 1,4,-1
 106 1094 l 1,5,-1
 746 704 l 1,6,-1
 746 439 l 1,0,-1
EndSplineSet
EndChar

StartChar: fraction
Encoding: 8260 8260 416
Width: 634
GlyphClass: 2
Flags: W
LayerCount: 2
UndoRedoHistory
Layer: 1
Undoes
EndUndoes
Redoes
EndRedoes
EndUndoRedoHistory
Fore
SplineSet
67 0 m 1,0,-1
 268 1536 l 1,1,-1
 568 1536 l 1,2,-1
 367 0 l 1,3,-1
 67 0 l 1,0,-1
EndSplineSet
EndChar

StartChar: foursuperior
Encoding: 8308 8308 417
Width: 882
GlyphClass: 2
Flags: W
LayerCount: 2
UndoRedoHistory
Layer: 1
Undoes
EndUndoes
Redoes
EndRedoes
EndUndoRedoHistory
Fore
SplineSet
229 946 m 1,0,-1
 434 946 l 1,1,-1
 434 1287 l 1,2,-1
 229 946 l 1,0,-1
434 528 m 1,3,-1
 434 768 l 1,4,-1
 44 768 l 1,5,-1
 44 936 l 1,6,-1
 396 1536 l 1,7,-1
 682 1536 l 1,8,-1
 682 946 l 1,9,-1
 807 946 l 1,10,-1
 791 768 l 1,11,-1
 682 768 l 1,12,-1
 682 544 l 1,13,-1
 434 528 l 1,3,-1
EndSplineSet
EndChar

StartChar: Euro
Encoding: 8364 8364 418
Width: 1141
GlyphClass: 2
Flags: W
LayerCount: 2
UndoRedoHistory
Layer: 1
Undoes
EndUndoes
Redoes
EndRedoes
EndUndoRedoHistory
Fore
SplineSet
51 816 m 1,0,-1
 51 960 l 1,1,-1
 165 960 l 1,2,3
 176 1055 176 1055 198.5 1140 c 128,-1,4
 221 1225 221 1225 260.5 1304.5 c 128,-1,5
 300 1384 300 1384 352.5 1441.5 c 128,-1,6
 405 1499 405 1499 479.5 1533.5 c 128,-1,7
 554 1568 554 1568 643 1568 c 0,8,9
 772 1568 772 1568 871.5 1494 c 128,-1,10
 971 1420 971 1420 1020.5 1308.5 c 128,-1,11
 1070 1197 1070 1197 1070 1074 c 1,12,-1
 780 1059 l 1,13,14
 780 1082 780 1082 776 1114 c 128,-1,15
 772 1146 772 1146 759 1200.5 c 128,-1,16
 746 1255 746 1255 711.5 1291.5 c 128,-1,17
 677 1328 677 1328 626 1328 c 0,18,19
 586 1328 586 1328 555.5 1297.5 c 128,-1,20
 525 1267 525 1267 506 1213.5 c 128,-1,21
 487 1160 487 1160 476 1097.5 c 128,-1,22
 465 1035 465 1035 461 960 c 1,23,-1
 915 960 l 1,24,-1
 915 816 l 1,25,-1
 456 816 l 1,26,-1
 456 800 l 2,27,28
 456 747 456 747 457 720 c 1,29,-1
 915 720 l 1,30,-1
 915 576 l 1,31,-1
 464 576 l 1,32,33
 470 498 470 498 482.5 437.5 c 128,-1,34
 495 377 495 377 517 327.5 c 128,-1,35
 539 278 539 278 574 251.5 c 128,-1,36
 609 225 609 225 655 225 c 0,37,38
 691 225 691 225 719 241 c 128,-1,39
 747 257 747 257 763 280.5 c 128,-1,40
 779 304 779 304 791 339 c 128,-1,41
 803 374 803 374 808 402.5 c 128,-1,42
 813 431 813 431 817 467 c 1,43,-1
 1072 443 l 1,44,45
 1072 349 1072 349 1045 265 c 128,-1,46
 1018 181 1018 181 965.5 114 c 128,-1,47
 913 47 913 47 828 7.5 c 128,-1,48
 743 -32 743 -32 636 -32 c 0,49,50
 545 -32 545 -32 470.5 1.5 c 128,-1,51
 396 35 396 35 345.5 90.5 c 128,-1,52
 295 146 295 146 257.5 225.5 c 128,-1,53
 220 305 220 305 199 390.5 c 128,-1,54
 178 476 178 476 167 576 c 1,55,-1
 51 576 l 1,56,-1
 51 720 l 1,57,-1
 157 720 l 1,58,59
 156 747 156 747 156 800 c 2,60,-1
 156 816 l 1,61,-1
 51 816 l 1,0,-1
EndSplineSet
EndChar

StartChar: trademark
Encoding: 8482 8482 419
Width: 1877
GlyphClass: 2
Flags: W
LayerCount: 2
UndoRedoHistory
Layer: 1
Undoes
EndUndoes
Redoes
EndRedoes
EndUndoRedoHistory
Fore
SplineSet
1211 539 m 1,0,-1
 1032 1104 l 1,1,-1
 1032 548 l 1,2,-1
 860 539 l 1,3,-1
 860 1381 l 1,4,-1
 1165 1389 l 1,5,-1
 1306 888 l 1,6,-1
 1446 1364 l 1,7,-1
 1724 1382 l 1,8,-1
 1724 548 l 1,9,-1
 1508 531 l 1,10,-1
 1508 1100 l 1,11,-1
 1340 539 l 1,12,-1
 1211 539 l 1,0,-1
310 1215 m 1,13,-1
 92 1215 l 1,14,-1
 109 1391 l 1,15,-1
 735 1391 l 1,16,-1
 717 1215 l 1,17,-1
 519 1215 l 1,18,-1
 519 548 l 1,19,-1
 310 531 l 1,20,-1
 310 1215 l 1,13,-1
EndSplineSet
EndChar

StartChar: Delta
Encoding: 8710 8710 422
Width: 1047
GlyphClass: 2
Flags: W
LayerCount: 2
UndoRedoHistory
Layer: 1
Undoes
EndUndoes
Redoes
EndRedoes
EndUndoRedoHistory
Fore
SplineSet
553 907 m 1,0,-1
 412 192 l 1,1,-1
 719 192 l 1,2,-1
 553 907 l 1,0,-1
44 0 m 1,3,-1
 385 1322 l 1,4,-1
 650 1322 l 1,5,-1
 1004 0 l 1,6,-1
 44 0 l 1,3,-1
EndSplineSet
EndChar

StartChar: product
Encoding: 8719 8719 423
Width: 1171
GlyphClass: 2
Flags: W
LayerCount: 2
UndoRedoHistory
Layer: 1
Undoes
EndUndoes
Redoes
EndRedoes
EndUndoRedoHistory
Fore
SplineSet
730 -12 m 1,0,-1
 730 1238 l 1,1,-1
 442 1238 l 1,2,-1
 442 12 l 1,3,-1
 142 -12 l 1,4,-1
 142 1512 l 1,5,-1
 1030 1512 l 1,6,-1
 1030 12 l 1,7,-1
 730 -12 l 1,0,-1
EndSplineSet
EndChar

StartChar: minus
Encoding: 8722 8722 425
Width: 804
GlyphClass: 2
Flags: W
LayerCount: 2
UndoRedoHistory
Layer: 1
Undoes
EndUndoes
Redoes
EndRedoes
EndUndoRedoHistory
Fore
SplineSet
114 480 m 1,0,-1
 114 718 l 1,1,-1
 690 718 l 1,2,-1
 690 480 l 1,3,-1
 114 480 l 1,0,-1
EndSplineSet
EndChar

StartChar: integral
Encoding: 8747 8747 428
Width: 709
GlyphClass: 2
Flags: W
LayerCount: 2
UndoRedoHistory
Layer: 1
Undoes
EndUndoes
Redoes
EndRedoes
EndUndoRedoHistory
Fore
SplineSet
498 1173 m 2,0,1
 498 -22 l 2,2,3
 498 -65 498 -65 497 -92 c 128,-1,4
 496 -119 496 -119 492.5 -158 c 128,-1,5
 489 -197 489 -197 481 -222 c 128,-1,6
 473 -247 473 -247 459.5 -277 c 128,-1,7
 446 -307 446 -307 424.5 -326 c 128,-1,8
 403 -345 403 -345 374 -361.5 c 128,-1,9
 345 -378 345 -378 304 -386 c 128,-1,10
 263 -394 263 -394 212 -394 c 0,11,12
 120 -394 120 -394 62 -379 c 0,13,14
 35 -373 35 -373 17 -364 c 1,15,-1
 17 -192 l 1,16,-1
 80 -192 l 2,17,18
 123 -192 123 -192 150.5 -178 c 128,-1,19
 178 -164 178 -164 190 -137 c 128,-1,20
 202 -110 202 -110 206 -84.5 c 128,-1,21
 210 -59 210 -59 210 -21 c 2,22,-1
 210 1174 l 2,23,24
 210 1217 210 1217 211 1244 c 128,-1,25
 212 1271 212 1271 215.5 1310 c 128,-1,26
 219 1349 219 1349 227 1374 c 128,-1,27
 235 1399 235 1399 248.5 1429 c 128,-1,28
 262 1459 262 1459 283.5 1478 c 128,-1,29
 305 1497 305 1497 334 1513.5 c 128,-1,30
 363 1530 363 1530 404 1538 c 128,-1,31
 445 1546 445 1546 496 1546 c 0,32,33
 580 1546 580 1546 646 1531 c 0,34,35
 673 1524 673 1524 691 1516 c 1,36,-1
 691 1344 l 1,37,-1
 628 1344 l 2,38,39
 585 1344 585 1344 557.5 1330 c 128,-1,40
 530 1316 530 1316 518 1289 c 128,-1,41
 506 1262 506 1262 502 1236.5 c 128,-1,42
 498 1211 498 1211 498 1173 c 2,0,1
EndSplineSet
EndChar

StartChar: approxequal
Encoding: 8776 8776 429
Width: 828
GlyphClass: 2
Flags: W
LayerCount: 2
UndoRedoHistory
Layer: 1
Undoes
EndUndoes
Redoes
EndRedoes
EndUndoRedoHistory
Fore
SplineSet
105 768 m 1,0,1
 105 783 l 1,2,3
 98 776 98 776 91 768 c 1,4,-1
 92 932 l 1,5,6
 127 973 127 973 161 1003 c 0,7,8
 244 1074 244 1074 305 1074 c 0,9,10
 309 1074 309 1074 312 1074 c 128,-1,11
 315 1074 315 1074 319 1074 c 0,12,13
 362 1074 362 1074 405 1046.5 c 0,14,15
 448 1020 448 1020 487 992 c 0,16,17
 523 967 523 967 555 964 c 1,18,19
 633 967 633 967 687 1019 c 0,20,21
 713 1043 713 1043 729 1074 c 1,22,-1
 729 1051 l 1,23,24
 737 1062 737 1062 743 1074 c 1,25,-1
 743 892 l 2,26,27
 743 890 743 890 735 876.5 c 128,-1,28
 727 863 727 863 710 842.5 c 128,-1,29
 693 822 693 822 671.5 803 c 128,-1,30
 650 784 650 784 618 770.5 c 128,-1,31
 586 757 586 757 552 757 c 0,32,33
 549 757 549 757 546 757 c 0,34,35
 542 757 542 757 538 757 c 0,36,37
 508 757 508 757 475.5 776 c 128,-1,38
 443 795 443 795 418 817.5 c 128,-1,39
 393 840 393 840 357 859 c 0,40,41
 324 876 324 876 291 878 c 1,42,43
 234 875 234 875 165 823 c 1,44,45
 131 796 131 796 105 768 c 1,0,1
EndSplineSet
EndChar

StartChar: notequal
Encoding: 8800 8800 430
Width: 804
GlyphClass: 2
Flags: W
LayerCount: 2
UndoRedoHistory
Layer: 1
Undoes
EndUndoes
Redoes
EndRedoes
EndUndoRedoHistory
Fore
SplineSet
114 672 m 1,0,-1
 114 910 l 1,1,-1
 690 910 l 1,2,-1
 690 672 l 1,3,-1
 114 672 l 1,0,-1
114 288 m 1,4,-1
 114 526 l 1,5,-1
 690 526 l 1,6,-1
 690 288 l 1,7,-1
 114 288 l 1,4,-1
EndSplineSet
EndChar

StartChar: lessequal
Encoding: 8804 8804 431
Width: 979
GlyphClass: 2
Flags: W
LayerCount: 2
UndoRedoHistory
Layer: 1
Undoes
EndUndoes
Redoes
EndRedoes
EndUndoRedoHistory
Fore
SplineSet
184 -1 m 1,0,-1
 184 237 l 1,1,-1
 760 237 l 1,2,-1
 760 -1 l 1,3,-1
 184 -1 l 1,0,-1
869 473 m 1,4,-1
 61 823 l 1,5,-1
 61 1088 l 1,6,-1
 871 1448 l 1,7,-1
 857 1187 l 1,8,-1
 406 991 l 1,9,-1
 883 816 l 1,10,-1
 869 473 l 1,4,-1
EndSplineSet
EndChar

StartChar: greaterequal
Encoding: 8805 8805 432
Width: 979
GlyphClass: 2
Flags: W
LayerCount: 2
UndoRedoHistory
Layer: 1
Undoes
EndUndoes
Redoes
EndRedoes
EndUndoRedoHistory
Fore
SplineSet
219 0 m 1,0,-1
 219 238 l 1,1,-1
 795 238 l 1,2,-1
 795 0 l 1,3,-1
 219 0 l 1,0,-1
918 823 m 1,4,-1
 110 473 l 1,5,-1
 96 816 l 1,6,-1
 573 991 l 1,7,-1
 122 1187 l 1,8,-1
 108 1448 l 1,9,-1
 918 1088 l 1,10,-1
 918 823 l 1,4,-1
EndSplineSet
EndChar

StartChar: lozenge
Encoding: 9674 9674 433
Width: 938
GlyphClass: 2
Flags: W
LayerCount: 2
UndoRedoHistory
Layer: 1
Undoes
EndUndoes
Redoes
EndRedoes
EndUndoRedoHistory
Fore
SplineSet
461 1119 m 1,0,-1
 296 720 l 1,1,-1
 461 321 l 1,2,-1
 605 720 l 1,3,-1
 461 1119 l 1,0,-1
887 797 m 1,4,-1
 887 642 l 1,5,-1
 605 0 l 1,6,-1
 340 0 l 1,7,-1
 50 642 l 1,8,-1
 50 797 l 1,9,-1
 340 1440 l 1,10,-1
 605 1440 l 1,11,-1
 887 797 l 1,4,-1
EndSplineSet
EndChar

StartChar: commaaccent
Encoding: 63171 63171 434
Width: 481
GlyphClass: 4
Flags: W
AnchorPoint: "Anchor-1" 274 790 mark 0
LayerCount: 2
UndoRedoHistory
Layer: 1
Undoes
EndUndoes
Redoes
EndRedoes
EndUndoRedoHistory
Fore
SplineSet
102 672 m 1,0,-1
 390 672 l 1,1,-1
 390 384 l 2,2,3
 390 202 390 202 270 132 c 1,4,5
 218 100 218 100 150 96 c 1,6,-1
 150 288 l 1,7,8
 210 288 210 288 234 336 c 0,9,10
 244 357 244 357 246 384 c 1,11,-1
 102 384 l 1,12,-1
 102 672 l 1,0,-1
EndSplineSet
EndChar

StartChar: f_f
Encoding: 64256 64256 436
Width: 1445
GlyphClass: 2
Flags: W
LayerCount: 2
UndoRedoHistory
Layer: 1
Undoes
EndUndoes
Redoes
EndRedoes
EndUndoRedoHistory
Fore
SplineSet
930 -12 m 1,0,-1
 930 936 l 1,1,-1
 788 936 l 1,2,-1
 800 1152 l 1,3,-1
 930 1152 l 1,4,-1
 930 1174 l 2,5,6
 930 1217 930 1217 931 1244 c 128,-1,7
 932 1271 932 1271 935.5 1310 c 128,-1,8
 939 1349 939 1349 947 1374 c 128,-1,9
 955 1399 955 1399 968.5 1429 c 128,-1,10
 982 1459 982 1459 1003.5 1478 c 128,-1,11
 1025 1497 1025 1497 1054 1513.5 c 128,-1,12
 1083 1530 1083 1530 1124 1538 c 128,-1,13
 1165 1546 1165 1546 1216 1546 c 0,14,15
 1300 1546 1300 1546 1366 1531 c 0,16,17
 1393 1524 1393 1524 1411 1516 c 1,18,-1
 1411 1344 l 1,19,-1
 1348 1344 l 2,20,21
 1305 1344 1305 1344 1277.5 1330 c 128,-1,22
 1250 1316 1250 1316 1238 1289 c 128,-1,23
 1226 1262 1226 1262 1222 1236.5 c 128,-1,24
 1218 1211 1218 1211 1218 1173 c 2,25,-1
 1218 1152 l 1,26,-1
 1421 1152 l 1,27,-1
 1409 936 l 1,28,-1
 1218 936 l 1,29,-1
 1218 12 l 1,30,-1
 930 -12 l 1,0,-1
176 -12 m 1,31,-1
 176 936 l 1,32,-1
 34 936 l 1,33,-1
 46 1152 l 1,34,-1
 176 1152 l 1,35,-1
 176 1174 l 2,36,37
 176 1217 176 1217 177 1244 c 128,-1,38
 178 1271 178 1271 181.5 1310 c 128,-1,39
 185 1349 185 1349 193 1374 c 128,-1,40
 201 1399 201 1399 214.5 1429 c 128,-1,41
 228 1459 228 1459 249.5 1478 c 128,-1,42
 271 1497 271 1497 300 1513.5 c 128,-1,43
 329 1530 329 1530 370 1538 c 128,-1,44
 411 1546 411 1546 462 1546 c 0,45,46
 546 1546 546 1546 612 1531 c 0,47,48
 639 1524 639 1524 657 1516 c 1,49,-1
 657 1344 l 1,50,-1
 594 1344 l 2,51,52
 551 1344 551 1344 523.5 1330 c 128,-1,53
 496 1316 496 1316 484 1289 c 128,-1,54
 472 1262 472 1262 468 1236.5 c 128,-1,55
 464 1211 464 1211 464 1173 c 2,56,-1
 464 1152 l 1,57,-1
 667 1152 l 1,58,-1
 655 936 l 1,59,-1
 464 936 l 1,60,-1
 464 12 l 1,61,-1
 176 -12 l 1,31,-1
EndSplineSet
EndChar

StartChar: fi
Encoding: 64257 64257 437
Width: 1287
GlyphClass: 2
Flags: W
LayerCount: 2
UndoRedoHistory
Layer: 1
Undoes
EndUndoes
Redoes
EndRedoes
EndUndoRedoHistory
Fore
SplineSet
875 1600 m 1,0,-1
 1163 1600 l 1,1,-1
 1163 1300 l 1,2,-1
 875 1288 l 1,3,-1
 875 1600 l 1,0,-1
875 -12 m 1,4,-1
 875 915 l 1,5,-1
 465 915 l 1,6,-1
 465 12 l 1,7,-1
 177 -12 l 1,8,-1
 177 917 l 1,9,-1
 35 917 l 1,10,-1
 59 1152 l 1,11,-1
 177 1152 l 1,12,-1
 177 1174 l 2,13,14
 177 1217 177 1217 178 1244 c 128,-1,15
 179 1271 179 1271 182.5 1310 c 128,-1,16
 186 1349 186 1349 194 1374 c 128,-1,17
 202 1399 202 1399 215.5 1429 c 128,-1,18
 229 1459 229 1459 250.5 1478 c 128,-1,19
 272 1497 272 1497 301 1513.5 c 128,-1,20
 330 1530 330 1530 371 1538 c 128,-1,21
 412 1546 412 1546 463 1546 c 0,22,23
 547 1546 547 1546 613 1531 c 0,24,25
 640 1524 640 1524 658 1516 c 1,26,-1
 658 1344 l 1,27,-1
 595 1344 l 2,28,29
 552 1344 552 1344 524.5 1330 c 128,-1,30
 497 1316 497 1316 485 1289 c 128,-1,31
 473 1262 473 1262 469 1236.5 c 128,-1,32
 465 1211 465 1211 465 1173 c 2,33,-1
 465 1152 l 1,34,-1
 1163 1152 l 1,35,-1
 1163 12 l 1,36,-1
 875 -12 l 1,4,-1
EndSplineSet
EndChar

StartChar: fl
Encoding: 64258 64258 438
Width: 1287
GlyphClass: 2
Flags: W
LayerCount: 2
UndoRedoHistory
Layer: 1
Undoes
EndUndoes
Redoes
EndRedoes
EndUndoRedoHistory
Fore
SplineSet
875 -12 m 1,0,-1
 875 1344 l 1,1,-1
 555 1344 l 2,2,3
 530 1344 530 1344 513 1333.5 c 128,-1,4
 496 1323 496 1323 486.5 1308.5 c 128,-1,5
 477 1294 477 1294 472 1269 c 128,-1,6
 467 1244 467 1244 466 1223.5 c 128,-1,7
 465 1203 465 1203 465 1173 c 2,8,-1
 465 1152 l 1,9,-1
 656 1152 l 1,10,-1
 632 915 l 1,11,-1
 465 915 l 1,12,-1
 465 12 l 1,13,-1
 177 -12 l 1,14,-1
 177 917 l 1,15,-1
 35 917 l 1,16,-1
 59 1152 l 1,17,-1
 177 1152 l 1,18,-1
 177 1174 l 2,19,20
 177 1212 177 1212 177.5 1235.5 c 128,-1,21
 178 1259 178 1259 182 1294 c 128,-1,22
 186 1329 186 1329 193 1351 c 128,-1,23
 200 1373 200 1373 213.5 1401 c 128,-1,24
 227 1429 227 1429 246.5 1446.5 c 128,-1,25
 266 1464 266 1464 295 1483 c 128,-1,26
 324 1502 324 1502 361.5 1512.5 c 128,-1,27
 399 1523 399 1523 450 1529.5 c 128,-1,28
 501 1536 501 1536 563 1536 c 2,29,-1
 1163 1536 l 1,30,-1
 1163 12 l 1,31,-1
 875 -12 l 1,0,-1
EndSplineSet
EndChar

StartChar: f_f_i
Encoding: 64259 64259 439
Width: 2095
GlyphClass: 2
Flags: W
LayerCount: 2
UndoRedoHistory
Layer: 1
Undoes
EndUndoes
Redoes
EndRedoes
EndUndoRedoHistory
Fore
SplineSet
1683 1598 m 1,0,-1
 1971 1600 l 1,1,-1
 1971 1312 l 1,2,-1
 1683 1300 l 1,3,-1
 1683 1598 l 1,0,-1
1683 -12 m 1,4,-1
 1683 1128 l 1,5,-1
 1971 1152 l 1,6,-1
 1971 12 l 1,7,-1
 1683 -12 l 1,4,-1
930 -12 m 1,8,-1
 930 936 l 1,9,-1
 788 936 l 1,10,-1
 800 1152 l 1,11,-1
 930 1152 l 1,12,-1
 930 1174 l 2,13,14
 930 1217 930 1217 931 1244 c 128,-1,15
 932 1271 932 1271 935.5 1310 c 128,-1,16
 939 1349 939 1349 947 1374 c 128,-1,17
 955 1399 955 1399 968.5 1429 c 128,-1,18
 982 1459 982 1459 1003.5 1478 c 128,-1,19
 1025 1497 1025 1497 1054 1513.5 c 128,-1,20
 1083 1530 1083 1530 1124 1538 c 128,-1,21
 1165 1546 1165 1546 1216 1546 c 0,22,23
 1300 1546 1300 1546 1366 1531 c 0,24,25
 1393 1524 1393 1524 1411 1516 c 1,26,-1
 1411 1344 l 1,27,-1
 1348 1344 l 2,28,29
 1305 1344 1305 1344 1277.5 1330 c 128,-1,30
 1250 1316 1250 1316 1238 1289 c 128,-1,31
 1226 1262 1226 1262 1222 1236.5 c 128,-1,32
 1218 1211 1218 1211 1218 1173 c 2,33,-1
 1218 1152 l 1,34,-1
 1421 1152 l 1,35,-1
 1409 936 l 1,36,-1
 1218 936 l 1,37,-1
 1218 12 l 1,38,-1
 930 -12 l 1,8,-1
176 -12 m 1,39,-1
 176 936 l 1,40,-1
 34 936 l 1,41,-1
 46 1152 l 1,42,-1
 176 1152 l 1,43,-1
 176 1174 l 2,44,45
 176 1217 176 1217 177 1244 c 128,-1,46
 178 1271 178 1271 181.5 1310 c 128,-1,47
 185 1349 185 1349 193 1374 c 128,-1,48
 201 1399 201 1399 214.5 1429 c 128,-1,49
 228 1459 228 1459 249.5 1478 c 128,-1,50
 271 1497 271 1497 300 1513.5 c 128,-1,51
 329 1530 329 1530 370 1538 c 128,-1,52
 411 1546 411 1546 462 1546 c 0,53,54
 546 1546 546 1546 612 1531 c 0,55,56
 639 1524 639 1524 657 1516 c 1,57,-1
 657 1344 l 1,58,-1
 594 1344 l 2,59,60
 551 1344 551 1344 523.5 1330 c 128,-1,61
 496 1316 496 1316 484 1289 c 128,-1,62
 472 1262 472 1262 468 1236.5 c 128,-1,63
 464 1211 464 1211 464 1173 c 2,64,-1
 464 1152 l 1,65,-1
 667 1152 l 1,66,-1
 655 936 l 1,67,-1
 464 936 l 1,68,-1
 464 12 l 1,69,-1
 176 -12 l 1,39,-1
EndSplineSet
EndChar

StartChar: f_f_l
Encoding: 64260 64260 440
Width: 2094
GlyphClass: 2
Flags: W
LayerCount: 2
UndoRedoHistory
Layer: 1
Undoes
EndUndoes
Redoes
EndRedoes
EndUndoRedoHistory
Fore
SplineSet
1682 -12 m 1,0,-1
 1682 1500 l 1,1,-1
 1970 1536 l 1,2,-1
 1970 12 l 1,3,-1
 1682 -12 l 1,0,-1
930 -12 m 1,4,-1
 930 936 l 1,5,-1
 788 936 l 1,6,-1
 800 1152 l 1,7,-1
 930 1152 l 1,8,-1
 930 1174 l 2,9,10
 930 1217 930 1217 931 1244 c 128,-1,11
 932 1271 932 1271 935.5 1310 c 128,-1,12
 939 1349 939 1349 947 1374 c 128,-1,13
 955 1399 955 1399 968.5 1429 c 128,-1,14
 982 1459 982 1459 1003.5 1478 c 128,-1,15
 1025 1497 1025 1497 1054 1513.5 c 128,-1,16
 1083 1530 1083 1530 1124 1538 c 128,-1,17
 1165 1546 1165 1546 1216 1546 c 0,18,19
 1300 1546 1300 1546 1366 1531 c 0,20,21
 1393 1524 1393 1524 1411 1516 c 1,22,-1
 1411 1344 l 1,23,-1
 1348 1344 l 2,24,25
 1305 1344 1305 1344 1277.5 1330 c 128,-1,26
 1250 1316 1250 1316 1238 1289 c 128,-1,27
 1226 1262 1226 1262 1222 1236.5 c 128,-1,28
 1218 1211 1218 1211 1218 1173 c 2,29,-1
 1218 1152 l 1,30,-1
 1421 1152 l 1,31,-1
 1409 936 l 1,32,-1
 1218 936 l 1,33,-1
 1218 12 l 1,34,-1
 930 -12 l 1,4,-1
176 -12 m 1,35,-1
 176 936 l 1,36,-1
 34 936 l 1,37,-1
 46 1152 l 1,38,-1
 176 1152 l 1,39,-1
 176 1174 l 2,40,41
 176 1217 176 1217 177 1244 c 128,-1,42
 178 1271 178 1271 181.5 1310 c 128,-1,43
 185 1349 185 1349 193 1374 c 128,-1,44
 201 1399 201 1399 214.5 1429 c 128,-1,45
 228 1459 228 1459 249.5 1478 c 128,-1,46
 271 1497 271 1497 300 1513.5 c 128,-1,47
 329 1530 329 1530 370 1538 c 128,-1,48
 411 1546 411 1546 462 1546 c 0,49,50
 546 1546 546 1546 612 1531 c 0,51,52
 639 1524 639 1524 657 1516 c 1,53,-1
 657 1344 l 1,54,-1
 594 1344 l 2,55,56
 551 1344 551 1344 523.5 1330 c 128,-1,57
 496 1316 496 1316 484 1289 c 128,-1,58
 472 1262 472 1262 468 1236.5 c 128,-1,59
 464 1211 464 1211 464 1173 c 2,60,-1
 464 1152 l 1,61,-1
 667 1152 l 1,62,-1
 655 936 l 1,63,-1
 464 936 l 1,64,-1
 464 12 l 1,65,-1
 176 -12 l 1,35,-1
EndSplineSet
EndChar

StartChar: dotaccentcmb
Encoding: 775 775 441
Width: 380
GlyphClass: 4
Flags: W
AnchorPoint: "Anchor-0" 190 1112 mark 0
LayerCount: 2
UndoRedoHistory
Layer: 1
Undoes
EndUndoes
Redoes
EndRedoes
EndUndoRedoHistory
Fore
SplineSet
46 1536 m 1,0,-1
 334 1536 l 1,1,-1
 334 1248 l 1,2,-1
 46 1248 l 1,3,-1
 46 1536 l 1,0,-1
EndSplineSet
EndChar

StartChar: gravecomb
Encoding: 768 768 442
Width: 591
GlyphClass: 4
Flags: W
AnchorPoint: "Anchor-0" 470 1156 mark 0
LayerCount: 2
UndoRedoHistory
Layer: 1
Undoes
EndUndoes
Redoes
EndRedoes
EndUndoRedoHistory
Fore
SplineSet
558 1342 m 1,0,-1
 444 1241 l 1,1,-1
 34 1587 l 1,2,-1
 260 1789 l 1,3,-1
 558 1342 l 1,0,-1
EndSplineSet
EndChar

StartChar: caroncomb
Encoding: 780 780 443
Width: 741
GlyphClass: 4
Flags: W
AnchorPoint: "Anchor-0" 346 1113 mark 0
LayerCount: 2
UndoRedoHistory
Layer: 1
Undoes
EndUndoes
Redoes
EndRedoes
EndUndoRedoHistory
Fore
SplineSet
34 1728 m 1,0,-1
 244 1728 l 1,1,-1
 360 1438 l 1,2,-1
 456 1728 l 1,3,-1
 706 1728 l 1,4,-1
 476 1248 l 1,5,-1
 274 1248 l 1,6,-1
 34 1728 l 1,0,-1
EndSplineSet
EndChar

StartChar: brevecomb
Encoding: 774 774 444
Width: 944
GlyphClass: 4
Flags: W
AnchorPoint: "Anchor-0" 453 1122 mark 0
LayerCount: 2
UndoRedoHistory
Layer: 1
Undoes
EndUndoes
Redoes
EndRedoes
EndUndoRedoHistory
Fore
SplineSet
40 1728 m 1,0,1
 280 1728 l 1,2,3
 280 1700 280 1700 280.5 1684 c 128,-1,4
 281 1668 281 1668 284.5 1639 c 128,-1,5
 288 1610 288 1610 295 1592.5 c 128,-1,6
 302 1575 302 1575 316 1553 c 128,-1,7
 330 1531 330 1531 350 1518.5 c 128,-1,8
 370 1506 370 1506 401 1497 c 128,-1,9
 432 1488 432 1488 472 1488 c 128,-1,10
 512 1488 512 1488 543 1497 c 128,-1,11
 574 1506 574 1506 594 1518.5 c 128,-1,12
 614 1531 614 1531 628 1553 c 128,-1,13
 642 1575 642 1575 649 1592.5 c 128,-1,14
 656 1610 656 1610 659.5 1639 c 128,-1,15
 663 1668 663 1668 663.5 1684 c 128,-1,16
 664 1700 664 1700 664 1728 c 1,17,-1
 904 1728 l 1,18,19
 904 1669 904 1669 892 1608 c 128,-1,20
 880 1547 880 1547 848.5 1481 c 128,-1,21
 817 1415 817 1415 770 1364.5 c 128,-1,22
 723 1314 723 1314 645.5 1281 c 128,-1,23
 568 1248 568 1248 472 1248 c 128,-1,24
 376 1248 376 1248 298.5 1281 c 128,-1,25
 221 1314 221 1314 174 1364.5 c 128,-1,26
 127 1415 127 1415 95.5 1481 c 128,-1,27
 64 1547 64 1547 52 1608 c 128,-1,28
 40 1669 40 1669 40 1728 c 1,0,1
EndSplineSet
EndChar
